;TYPE=PLATED
;Layer: PTH_Through
;EasyEDA Pro v2.2.46.11, 2026-03-30 20:28:27
;Gerber Generator version 0.3
M48
METRIC,LZ,0000.00000
;Hole size 1 = 0.30500 METRIC
T01C0.30500
;Hole size 2 = 0.80000 METRIC
T02C0.80000
;Hole size 3 = 1.10002 METRIC
T03C1.10002
%
G05
G90
T01
X66.294Y-5.588
X62.03212Y-5.715
X48.768Y-10.46086
X51.562Y-12.7
X83.947Y-22.733
X82.169Y-20.828
X105.283Y-25.4
X100.838Y-40.259
X100.203Y-36.957
X94.869Y-35.052
X91.694Y-33.274
X91.694Y-31.623
X100.965Y-21.971
X101.346Y-35.179
X107.69596Y-44.42656
X78.105Y-19.939
X87.63Y-36.576
X85.979Y-42.418
X87.503Y-37.465
X76.04145Y-13.36655
X81.026Y-13.335
X91.313Y-13.335
X95.758Y-13.335
X76.962Y-37.719
X84.582Y-43.62196
X62.865Y-17.272
X84.201Y-17.399
X91.821Y-22.987
X88.392Y-20.447
X56.61365Y-15.748
X56.61365Y-20.15278
X78.232Y-30.861
X81.915Y-39.497
X90.297Y-37.973
X93.345Y-36.83
X71.628Y-9.652
X96.78683Y-38.354
X98.425Y-37.211
X87.249Y-35.90011
X88.011Y-35.25012
X72.517Y-18.288
X71.755Y-20.066
X70.739Y-16.19352
X62.97272Y-11.96594
X71.6915Y-8.6995
X73.279Y-7.366
X108.331Y-45.085
X107.061Y-52.324
X111.379Y-29.972
X109.34126Y-29.972
X101.6Y-24.257
X101.6Y-20.32
X63.373Y-6.604
X66.802Y-6.985
X83.185Y-23.241
X80.899Y-19.939
T02
X112.53727Y-19.17004G85X113.13726Y-19.17004
X108.25735Y-19.17004G85X109.05733Y-19.17004
X108.25735Y-27.81996G85X109.05738Y-27.81996
X112.53727Y-27.81996G85X113.13726Y-27.81996
T03
X60.071Y-1.651
X62.611Y-1.651
X65.151Y-1.651
X67.691Y-1.651
M30