G04 Layer: DrillDrawingLayer*
G04 EasyEDA Pro v2.2.46.11, 2026-03-30 20:28:27*
G04 Gerber Generator version 0.3*
G04 Scale: 100 percent, Rotated: No, Reflected: No*
G04 Dimensions in millimeters*
G04 Leading zeros omitted, absolute positions, 4 integers and 5 decimals*
G04 Generated by one-click*
%FSLAX45Y45*%
%MOMM*%
%AMIconRect*4,1,4,0.28,-0.28,-0.28,-0.28,-0.28,0.28,0.28,0.28,0.28,-0.28,0*4,0,4,0.233333,-0.233333,0.233333,0.233333,-0.233333,0.233333,-0.233333,-0.233333,0.233333,-0.233333,0*%
%AMIconTriangle*4,1,3,-0.339593,0.240473,0.339593,0.240473,0,-0.37884,-0.339593,0.240473,0*4,0,3,-0.265673,0.19404,0,-0.27342,0.266233,0.19404,-0.265673,0.19404,0*%
%AMIconStar6*4,1,12,0.12068,0.20888,0.298527,0.172713,0.241313,0,0.298527,-0.17206,0.12068,-0.208227,0,-0.344073,-0.120073,-0.208227,-0.298573,-0.17206,-0.240707,0,-0.298573,0.17206,-0.120073,0.20888,0,0.344073,0.12068,0.20888,0*4,0,12,-0.000467,0.273467,-0.090067,0.171733,-0.237533,0.136733,-0.193667,-0.007467,-0.237533,-0.1372,-0.090067,-0.171733,-0.000467,-0.273933,0.090067,-0.171733,0.237533,-0.1372,0.194133,0.007,0.237533,0.1372,0.090067,0.171267,-0.000467,0.273467,0*%
%AMIconStar4*4,1,8,-0.311733,0.311733,0,0.202533,0.311733,0.311733,0.202533,0,0.311733,-0.311733,0,-0.202533,-0.304407,-0.311733,-0.202533,0,-0.311733,0.311733,0*4,0,8,0.233333,-0.233333,0.1512,0,0.233333,0.233333,0,0.1512,-0.233333,0.233333,-0.1512,0,-0.233333,-0.233333,0,-0.1512,0.233333,-0.233333,0*%
%AMIconPlus*4,1,12,0.1736,-0.28,-0.1736,-0.28,-0.1736,-0.1736,-0.28,-0.1736,-0.28,0.1736,-0.1736,0.1736,-0.1736,0.28,0.1736,0.28,0.1736,0.1736,0.28,0.1736,0.28,-0.1736,0.1736,-0.1736,0.1736,-0.28,0*4,0,12,0.126933,-0.233333,0.126933,-0.126933,0.233333,-0.126933,0.233333,0.126933,0.126933,0.126933,0.126933,0.233333,-0.126933,0.233333,-0.126933,0.126933,-0.233333,0.126933,-0.233333,-0.126933,-0.126933,-0.126933,-0.126933,-0.233333,0.126933,-0.233333,0*%
%ADD10IconRect*%
%ADD11C,0.616X0.522667*%
%ADD12IconTriangle*%
%ADD13IconStar6*%
%ADD14IconStar4*%
%ADD15IconPlus*%
G75*


G04 Drill Drawing Start*
G54D10*
G01X11283709Y-2782011D03*
G01X11283709Y-1916989D03*
G54D11*
G01X10865726Y-2782011D03*
G01X10865726Y-1916989D03*
G54D12*
G01X10548184Y-3409137D03*
G01X11248183Y-3409137D03*
G54D13*
G01X10915739Y-2639492D03*
G01X10915739Y-2059508D03*
G54D14*
G01X6007100Y-165100D03*
G01X6261100Y-165100D03*
G01X6515100Y-165100D03*
G01X6769100Y-165100D03*
G54D15*
G01X4876800Y-1046086D03*
G01X5156200Y-1270000D03*
G01X5661365Y-2015278D03*
G01X5661365Y-1574800D03*
G01X6203212Y-571500D03*
G01X6286500Y-1727200D03*
G01X6297272Y-1196594D03*
G01X6337300Y-660400D03*
G01X6629400Y-558800D03*
G01X6680200Y-698500D03*
G01X7073900Y-1619352D03*
G01X7162800Y-965200D03*
G01X7169150Y-869950D03*
G01X7175500Y-2006600D03*
G01X7251700Y-1828800D03*
G01X7327900Y-736600D03*
G01X7604145Y-1336655D03*
G01X7696200Y-3771900D03*
G01X7810500Y-1993900D03*
G01X7823200Y-3086100D03*
G01X8089900Y-1993900D03*
G01X8102600Y-1333500D03*
G01X8191500Y-3949700D03*
G01X8216900Y-2082800D03*
G01X8318500Y-2324100D03*
G01X8394700Y-2273300D03*
G01X8420100Y-1739900D03*
G01X8458200Y-4362196D03*
G01X8597900Y-4241800D03*
G01X8724900Y-3590011D03*
G01X8750300Y-3746500D03*
G01X8763000Y-3657600D03*
G01X8801100Y-3525012D03*
G01X8839200Y-2044700D03*
G01X9029700Y-3797300D03*
G01X9131300Y-1333500D03*
G01X9169400Y-3327400D03*
G01X9169400Y-3162300D03*
G01X9182100Y-2298700D03*
G01X9334500Y-3683000D03*
G01X9486900Y-3505200D03*
G01X9575800Y-1333500D03*
G01X9678683Y-3835400D03*
G01X9842500Y-3721100D03*
G01X10020300Y-3695700D03*
G01X10083800Y-4025900D03*
G01X10096500Y-2197100D03*
G01X10134600Y-3517900D03*
G01X10160000Y-2425700D03*
G01X10160000Y-2032000D03*
G01X10528300Y-2540000D03*
G01X10706100Y-5232400D03*
G01X10769596Y-4442656D03*
G01X10833100Y-4508500D03*
G01X10934126Y-2997200D03*
G01X11137900Y-2997200D03*
G04 Drill Drawing End*

M02*

