G04 Layer: TopSilkscreenLayer*
G04 EasyEDA Pro v2.2.46.11, 2026-03-30 20:28:27*
G04 Gerber Generator version 0.3*
G04 Scale: 100 percent, Rotated: No, Reflected: No*
G04 Dimensions in millimeters*
G04 Leading zeros omitted, absolute positions, 4 integers and 5 decimals*
G04 Generated by one-click*
%FSLAX45Y45*%
%MOMM*%
%ADD10C,0.1524*%
%ADD11C,0.127*%
%ADD12C,0.254*%
%ADD13C,0.15001*%
%ADD14C,0.15199*%
%ADD15C,0.2*%
%ADD16C,0.3040*%
%ADD17C,0.3*%
G75*


G04 Text Start*
G54D10*
G01X10536989Y-5483751D02*
G01X10540037Y-5490101D01*
G01X10546387Y-5496197D01*
G01X10552483Y-5499245D01*
G01X10564929Y-5499245D01*
G01X10571025Y-5496197D01*
G01X10577375Y-5490101D01*
G01X10580423Y-5483751D01*
G01X10583471Y-5474607D01*
G01X10583471Y-5459113D01*
G01X10580423Y-5449715D01*
G01X10577375Y-5443619D01*
G01X10571025Y-5437269D01*
G01X10564929Y-5434221D01*
G01X10552483Y-5434221D01*
G01X10546387Y-5437269D01*
G01X10540037Y-5443619D01*
G01X10536989Y-5449715D01*
G01X10506763Y-5486799D02*
G01X10500667Y-5490101D01*
G01X10491523Y-5499245D01*
G01X10491523Y-5434221D01*
G01X11446711Y-4384149D02*
G01X11443663Y-4377799D01*
G01X11437313Y-4371703D01*
G01X11431217Y-4368655D01*
G01X11418771Y-4368655D01*
G01X11412675Y-4371703D01*
G01X11406325Y-4377799D01*
G01X11403277Y-4384149D01*
G01X11400229Y-4393293D01*
G01X11400229Y-4408787D01*
G01X11403277Y-4418185D01*
G01X11406325Y-4424281D01*
G01X11412675Y-4430631D01*
G01X11418771Y-4433679D01*
G01X11431217Y-4433679D01*
G01X11437313Y-4430631D01*
G01X11443663Y-4424281D01*
G01X11446711Y-4418185D01*
G01X11479985Y-4384149D02*
G01X11479985Y-4381101D01*
G01X11483033Y-4374751D01*
G01X11486081Y-4371703D01*
G01X11492177Y-4368655D01*
G01X11504623Y-4368655D01*
G01X11510973Y-4371703D01*
G01X11514021Y-4374751D01*
G01X11517069Y-4381101D01*
G01X11517069Y-4387197D01*
G01X11514021Y-4393293D01*
G01X11507671Y-4402691D01*
G01X11476937Y-4433679D01*
G01X11520117Y-4433679D01*
G01X10594449Y-4326689D02*
G01X10588099Y-4329737D01*
G01X10582003Y-4336087D01*
G01X10578955Y-4342183D01*
G01X10578955Y-4354629D01*
G01X10582003Y-4360725D01*
G01X10588099Y-4367075D01*
G01X10594449Y-4370123D01*
G01X10603593Y-4373171D01*
G01X10619087Y-4373171D01*
G01X10628485Y-4370123D01*
G01X10634581Y-4367075D01*
G01X10640931Y-4360725D01*
G01X10643979Y-4354629D01*
G01X10643979Y-4342183D01*
G01X10640931Y-4336087D01*
G01X10634581Y-4329737D01*
G01X10628485Y-4326689D01*
G01X10578955Y-4290367D02*
G01X10578955Y-4256331D01*
G01X10603593Y-4274873D01*
G01X10603593Y-4265729D01*
G01X10606641Y-4259379D01*
G01X10609943Y-4256331D01*
G01X10619087Y-4253283D01*
G01X10625437Y-4253283D01*
G01X10634581Y-4256331D01*
G01X10640931Y-4262427D01*
G01X10643979Y-4271825D01*
G01X10643979Y-4281223D01*
G01X10640931Y-4290367D01*
G01X10637629Y-4293415D01*
G01X10631533Y-4296463D01*
G01X11319711Y-3711049D02*
G01X11316663Y-3704699D01*
G01X11310313Y-3698603D01*
G01X11304217Y-3695555D01*
G01X11291771Y-3695555D01*
G01X11285675Y-3698603D01*
G01X11279325Y-3704699D01*
G01X11276277Y-3711049D01*
G01X11273229Y-3720193D01*
G01X11273229Y-3735687D01*
G01X11276277Y-3745085D01*
G01X11279325Y-3751181D01*
G01X11285675Y-3757531D01*
G01X11291771Y-3760579D01*
G01X11304217Y-3760579D01*
G01X11310313Y-3757531D01*
G01X11316663Y-3751181D01*
G01X11319711Y-3745085D01*
G01X11380671Y-3695555D02*
G01X11349937Y-3738735D01*
G01X11396165Y-3738735D01*
G01X11380671Y-3695555D02*
G01X11380671Y-3760579D01*
G01X11535611Y-5260449D02*
G01X11532563Y-5254099D01*
G01X11526213Y-5248003D01*
G01X11520117Y-5244955D01*
G01X11507671Y-5244955D01*
G01X11501575Y-5248003D01*
G01X11495225Y-5254099D01*
G01X11492177Y-5260449D01*
G01X11489129Y-5269593D01*
G01X11489129Y-5285087D01*
G01X11492177Y-5294485D01*
G01X11495225Y-5300581D01*
G01X11501575Y-5306931D01*
G01X11507671Y-5309979D01*
G01X11520117Y-5309979D01*
G01X11526213Y-5306931D01*
G01X11532563Y-5300581D01*
G01X11535611Y-5294485D01*
G01X11602921Y-5244955D02*
G01X11571933Y-5244955D01*
G01X11568885Y-5272641D01*
G01X11571933Y-5269593D01*
G01X11581077Y-5266545D01*
G01X11590475Y-5266545D01*
G01X11599873Y-5269593D01*
G01X11605969Y-5275943D01*
G01X11609017Y-5285087D01*
G01X11609017Y-5291437D01*
G01X11605969Y-5300581D01*
G01X11599873Y-5306931D01*
G01X11590475Y-5309979D01*
G01X11581077Y-5309979D01*
G01X11571933Y-5306931D01*
G01X11568885Y-5303629D01*
G01X11565837Y-5297533D01*
G01X11432649Y-5126789D02*
G01X11426299Y-5129837D01*
G01X11420203Y-5136187D01*
G01X11417155Y-5142283D01*
G01X11417155Y-5154729D01*
G01X11420203Y-5160825D01*
G01X11426299Y-5167175D01*
G01X11432649Y-5170223D01*
G01X11441793Y-5173271D01*
G01X11457287Y-5173271D01*
G01X11466685Y-5170223D01*
G01X11472781Y-5167175D01*
G01X11479131Y-5160825D01*
G01X11482179Y-5154729D01*
G01X11482179Y-5142283D01*
G01X11479131Y-5136187D01*
G01X11472781Y-5129837D01*
G01X11466685Y-5126789D01*
G01X11426299Y-5059479D02*
G01X11420203Y-5062527D01*
G01X11417155Y-5071925D01*
G01X11417155Y-5078021D01*
G01X11420203Y-5087419D01*
G01X11429601Y-5093515D01*
G01X11444841Y-5096563D01*
G01X11460335Y-5096563D01*
G01X11472781Y-5093515D01*
G01X11479131Y-5087419D01*
G01X11482179Y-5078021D01*
G01X11482179Y-5074973D01*
G01X11479131Y-5065829D01*
G01X11472781Y-5059479D01*
G01X11463637Y-5056431D01*
G01X11460335Y-5056431D01*
G01X11451191Y-5059479D01*
G01X11444841Y-5065829D01*
G01X11441793Y-5074973D01*
G01X11441793Y-5078021D01*
G01X11444841Y-5087419D01*
G01X11451191Y-5093515D01*
G01X11460335Y-5096563D01*
G01X11897251Y-3915611D02*
G01X11903601Y-3912563D01*
G01X11909697Y-3906213D01*
G01X11912745Y-3900117D01*
G01X11912745Y-3887671D01*
G01X11909697Y-3881575D01*
G01X11903601Y-3875225D01*
G01X11897251Y-3872177D01*
G01X11888107Y-3869129D01*
G01X11872613Y-3869129D01*
G01X11863215Y-3872177D01*
G01X11857119Y-3875225D01*
G01X11850769Y-3881575D01*
G01X11847721Y-3887671D01*
G01X11847721Y-3900117D01*
G01X11850769Y-3906213D01*
G01X11857119Y-3912563D01*
G01X11863215Y-3915611D01*
G01X11912745Y-3989017D02*
G01X11847721Y-3958029D01*
G01X11912745Y-3945837D02*
G01X11912745Y-3989017D01*
G01X11464089Y-3172351D02*
G01X11467137Y-3178701D01*
G01X11473487Y-3184797D01*
G01X11479583Y-3187845D01*
G01X11492029Y-3187845D01*
G01X11498125Y-3184797D01*
G01X11504475Y-3178701D01*
G01X11507523Y-3172351D01*
G01X11510571Y-3163207D01*
G01X11510571Y-3147713D01*
G01X11507523Y-3138315D01*
G01X11504475Y-3132219D01*
G01X11498125Y-3125869D01*
G01X11492029Y-3122821D01*
G01X11479583Y-3122821D01*
G01X11473487Y-3125869D01*
G01X11467137Y-3132219D01*
G01X11464089Y-3138315D01*
G01X11418623Y-3187845D02*
G01X11427767Y-3184797D01*
G01X11430815Y-3178701D01*
G01X11430815Y-3172351D01*
G01X11427767Y-3166255D01*
G01X11421671Y-3163207D01*
G01X11409225Y-3160159D01*
G01X11399827Y-3156857D01*
G01X11393731Y-3150761D01*
G01X11390683Y-3144665D01*
G01X11390683Y-3135267D01*
G01X11393731Y-3129171D01*
G01X11396779Y-3125869D01*
G01X11406177Y-3122821D01*
G01X11418623Y-3122821D01*
G01X11427767Y-3125869D01*
G01X11430815Y-3129171D01*
G01X11433863Y-3135267D01*
G01X11433863Y-3144665D01*
G01X11430815Y-3150761D01*
G01X11424719Y-3156857D01*
G01X11415321Y-3160159D01*
G01X11403129Y-3163207D01*
G01X11396779Y-3166255D01*
G01X11393731Y-3172351D01*
G01X11393731Y-3178701D01*
G01X11396779Y-3184797D01*
G01X11406177Y-3187845D01*
G01X11418623Y-3187845D01*
G01X7070496Y-3173158D02*
G01X7076846Y-3170110D01*
G01X7082942Y-3163760D01*
G01X7085990Y-3157664D01*
G01X7085990Y-3145218D01*
G01X7082942Y-3139122D01*
G01X7076846Y-3132772D01*
G01X7070496Y-3129724D01*
G01X7061352Y-3126676D01*
G01X7045858Y-3126676D01*
G01X7036460Y-3129724D01*
G01X7030364Y-3132772D01*
G01X7024014Y-3139122D01*
G01X7020966Y-3145218D01*
G01X7020966Y-3157664D01*
G01X7024014Y-3163760D01*
G01X7030364Y-3170110D01*
G01X7036460Y-3173158D01*
G01X7064400Y-3243516D02*
G01X7055002Y-3240468D01*
G01X7048906Y-3234118D01*
G01X7045858Y-3224974D01*
G01X7045858Y-3221926D01*
G01X7048906Y-3212528D01*
G01X7055002Y-3206432D01*
G01X7064400Y-3203384D01*
G01X7067448Y-3203384D01*
G01X7076846Y-3206432D01*
G01X7082942Y-3212528D01*
G01X7085990Y-3221926D01*
G01X7085990Y-3224974D01*
G01X7082942Y-3234118D01*
G01X7076846Y-3240468D01*
G01X7064400Y-3243516D01*
G01X7048906Y-3243516D01*
G01X7033412Y-3240468D01*
G01X7024014Y-3234118D01*
G01X7020966Y-3224974D01*
G01X7020966Y-3218624D01*
G01X7024014Y-3209480D01*
G01X7030364Y-3206432D01*
G01X7503051Y-3255211D02*
G01X7509401Y-3252163D01*
G01X7515497Y-3245813D01*
G01X7518545Y-3239717D01*
G01X7518545Y-3227271D01*
G01X7515497Y-3221175D01*
G01X7509401Y-3214825D01*
G01X7503051Y-3211777D01*
G01X7493907Y-3208729D01*
G01X7478413Y-3208729D01*
G01X7469015Y-3211777D01*
G01X7462919Y-3214825D01*
G01X7456569Y-3221175D01*
G01X7453521Y-3227271D01*
G01X7453521Y-3239717D01*
G01X7456569Y-3245813D01*
G01X7462919Y-3252163D01*
G01X7469015Y-3255211D01*
G01X7506099Y-3285437D02*
G01X7509401Y-3291533D01*
G01X7518545Y-3300677D01*
G01X7453521Y-3300677D01*
G01X7518545Y-3349445D02*
G01X7515497Y-3340047D01*
G01X7506099Y-3333951D01*
G01X7490859Y-3330903D01*
G01X7481461Y-3330903D01*
G01X7465967Y-3333951D01*
G01X7456569Y-3340047D01*
G01X7453521Y-3349445D01*
G01X7453521Y-3355541D01*
G01X7456569Y-3364939D01*
G01X7465967Y-3371035D01*
G01X7481461Y-3374083D01*
G01X7490859Y-3374083D01*
G01X7506099Y-3371035D01*
G01X7515497Y-3364939D01*
G01X7518545Y-3355541D01*
G01X7518545Y-3349445D01*
G01X5486214Y-737923D02*
G01X5479864Y-740971D01*
G01X5473768Y-747321D01*
G01X5470720Y-753417D01*
G01X5470720Y-765863D01*
G01X5473768Y-771959D01*
G01X5479864Y-778309D01*
G01X5486214Y-781357D01*
G01X5495358Y-784405D01*
G01X5510852Y-784405D01*
G01X5520250Y-781357D01*
G01X5526346Y-778309D01*
G01X5532696Y-771959D01*
G01X5535744Y-765863D01*
G01X5535744Y-753417D01*
G01X5532696Y-747321D01*
G01X5526346Y-740971D01*
G01X5520250Y-737923D01*
G01X5483166Y-707697D02*
G01X5479864Y-701601D01*
G01X5470720Y-692457D01*
G01X5535744Y-692457D01*
G01X5483166Y-662231D02*
G01X5479864Y-656135D01*
G01X5470720Y-646991D01*
G01X5535744Y-646991D01*
G01X4868707Y-737923D02*
G01X4862357Y-740971D01*
G01X4856261Y-747321D01*
G01X4853213Y-753417D01*
G01X4853213Y-765863D01*
G01X4856261Y-771959D01*
G01X4862357Y-778309D01*
G01X4868707Y-781357D01*
G01X4877851Y-784405D01*
G01X4893345Y-784405D01*
G01X4902743Y-781357D01*
G01X4908839Y-778309D01*
G01X4915189Y-771959D01*
G01X4918237Y-765863D01*
G01X4918237Y-753417D01*
G01X4915189Y-747321D01*
G01X4908839Y-740971D01*
G01X4902743Y-737923D01*
G01X4865659Y-707697D02*
G01X4862357Y-701601D01*
G01X4853213Y-692457D01*
G01X4918237Y-692457D01*
G01X4868707Y-659183D02*
G01X4865659Y-659183D01*
G01X4859309Y-656135D01*
G01X4856261Y-653087D01*
G01X4853213Y-646991D01*
G01X4853213Y-634545D01*
G01X4856261Y-628195D01*
G01X4859309Y-625147D01*
G01X4865659Y-622099D01*
G01X4871755Y-622099D01*
G01X4877851Y-625147D01*
G01X4887249Y-631497D01*
G01X4918237Y-662231D01*
G01X4918237Y-619051D01*
G01X7343912Y-3995999D02*
G01X7340864Y-3989649D01*
G01X7334514Y-3983553D01*
G01X7328418Y-3980505D01*
G01X7315972Y-3980505D01*
G01X7309876Y-3983553D01*
G01X7303526Y-3989649D01*
G01X7300478Y-3995999D01*
G01X7297430Y-4005143D01*
G01X7297430Y-4020637D01*
G01X7300478Y-4030035D01*
G01X7303526Y-4036131D01*
G01X7309876Y-4042481D01*
G01X7315972Y-4045529D01*
G01X7328418Y-4045529D01*
G01X7334514Y-4042481D01*
G01X7340864Y-4036131D01*
G01X7343912Y-4030035D01*
G01X7374138Y-3992951D02*
G01X7380234Y-3989649D01*
G01X7389378Y-3980505D01*
G01X7389378Y-4045529D01*
G01X7450338Y-3980505D02*
G01X7419604Y-4023685D01*
G01X7465832Y-4023685D01*
G01X7450338Y-3980505D02*
G01X7450338Y-4045529D01*
G01X5188414Y-733382D02*
G01X5182064Y-736430D01*
G01X5175968Y-742780D01*
G01X5172920Y-748876D01*
G01X5172920Y-761322D01*
G01X5175968Y-767418D01*
G01X5182064Y-773768D01*
G01X5188414Y-776816D01*
G01X5197558Y-779864D01*
G01X5213052Y-779864D01*
G01X5222450Y-776816D01*
G01X5228546Y-773768D01*
G01X5234896Y-767418D01*
G01X5237944Y-761322D01*
G01X5237944Y-748876D01*
G01X5234896Y-742780D01*
G01X5228546Y-736430D01*
G01X5222450Y-733382D01*
G01X5185366Y-703156D02*
G01X5182064Y-697060D01*
G01X5172920Y-687916D01*
G01X5237944Y-687916D01*
G01X5182064Y-620606D02*
G01X5175968Y-623654D01*
G01X5172920Y-633052D01*
G01X5172920Y-639148D01*
G01X5175968Y-648546D01*
G01X5185366Y-654642D01*
G01X5200606Y-657690D01*
G01X5216100Y-657690D01*
G01X5228546Y-654642D01*
G01X5234896Y-648546D01*
G01X5237944Y-639148D01*
G01X5237944Y-636100D01*
G01X5234896Y-626956D01*
G01X5228546Y-620606D01*
G01X5219402Y-617558D01*
G01X5216100Y-617558D01*
G01X5206956Y-620606D01*
G01X5200606Y-626956D01*
G01X5197558Y-636100D01*
G01X5197558Y-639148D01*
G01X5200606Y-648546D01*
G01X5206956Y-654642D01*
G01X5216100Y-657690D01*
G01X9889289Y-3096151D02*
G01X9892337Y-3102501D01*
G01X9898687Y-3108597D01*
G01X9904783Y-3111645D01*
G01X9917229Y-3111645D01*
G01X9923325Y-3108597D01*
G01X9929675Y-3102501D01*
G01X9932723Y-3096151D01*
G01X9935771Y-3087007D01*
G01X9935771Y-3071513D01*
G01X9932723Y-3062115D01*
G01X9929675Y-3056019D01*
G01X9923325Y-3049669D01*
G01X9917229Y-3046621D01*
G01X9904783Y-3046621D01*
G01X9898687Y-3049669D01*
G01X9892337Y-3056019D01*
G01X9889289Y-3062115D01*
G01X9859063Y-3099199D02*
G01X9852967Y-3102501D01*
G01X9843823Y-3111645D01*
G01X9843823Y-3046621D01*
G01X9770417Y-3111645D02*
G01X9801405Y-3046621D01*
G01X9813597Y-3111645D02*
G01X9770417Y-3111645D01*
G01X11205411Y-1336149D02*
G01X11202363Y-1329799D01*
G01X11196013Y-1323703D01*
G01X11189917Y-1320655D01*
G01X11177471Y-1320655D01*
G01X11171375Y-1323703D01*
G01X11165025Y-1329799D01*
G01X11161977Y-1336149D01*
G01X11158929Y-1345293D01*
G01X11158929Y-1360787D01*
G01X11161977Y-1370185D01*
G01X11165025Y-1376281D01*
G01X11171375Y-1382631D01*
G01X11177471Y-1385679D01*
G01X11189917Y-1385679D01*
G01X11196013Y-1382631D01*
G01X11202363Y-1376281D01*
G01X11205411Y-1370185D01*
G01X11235637Y-1333101D02*
G01X11241733Y-1329799D01*
G01X11250877Y-1320655D01*
G01X11250877Y-1385679D01*
G01X11296343Y-1320655D02*
G01X11287199Y-1323703D01*
G01X11284151Y-1329799D01*
G01X11284151Y-1336149D01*
G01X11287199Y-1342245D01*
G01X11293295Y-1345293D01*
G01X11305741Y-1348341D01*
G01X11315139Y-1351643D01*
G01X11321235Y-1357739D01*
G01X11324283Y-1363835D01*
G01X11324283Y-1373233D01*
G01X11321235Y-1379329D01*
G01X11318187Y-1382631D01*
G01X11308789Y-1385679D01*
G01X11296343Y-1385679D01*
G01X11287199Y-1382631D01*
G01X11284151Y-1379329D01*
G01X11281103Y-1373233D01*
G01X11281103Y-1363835D01*
G01X11284151Y-1357739D01*
G01X11290247Y-1351643D01*
G01X11299645Y-1348341D01*
G01X11311837Y-1345293D01*
G01X11318187Y-1342245D01*
G01X11321235Y-1336149D01*
G01X11321235Y-1329799D01*
G01X11318187Y-1323703D01*
G01X11308789Y-1320655D01*
G01X11296343Y-1320655D01*
G01X11205411Y-1564749D02*
G01X11202363Y-1558399D01*
G01X11196013Y-1552303D01*
G01X11189917Y-1549255D01*
G01X11177471Y-1549255D01*
G01X11171375Y-1552303D01*
G01X11165025Y-1558399D01*
G01X11161977Y-1564749D01*
G01X11158929Y-1573893D01*
G01X11158929Y-1589387D01*
G01X11161977Y-1598785D01*
G01X11165025Y-1604881D01*
G01X11171375Y-1611231D01*
G01X11177471Y-1614279D01*
G01X11189917Y-1614279D01*
G01X11196013Y-1611231D01*
G01X11202363Y-1604881D01*
G01X11205411Y-1598785D01*
G01X11235637Y-1561701D02*
G01X11241733Y-1558399D01*
G01X11250877Y-1549255D01*
G01X11250877Y-1614279D01*
G01X11321235Y-1570845D02*
G01X11318187Y-1580243D01*
G01X11311837Y-1586339D01*
G01X11302693Y-1589387D01*
G01X11299645Y-1589387D01*
G01X11290247Y-1586339D01*
G01X11284151Y-1580243D01*
G01X11281103Y-1570845D01*
G01X11281103Y-1567797D01*
G01X11284151Y-1558399D01*
G01X11290247Y-1552303D01*
G01X11299645Y-1549255D01*
G01X11302693Y-1549255D01*
G01X11311837Y-1552303D01*
G01X11318187Y-1558399D01*
G01X11321235Y-1570845D01*
G01X11321235Y-1586339D01*
G01X11318187Y-1601833D01*
G01X11311837Y-1611231D01*
G01X11302693Y-1614279D01*
G01X11296343Y-1614279D01*
G01X11287199Y-1611231D01*
G01X11284151Y-1604881D01*
G01X7223651Y-3687011D02*
G01X7230001Y-3683963D01*
G01X7236097Y-3677613D01*
G01X7239145Y-3671517D01*
G01X7239145Y-3659071D01*
G01X7236097Y-3652975D01*
G01X7230001Y-3646625D01*
G01X7223651Y-3643577D01*
G01X7214507Y-3640529D01*
G01X7199013Y-3640529D01*
G01X7189615Y-3643577D01*
G01X7183519Y-3646625D01*
G01X7177169Y-3652975D01*
G01X7174121Y-3659071D01*
G01X7174121Y-3671517D01*
G01X7177169Y-3677613D01*
G01X7183519Y-3683963D01*
G01X7189615Y-3687011D01*
G01X7223651Y-3720285D02*
G01X7226699Y-3720285D01*
G01X7233049Y-3723333D01*
G01X7236097Y-3726381D01*
G01X7239145Y-3732477D01*
G01X7239145Y-3744923D01*
G01X7236097Y-3751273D01*
G01X7233049Y-3754321D01*
G01X7226699Y-3757369D01*
G01X7220603Y-3757369D01*
G01X7214507Y-3754321D01*
G01X7205109Y-3747971D01*
G01X7174121Y-3717237D01*
G01X7174121Y-3760417D01*
G01X7239145Y-3809185D02*
G01X7236097Y-3799787D01*
G01X7226699Y-3793691D01*
G01X7211459Y-3790643D01*
G01X7202061Y-3790643D01*
G01X7186567Y-3793691D01*
G01X7177169Y-3799787D01*
G01X7174121Y-3809185D01*
G01X7174121Y-3815281D01*
G01X7177169Y-3824679D01*
G01X7186567Y-3830775D01*
G01X7202061Y-3833823D01*
G01X7211459Y-3833823D01*
G01X7226699Y-3830775D01*
G01X7236097Y-3824679D01*
G01X7239145Y-3815281D01*
G01X7239145Y-3809185D01*
G01X7525669Y-3689739D02*
G01X7532019Y-3686691D01*
G01X7538115Y-3680341D01*
G01X7541163Y-3674245D01*
G01X7541163Y-3661799D01*
G01X7538115Y-3655703D01*
G01X7532019Y-3649353D01*
G01X7525669Y-3646305D01*
G01X7516525Y-3643257D01*
G01X7501031Y-3643257D01*
G01X7491633Y-3646305D01*
G01X7485537Y-3649353D01*
G01X7479187Y-3655703D01*
G01X7476139Y-3661799D01*
G01X7476139Y-3674245D01*
G01X7479187Y-3680341D01*
G01X7485537Y-3686691D01*
G01X7491633Y-3689739D01*
G01X7525669Y-3723013D02*
G01X7528717Y-3723013D01*
G01X7535067Y-3726061D01*
G01X7538115Y-3729109D01*
G01X7541163Y-3735205D01*
G01X7541163Y-3747651D01*
G01X7538115Y-3754001D01*
G01X7535067Y-3757049D01*
G01X7528717Y-3760097D01*
G01X7522621Y-3760097D01*
G01X7516525Y-3757049D01*
G01X7507127Y-3750699D01*
G01X7476139Y-3719965D01*
G01X7476139Y-3763145D01*
G01X7528717Y-3793371D02*
G01X7532019Y-3799467D01*
G01X7541163Y-3808611D01*
G01X7476139Y-3808611D01*
G01X10049711Y-3977749D02*
G01X10046663Y-3971399D01*
G01X10040313Y-3965303D01*
G01X10034217Y-3962255D01*
G01X10021771Y-3962255D01*
G01X10015675Y-3965303D01*
G01X10009325Y-3971399D01*
G01X10006277Y-3977749D01*
G01X10003229Y-3986893D01*
G01X10003229Y-4002387D01*
G01X10006277Y-4011785D01*
G01X10009325Y-4017881D01*
G01X10015675Y-4024231D01*
G01X10021771Y-4027279D01*
G01X10034217Y-4027279D01*
G01X10040313Y-4024231D01*
G01X10046663Y-4017881D01*
G01X10049711Y-4011785D01*
G01X10082985Y-3977749D02*
G01X10082985Y-3974701D01*
G01X10086033Y-3968351D01*
G01X10089081Y-3965303D01*
G01X10095177Y-3962255D01*
G01X10107623Y-3962255D01*
G01X10113973Y-3965303D01*
G01X10117021Y-3968351D01*
G01X10120069Y-3974701D01*
G01X10120069Y-3980797D01*
G01X10117021Y-3986893D01*
G01X10110671Y-3996291D01*
G01X10079937Y-4027279D01*
G01X10123117Y-4027279D01*
G01X10156391Y-3977749D02*
G01X10156391Y-3974701D01*
G01X10159439Y-3968351D01*
G01X10162487Y-3965303D01*
G01X10168583Y-3962255D01*
G01X10181029Y-3962255D01*
G01X10187379Y-3965303D01*
G01X10190427Y-3968351D01*
G01X10193475Y-3974701D01*
G01X10193475Y-3980797D01*
G01X10190427Y-3986893D01*
G01X10184077Y-3996291D01*
G01X10153343Y-4027279D01*
G01X10196523Y-4027279D01*
G01X5810089Y-740115D02*
G01X5803739Y-743163D01*
G01X5797643Y-749513D01*
G01X5794595Y-755609D01*
G01X5794595Y-768055D01*
G01X5797643Y-774151D01*
G01X5803739Y-780501D01*
G01X5810089Y-783549D01*
G01X5819233Y-786597D01*
G01X5834727Y-786597D01*
G01X5844125Y-783549D01*
G01X5850221Y-780501D01*
G01X5856571Y-774151D01*
G01X5859619Y-768055D01*
G01X5859619Y-755609D01*
G01X5856571Y-749513D01*
G01X5850221Y-743163D01*
G01X5844125Y-740115D01*
G01X5810089Y-706841D02*
G01X5807041Y-706841D01*
G01X5800691Y-703793D01*
G01X5797643Y-700745D01*
G01X5794595Y-694649D01*
G01X5794595Y-682203D01*
G01X5797643Y-675853D01*
G01X5800691Y-672805D01*
G01X5807041Y-669757D01*
G01X5813137Y-669757D01*
G01X5819233Y-672805D01*
G01X5828631Y-679155D01*
G01X5859619Y-709889D01*
G01X5859619Y-666709D01*
G01X5794595Y-630387D02*
G01X5794595Y-596351D01*
G01X5819233Y-614893D01*
G01X5819233Y-605749D01*
G01X5822281Y-599399D01*
G01X5825583Y-596351D01*
G01X5834727Y-593303D01*
G01X5841077Y-593303D01*
G01X5850221Y-596351D01*
G01X5856571Y-602447D01*
G01X5859619Y-611845D01*
G01X5859619Y-621243D01*
G01X5856571Y-630387D01*
G01X5853269Y-633435D01*
G01X5847173Y-636483D01*
G01X6162149Y-961189D02*
G01X6155799Y-964237D01*
G01X6149703Y-970587D01*
G01X6146655Y-976683D01*
G01X6146655Y-989129D01*
G01X6149703Y-995225D01*
G01X6155799Y-1001575D01*
G01X6162149Y-1004623D01*
G01X6171293Y-1007671D01*
G01X6186787Y-1007671D01*
G01X6196185Y-1004623D01*
G01X6202281Y-1001575D01*
G01X6208631Y-995225D01*
G01X6211679Y-989129D01*
G01X6211679Y-976683D01*
G01X6208631Y-970587D01*
G01X6202281Y-964237D01*
G01X6196185Y-961189D01*
G01X6162149Y-927915D02*
G01X6159101Y-927915D01*
G01X6152751Y-924867D01*
G01X6149703Y-921819D01*
G01X6146655Y-915723D01*
G01X6146655Y-903277D01*
G01X6149703Y-896927D01*
G01X6152751Y-893879D01*
G01X6159101Y-890831D01*
G01X6165197Y-890831D01*
G01X6171293Y-893879D01*
G01X6180691Y-900229D01*
G01X6211679Y-930963D01*
G01X6211679Y-887783D01*
G01X6146655Y-826823D02*
G01X6189835Y-857557D01*
G01X6189835Y-811329D01*
G01X6146655Y-826823D02*
G01X6211679Y-826823D01*
G01X7615989Y-822851D02*
G01X7619037Y-829201D01*
G01X7625387Y-835297D01*
G01X7631483Y-838345D01*
G01X7643929Y-838345D01*
G01X7650025Y-835297D01*
G01X7656375Y-829201D01*
G01X7659423Y-822851D01*
G01X7662471Y-813707D01*
G01X7662471Y-798213D01*
G01X7659423Y-788815D01*
G01X7656375Y-782719D01*
G01X7650025Y-776369D01*
G01X7643929Y-773321D01*
G01X7631483Y-773321D01*
G01X7625387Y-776369D01*
G01X7619037Y-782719D01*
G01X7615989Y-788815D01*
G01X7582715Y-822851D02*
G01X7582715Y-825899D01*
G01X7579667Y-832249D01*
G01X7576619Y-835297D01*
G01X7570523Y-838345D01*
G01X7558077Y-838345D01*
G01X7551727Y-835297D01*
G01X7548679Y-832249D01*
G01X7545631Y-825899D01*
G01X7545631Y-819803D01*
G01X7548679Y-813707D01*
G01X7555029Y-804309D01*
G01X7585763Y-773321D01*
G01X7542583Y-773321D01*
G01X7475273Y-838345D02*
G01X7506261Y-838345D01*
G01X7509309Y-810659D01*
G01X7506261Y-813707D01*
G01X7497117Y-816755D01*
G01X7487719Y-816755D01*
G01X7478321Y-813707D01*
G01X7472225Y-807357D01*
G01X7469177Y-798213D01*
G01X7469177Y-791863D01*
G01X7472225Y-782719D01*
G01X7478321Y-776369D01*
G01X7487719Y-773321D01*
G01X7497117Y-773321D01*
G01X7506261Y-776369D01*
G01X7509309Y-779671D01*
G01X7512357Y-785767D01*
G01X8411411Y-2517249D02*
G01X8408363Y-2510899D01*
G01X8402013Y-2504803D01*
G01X8395917Y-2501755D01*
G01X8383471Y-2501755D01*
G01X8377375Y-2504803D01*
G01X8371025Y-2510899D01*
G01X8367977Y-2517249D01*
G01X8364929Y-2526393D01*
G01X8364929Y-2541887D01*
G01X8367977Y-2551285D01*
G01X8371025Y-2557381D01*
G01X8377375Y-2563731D01*
G01X8383471Y-2566779D01*
G01X8395917Y-2566779D01*
G01X8402013Y-2563731D01*
G01X8408363Y-2557381D01*
G01X8411411Y-2551285D01*
G01X8444685Y-2517249D02*
G01X8444685Y-2514201D01*
G01X8447733Y-2507851D01*
G01X8450781Y-2504803D01*
G01X8456877Y-2501755D01*
G01X8469323Y-2501755D01*
G01X8475673Y-2504803D01*
G01X8478721Y-2507851D01*
G01X8481769Y-2514201D01*
G01X8481769Y-2520297D01*
G01X8478721Y-2526393D01*
G01X8472371Y-2535791D01*
G01X8441637Y-2566779D01*
G01X8484817Y-2566779D01*
G01X8552127Y-2510899D02*
G01X8549079Y-2504803D01*
G01X8539681Y-2501755D01*
G01X8533585Y-2501755D01*
G01X8524187Y-2504803D01*
G01X8518091Y-2514201D01*
G01X8515043Y-2529441D01*
G01X8515043Y-2544935D01*
G01X8518091Y-2557381D01*
G01X8524187Y-2563731D01*
G01X8533585Y-2566779D01*
G01X8536633Y-2566779D01*
G01X8545777Y-2563731D01*
G01X8552127Y-2557381D01*
G01X8555175Y-2548237D01*
G01X8555175Y-2544935D01*
G01X8552127Y-2535791D01*
G01X8545777Y-2529441D01*
G01X8536633Y-2526393D01*
G01X8533585Y-2526393D01*
G01X8524187Y-2529441D01*
G01X8518091Y-2535791D01*
G01X8515043Y-2544935D01*
G01X8410049Y-3056689D02*
G01X8403699Y-3059737D01*
G01X8397603Y-3066087D01*
G01X8394555Y-3072183D01*
G01X8394555Y-3084629D01*
G01X8397603Y-3090725D01*
G01X8403699Y-3097075D01*
G01X8410049Y-3100123D01*
G01X8419193Y-3103171D01*
G01X8434687Y-3103171D01*
G01X8444085Y-3100123D01*
G01X8450181Y-3097075D01*
G01X8456531Y-3090725D01*
G01X8459579Y-3084629D01*
G01X8459579Y-3072183D01*
G01X8456531Y-3066087D01*
G01X8450181Y-3059737D01*
G01X8444085Y-3056689D01*
G01X8410049Y-3023415D02*
G01X8407001Y-3023415D01*
G01X8400651Y-3020367D01*
G01X8397603Y-3017319D01*
G01X8394555Y-3011223D01*
G01X8394555Y-2998777D01*
G01X8397603Y-2992427D01*
G01X8400651Y-2989379D01*
G01X8407001Y-2986331D01*
G01X8413097Y-2986331D01*
G01X8419193Y-2989379D01*
G01X8428591Y-2995729D01*
G01X8459579Y-3026463D01*
G01X8459579Y-2983283D01*
G01X8394555Y-2909877D02*
G01X8459579Y-2940865D01*
G01X8394555Y-2953057D02*
G01X8394555Y-2909877D01*
G01X8744705Y-3392223D02*
G01X8738355Y-3395271D01*
G01X8732259Y-3401621D01*
G01X8729211Y-3407717D01*
G01X8729211Y-3420163D01*
G01X8732259Y-3426259D01*
G01X8738355Y-3432609D01*
G01X8744705Y-3435657D01*
G01X8753849Y-3438705D01*
G01X8769343Y-3438705D01*
G01X8778741Y-3435657D01*
G01X8784837Y-3432609D01*
G01X8791187Y-3426259D01*
G01X8794235Y-3420163D01*
G01X8794235Y-3407717D01*
G01X8791187Y-3401621D01*
G01X8784837Y-3395271D01*
G01X8778741Y-3392223D01*
G01X8744705Y-3358949D02*
G01X8741657Y-3358949D01*
G01X8735307Y-3355901D01*
G01X8732259Y-3352853D01*
G01X8729211Y-3346757D01*
G01X8729211Y-3334311D01*
G01X8732259Y-3327961D01*
G01X8735307Y-3324913D01*
G01X8741657Y-3321865D01*
G01X8747753Y-3321865D01*
G01X8753849Y-3324913D01*
G01X8763247Y-3331263D01*
G01X8794235Y-3361997D01*
G01X8794235Y-3318817D01*
G01X8729211Y-3273351D02*
G01X8732259Y-3282495D01*
G01X8738355Y-3285543D01*
G01X8744705Y-3285543D01*
G01X8750801Y-3282495D01*
G01X8753849Y-3276399D01*
G01X8756897Y-3263953D01*
G01X8760199Y-3254555D01*
G01X8766295Y-3248459D01*
G01X8772391Y-3245411D01*
G01X8781789Y-3245411D01*
G01X8787885Y-3248459D01*
G01X8791187Y-3251507D01*
G01X8794235Y-3260905D01*
G01X8794235Y-3273351D01*
G01X8791187Y-3282495D01*
G01X8787885Y-3285543D01*
G01X8781789Y-3288591D01*
G01X8772391Y-3288591D01*
G01X8766295Y-3285543D01*
G01X8760199Y-3279447D01*
G01X8756897Y-3270049D01*
G01X8753849Y-3257857D01*
G01X8750801Y-3251507D01*
G01X8744705Y-3248459D01*
G01X8738355Y-3248459D01*
G01X8732259Y-3251507D01*
G01X8729211Y-3260905D01*
G01X8729211Y-3273351D01*
G01X8092549Y-3069389D02*
G01X8086199Y-3072437D01*
G01X8080103Y-3078787D01*
G01X8077055Y-3084883D01*
G01X8077055Y-3097329D01*
G01X8080103Y-3103425D01*
G01X8086199Y-3109775D01*
G01X8092549Y-3112823D01*
G01X8101693Y-3115871D01*
G01X8117187Y-3115871D01*
G01X8126585Y-3112823D01*
G01X8132681Y-3109775D01*
G01X8139031Y-3103425D01*
G01X8142079Y-3097329D01*
G01X8142079Y-3084883D01*
G01X8139031Y-3078787D01*
G01X8132681Y-3072437D01*
G01X8126585Y-3069389D01*
G01X8092549Y-3036115D02*
G01X8089501Y-3036115D01*
G01X8083151Y-3033067D01*
G01X8080103Y-3030019D01*
G01X8077055Y-3023923D01*
G01X8077055Y-3011477D01*
G01X8080103Y-3005127D01*
G01X8083151Y-3002079D01*
G01X8089501Y-2999031D01*
G01X8095597Y-2999031D01*
G01X8101693Y-3002079D01*
G01X8111091Y-3008429D01*
G01X8142079Y-3039163D01*
G01X8142079Y-2995983D01*
G01X8098645Y-2925625D02*
G01X8108043Y-2928673D01*
G01X8114139Y-2935023D01*
G01X8117187Y-2944167D01*
G01X8117187Y-2947215D01*
G01X8114139Y-2956613D01*
G01X8108043Y-2962709D01*
G01X8098645Y-2965757D01*
G01X8095597Y-2965757D01*
G01X8086199Y-2962709D01*
G01X8080103Y-2956613D01*
G01X8077055Y-2947215D01*
G01X8077055Y-2944167D01*
G01X8080103Y-2935023D01*
G01X8086199Y-2928673D01*
G01X8098645Y-2925625D01*
G01X8114139Y-2925625D01*
G01X8129633Y-2928673D01*
G01X8139031Y-2935023D01*
G01X8142079Y-2944167D01*
G01X8142079Y-2950517D01*
G01X8139031Y-2959661D01*
G01X8132681Y-2962709D01*
G01X11390090Y-5185829D02*
G01X11390090Y-5120805D01*
G01X11390090Y-5185829D02*
G01X11368500Y-5185829D01*
G01X11359102Y-5182781D01*
G01X11353006Y-5176685D01*
G01X11349958Y-5170335D01*
G01X11346656Y-5161191D01*
G01X11346656Y-5145697D01*
G01X11349958Y-5136299D01*
G01X11353006Y-5130203D01*
G01X11359102Y-5123853D01*
G01X11368500Y-5120805D01*
G01X11390090Y-5120805D01*
G01X11316430Y-5173383D02*
G01X11310334Y-5176685D01*
G01X11301190Y-5185829D01*
G01X11301190Y-5120805D01*
G01X11230775Y-4348813D02*
G01X11165751Y-4348813D01*
G01X11230775Y-4348813D02*
G01X11230775Y-4370403D01*
G01X11227727Y-4379801D01*
G01X11221631Y-4385897D01*
G01X11215281Y-4388945D01*
G01X11206137Y-4392247D01*
G01X11190643Y-4392247D01*
G01X11181245Y-4388945D01*
G01X11175149Y-4385897D01*
G01X11168799Y-4379801D01*
G01X11165751Y-4370403D01*
G01X11165751Y-4348813D01*
G01X11230775Y-4428569D02*
G01X11230775Y-4462605D01*
G01X11206137Y-4444063D01*
G01X11206137Y-4453207D01*
G01X11203089Y-4459557D01*
G01X11199787Y-4462605D01*
G01X11190643Y-4465653D01*
G01X11184293Y-4465653D01*
G01X11175149Y-4462605D01*
G01X11168799Y-4456509D01*
G01X11165751Y-4447111D01*
G01X11165751Y-4437713D01*
G01X11168799Y-4428569D01*
G01X11172101Y-4425521D01*
G01X11178197Y-4422473D01*
G01X10684675Y-4082113D02*
G01X10619651Y-4082113D01*
G01X10684675Y-4082113D02*
G01X10684675Y-4103703D01*
G01X10681627Y-4113101D01*
G01X10675531Y-4119197D01*
G01X10669181Y-4122245D01*
G01X10660037Y-4125547D01*
G01X10644543Y-4125547D01*
G01X10635145Y-4122245D01*
G01X10629049Y-4119197D01*
G01X10622699Y-4113101D01*
G01X10619651Y-4103703D01*
G01X10619651Y-4082113D01*
G01X10684675Y-4186507D02*
G01X10641495Y-4155773D01*
G01X10641495Y-4202001D01*
G01X10684675Y-4186507D02*
G01X10619651Y-4186507D01*
G01X11526187Y-4398175D02*
G01X11526187Y-4333151D01*
G01X11526187Y-4398175D02*
G01X11504597Y-4398175D01*
G01X11495199Y-4395127D01*
G01X11489103Y-4389031D01*
G01X11486055Y-4382681D01*
G01X11482753Y-4373537D01*
G01X11482753Y-4358043D01*
G01X11486055Y-4348645D01*
G01X11489103Y-4342549D01*
G01X11495199Y-4336199D01*
G01X11504597Y-4333151D01*
G01X11526187Y-4333151D01*
G01X11415443Y-4398175D02*
G01X11446431Y-4398175D01*
G01X11449479Y-4370489D01*
G01X11446431Y-4373537D01*
G01X11437287Y-4376585D01*
G01X11427889Y-4376585D01*
G01X11418491Y-4373537D01*
G01X11412395Y-4367187D01*
G01X11409347Y-4358043D01*
G01X11409347Y-4351693D01*
G01X11412395Y-4342549D01*
G01X11418491Y-4336199D01*
G01X11427889Y-4333151D01*
G01X11437287Y-4333151D01*
G01X11446431Y-4336199D01*
G01X11449479Y-4339501D01*
G01X11452527Y-4345597D01*
G01X9447149Y-4454691D02*
G01X9512173Y-4454691D01*
G01X9512173Y-4454691D02*
G01X9512173Y-4417607D01*
G01X9447149Y-4387381D02*
G01X9512173Y-4387381D01*
G01X9447149Y-4387381D02*
G01X9447149Y-4365791D01*
G01X9450197Y-4356647D01*
G01X9456293Y-4350297D01*
G01X9462643Y-4347249D01*
G01X9471787Y-4344201D01*
G01X9487281Y-4344201D01*
G01X9496679Y-4347249D01*
G01X9502775Y-4350297D01*
G01X9509125Y-4356647D01*
G01X9512173Y-4365791D01*
G01X9512173Y-4387381D01*
G01X9447149Y-4295433D02*
G01X9450197Y-4301783D01*
G01X9456293Y-4307879D01*
G01X9462643Y-4310927D01*
G01X9471787Y-4313975D01*
G01X9487281Y-4313975D01*
G01X9496679Y-4310927D01*
G01X9502775Y-4307879D01*
G01X9509125Y-4301783D01*
G01X9512173Y-4295433D01*
G01X9512173Y-4283241D01*
G01X9509125Y-4276891D01*
G01X9502775Y-4270795D01*
G01X9496679Y-4267747D01*
G01X9487281Y-4264445D01*
G01X9471787Y-4264445D01*
G01X9462643Y-4267747D01*
G01X9456293Y-4270795D01*
G01X9450197Y-4276891D01*
G01X9447149Y-4283241D01*
G01X9447149Y-4295433D01*
G01X9459595Y-4234219D02*
G01X9456293Y-4228123D01*
G01X9447149Y-4218979D01*
G01X9512173Y-4218979D01*
G01X7277327Y-24773D02*
G01X7277327Y-89797D01*
G01X7277327Y-89797D02*
G01X7314411Y-89797D01*
G01X7344637Y-24773D02*
G01X7344637Y-89797D01*
G01X7344637Y-24773D02*
G01X7366227Y-24773D01*
G01X7375371Y-27821D01*
G01X7381721Y-33917D01*
G01X7384769Y-40267D01*
G01X7387817Y-49411D01*
G01X7387817Y-64905D01*
G01X7384769Y-74303D01*
G01X7381721Y-80399D01*
G01X7375371Y-86749D01*
G01X7366227Y-89797D01*
G01X7344637Y-89797D01*
G01X7436585Y-24773D02*
G01X7430235Y-27821D01*
G01X7424139Y-33917D01*
G01X7421091Y-40267D01*
G01X7418043Y-49411D01*
G01X7418043Y-64905D01*
G01X7421091Y-74303D01*
G01X7424139Y-80399D01*
G01X7430235Y-86749D01*
G01X7436585Y-89797D01*
G01X7448777Y-89797D01*
G01X7455127Y-86749D01*
G01X7461223Y-80399D01*
G01X7464271Y-74303D01*
G01X7467573Y-64905D01*
G01X7467573Y-49411D01*
G01X7464271Y-40267D01*
G01X7461223Y-33917D01*
G01X7455127Y-27821D01*
G01X7448777Y-24773D01*
G01X7436585Y-24773D01*
G01X7500847Y-40267D02*
G01X7500847Y-37219D01*
G01X7503895Y-30869D01*
G01X7506943Y-27821D01*
G01X7513039Y-24773D01*
G01X7525485Y-24773D01*
G01X7531835Y-27821D01*
G01X7534883Y-30869D01*
G01X7537931Y-37219D01*
G01X7537931Y-43315D01*
G01X7534883Y-49411D01*
G01X7528533Y-58809D01*
G01X7497799Y-89797D01*
G01X7540979Y-89797D01*
G01X10744673Y-5124874D02*
G01X10744673Y-5189898D01*
G01X10744673Y-5189898D02*
G01X10781757Y-5189898D01*
G01X10811983Y-5124874D02*
G01X10811983Y-5189898D01*
G01X10811983Y-5124874D02*
G01X10852115Y-5124874D01*
G01X10811983Y-5155862D02*
G01X10836621Y-5155862D01*
G01X10811983Y-5189898D02*
G01X10852115Y-5189898D01*
G01X10882341Y-5124874D02*
G01X10882341Y-5189898D01*
G01X10882341Y-5124874D02*
G01X10903931Y-5124874D01*
G01X10913075Y-5127922D01*
G01X10919425Y-5134018D01*
G01X10922473Y-5140368D01*
G01X10925521Y-5149512D01*
G01X10925521Y-5165006D01*
G01X10922473Y-5174404D01*
G01X10919425Y-5180500D01*
G01X10913075Y-5186850D01*
G01X10903931Y-5189898D01*
G01X10882341Y-5189898D01*
G01X10955747Y-5137320D02*
G01X10961843Y-5134018D01*
G01X10970987Y-5124874D01*
G01X10970987Y-5189898D01*
G01X7032244Y-4292186D02*
G01X7032244Y-4227162D01*
G01X7032244Y-4227162D02*
G01X6995160Y-4227162D01*
G01X6964934Y-4292186D02*
G01X6964934Y-4227162D01*
G01X6964934Y-4292186D02*
G01X6924802Y-4292186D01*
G01X6964934Y-4261198D02*
G01X6940296Y-4261198D01*
G01X6964934Y-4227162D02*
G01X6924802Y-4227162D01*
G01X6894576Y-4292186D02*
G01X6894576Y-4227162D01*
G01X6894576Y-4292186D02*
G01X6872986Y-4292186D01*
G01X6863842Y-4289138D01*
G01X6857492Y-4283042D01*
G01X6854444Y-4276692D01*
G01X6851396Y-4267548D01*
G01X6851396Y-4252054D01*
G01X6854444Y-4242656D01*
G01X6857492Y-4236560D01*
G01X6863842Y-4230210D01*
G01X6872986Y-4227162D01*
G01X6894576Y-4227162D01*
G01X6818122Y-4276692D02*
G01X6818122Y-4279740D01*
G01X6815074Y-4286090D01*
G01X6812026Y-4289138D01*
G01X6805930Y-4292186D01*
G01X6793484Y-4292186D01*
G01X6787134Y-4289138D01*
G01X6784086Y-4286090D01*
G01X6781038Y-4279740D01*
G01X6781038Y-4273644D01*
G01X6784086Y-4267548D01*
G01X6790436Y-4258150D01*
G01X6821170Y-4227162D01*
G01X6777990Y-4227162D01*
G01X6710934Y-2166620D02*
G01X6645910Y-2166620D01*
G01X6710934Y-2166620D02*
G01X6710934Y-2194560D01*
G01X6707886Y-2203704D01*
G01X6704838Y-2206752D01*
G01X6698488Y-2210054D01*
G01X6692392Y-2210054D01*
G01X6686296Y-2206752D01*
G01X6683248Y-2203704D01*
G01X6679946Y-2194560D01*
G01X6679946Y-2166620D01*
G01X6679946Y-2188210D02*
G01X6645910Y-2210054D01*
G01X6710934Y-2277364D02*
G01X6710934Y-2246376D01*
G01X6683248Y-2243328D01*
G01X6686296Y-2246376D01*
G01X6689344Y-2255520D01*
G01X6689344Y-2264918D01*
G01X6686296Y-2274316D01*
G01X6679946Y-2280412D01*
G01X6670802Y-2283460D01*
G01X6664452Y-2283460D01*
G01X6655308Y-2280412D01*
G01X6648958Y-2274316D01*
G01X6645910Y-2264918D01*
G01X6645910Y-2255520D01*
G01X6648958Y-2246376D01*
G01X6652260Y-2243328D01*
G01X6658356Y-2240280D01*
G01X6533134Y-2166620D02*
G01X6468110Y-2166620D01*
G01X6533134Y-2166620D02*
G01X6533134Y-2194560D01*
G01X6530086Y-2203704D01*
G01X6527038Y-2206752D01*
G01X6520688Y-2210054D01*
G01X6514592Y-2210054D01*
G01X6508496Y-2206752D01*
G01X6505448Y-2203704D01*
G01X6502146Y-2194560D01*
G01X6502146Y-2166620D01*
G01X6502146Y-2188210D02*
G01X6468110Y-2210054D01*
G01X6523990Y-2277364D02*
G01X6530086Y-2274316D01*
G01X6533134Y-2264918D01*
G01X6533134Y-2258822D01*
G01X6530086Y-2249424D01*
G01X6520688Y-2243328D01*
G01X6505448Y-2240280D01*
G01X6489954Y-2240280D01*
G01X6477508Y-2243328D01*
G01X6471158Y-2249424D01*
G01X6468110Y-2258822D01*
G01X6468110Y-2261870D01*
G01X6471158Y-2271014D01*
G01X6477508Y-2277364D01*
G01X6486652Y-2280412D01*
G01X6489954Y-2280412D01*
G01X6499098Y-2277364D01*
G01X6505448Y-2271014D01*
G01X6508496Y-2261870D01*
G01X6508496Y-2258822D01*
G01X6505448Y-2249424D01*
G01X6499098Y-2243328D01*
G01X6489954Y-2240280D01*
G01X10121482Y-2258256D02*
G01X10186506Y-2258256D01*
G01X10121482Y-2258256D02*
G01X10121482Y-2230316D01*
G01X10124530Y-2221172D01*
G01X10127578Y-2218124D01*
G01X10133928Y-2214822D01*
G01X10140024Y-2214822D01*
G01X10146120Y-2218124D01*
G01X10149168Y-2221172D01*
G01X10152470Y-2230316D01*
G01X10152470Y-2258256D01*
G01X10152470Y-2236666D02*
G01X10186506Y-2214822D01*
G01X10121482Y-2141416D02*
G01X10186506Y-2172404D01*
G01X10121482Y-2184596D02*
G01X10121482Y-2141416D01*
G01X10581914Y-2401491D02*
G01X10516890Y-2401491D01*
G01X10581914Y-2401491D02*
G01X10581914Y-2429431D01*
G01X10578866Y-2438575D01*
G01X10575818Y-2441623D01*
G01X10569468Y-2444925D01*
G01X10563372Y-2444925D01*
G01X10557276Y-2441623D01*
G01X10554228Y-2438575D01*
G01X10550926Y-2429431D01*
G01X10550926Y-2401491D01*
G01X10550926Y-2423081D02*
G01X10516890Y-2444925D01*
G01X10581914Y-2490391D02*
G01X10578866Y-2481247D01*
G01X10572770Y-2478199D01*
G01X10566420Y-2478199D01*
G01X10560324Y-2481247D01*
G01X10557276Y-2487343D01*
G01X10554228Y-2499789D01*
G01X10550926Y-2509187D01*
G01X10544830Y-2515283D01*
G01X10538734Y-2518331D01*
G01X10529336Y-2518331D01*
G01X10523240Y-2515283D01*
G01X10519938Y-2512235D01*
G01X10516890Y-2502837D01*
G01X10516890Y-2490391D01*
G01X10519938Y-2481247D01*
G01X10523240Y-2478199D01*
G01X10529336Y-2475151D01*
G01X10538734Y-2475151D01*
G01X10544830Y-2478199D01*
G01X10550926Y-2484295D01*
G01X10554228Y-2493693D01*
G01X10557276Y-2505885D01*
G01X10560324Y-2512235D01*
G01X10566420Y-2515283D01*
G01X10572770Y-2515283D01*
G01X10578866Y-2512235D01*
G01X10581914Y-2502837D01*
G01X10581914Y-2490391D01*
G01X11390709Y-5489214D02*
G01X11390709Y-5424190D01*
G01X11390709Y-5489214D02*
G01X11362769Y-5489214D01*
G01X11353625Y-5486166D01*
G01X11350577Y-5483118D01*
G01X11347275Y-5476768D01*
G01X11347275Y-5470672D01*
G01X11350577Y-5464576D01*
G01X11353625Y-5461528D01*
G01X11362769Y-5458226D01*
G01X11390709Y-5458226D01*
G01X11369119Y-5458226D02*
G01X11347275Y-5424190D01*
G01X11276917Y-5467624D02*
G01X11279965Y-5458226D01*
G01X11286315Y-5452130D01*
G01X11295459Y-5449082D01*
G01X11298507Y-5449082D01*
G01X11307905Y-5452130D01*
G01X11314001Y-5458226D01*
G01X11317049Y-5467624D01*
G01X11317049Y-5470672D01*
G01X11314001Y-5480070D01*
G01X11307905Y-5486166D01*
G01X11298507Y-5489214D01*
G01X11295459Y-5489214D01*
G01X11286315Y-5486166D01*
G01X11279965Y-5480070D01*
G01X11276917Y-5467624D01*
G01X11276917Y-5452130D01*
G01X11279965Y-5436636D01*
G01X11286315Y-5427238D01*
G01X11295459Y-5424190D01*
G01X11301809Y-5424190D01*
G01X11310953Y-5427238D01*
G01X11314001Y-5433588D01*
G01X6581886Y-3576089D02*
G01X6581886Y-3641113D01*
G01X6581886Y-3576089D02*
G01X6609826Y-3576089D01*
G01X6618970Y-3579137D01*
G01X6622018Y-3582185D01*
G01X6625320Y-3588535D01*
G01X6625320Y-3594631D01*
G01X6622018Y-3600727D01*
G01X6618970Y-3603775D01*
G01X6609826Y-3607077D01*
G01X6581886Y-3607077D01*
G01X6603476Y-3607077D02*
G01X6625320Y-3641113D01*
G01X6655546Y-3588535D02*
G01X6661642Y-3585233D01*
G01X6670786Y-3576089D01*
G01X6670786Y-3641113D01*
G01X6719554Y-3576089D02*
G01X6710156Y-3579137D01*
G01X6704060Y-3588535D01*
G01X6701012Y-3603775D01*
G01X6701012Y-3613173D01*
G01X6704060Y-3628667D01*
G01X6710156Y-3638065D01*
G01X6719554Y-3641113D01*
G01X6725650Y-3641113D01*
G01X6735048Y-3638065D01*
G01X6741144Y-3628667D01*
G01X6744192Y-3613173D01*
G01X6744192Y-3603775D01*
G01X6741144Y-3588535D01*
G01X6735048Y-3579137D01*
G01X6725650Y-3576089D01*
G01X6719554Y-3576089D01*
G01X4873986Y-1103709D02*
G01X4939010Y-1103709D01*
G01X4873986Y-1103709D02*
G01X4873986Y-1075769D01*
G01X4877034Y-1066625D01*
G01X4880082Y-1063577D01*
G01X4886432Y-1060275D01*
G01X4892528Y-1060275D01*
G01X4898624Y-1063577D01*
G01X4901672Y-1066625D01*
G01X4904974Y-1075769D01*
G01X4904974Y-1103709D01*
G01X4904974Y-1082119D02*
G01X4939010Y-1060275D01*
G01X4886432Y-1030049D02*
G01X4883130Y-1023953D01*
G01X4873986Y-1014809D01*
G01X4939010Y-1014809D01*
G01X4886432Y-984583D02*
G01X4883130Y-978487D01*
G01X4873986Y-969343D01*
G01X4939010Y-969343D01*
G01X4543031Y-1109259D02*
G01X4608055Y-1109259D01*
G01X4543031Y-1109259D02*
G01X4543031Y-1081319D01*
G01X4546079Y-1072175D01*
G01X4549127Y-1069127D01*
G01X4555477Y-1065825D01*
G01X4561573Y-1065825D01*
G01X4567669Y-1069127D01*
G01X4570717Y-1072175D01*
G01X4574019Y-1081319D01*
G01X4574019Y-1109259D01*
G01X4574019Y-1087669D02*
G01X4608055Y-1065825D01*
G01X4555477Y-1035599D02*
G01X4552175Y-1029503D01*
G01X4543031Y-1020359D01*
G01X4608055Y-1020359D01*
G01X4558525Y-987085D02*
G01X4555477Y-987085D01*
G01X4549127Y-984037D01*
G01X4546079Y-980989D01*
G01X4543031Y-974893D01*
G01X4543031Y-962447D01*
G01X4546079Y-956097D01*
G01X4549127Y-953049D01*
G01X4555477Y-950001D01*
G01X4561573Y-950001D01*
G01X4567669Y-953049D01*
G01X4577067Y-959399D01*
G01X4608055Y-990133D01*
G01X4608055Y-946953D01*
G01X6849416Y-614705D02*
G01X6849416Y-549681D01*
G01X6849416Y-614705D02*
G01X6821476Y-614705D01*
G01X6812332Y-611657D01*
G01X6809284Y-608609D01*
G01X6805982Y-602259D01*
G01X6805982Y-596163D01*
G01X6809284Y-590067D01*
G01X6812332Y-587019D01*
G01X6821476Y-583717D01*
G01X6849416Y-583717D01*
G01X6827826Y-583717D02*
G01X6805982Y-549681D01*
G01X6775756Y-602259D02*
G01X6769660Y-605561D01*
G01X6760516Y-614705D01*
G01X6760516Y-549681D01*
G01X6724194Y-614705D02*
G01X6690158Y-614705D01*
G01X6708700Y-590067D01*
G01X6699556Y-590067D01*
G01X6693206Y-587019D01*
G01X6690158Y-583717D01*
G01X6687110Y-574573D01*
G01X6687110Y-568223D01*
G01X6690158Y-559079D01*
G01X6696254Y-552729D01*
G01X6705652Y-549681D01*
G01X6715050Y-549681D01*
G01X6724194Y-552729D01*
G01X6727242Y-556031D01*
G01X6730290Y-562127D01*
G01X6552009Y-612414D02*
G01X6552009Y-547390D01*
G01X6552009Y-612414D02*
G01X6524069Y-612414D01*
G01X6514925Y-609366D01*
G01X6511877Y-606318D01*
G01X6508575Y-599968D01*
G01X6508575Y-593872D01*
G01X6511877Y-587776D01*
G01X6514925Y-584728D01*
G01X6524069Y-581426D01*
G01X6552009Y-581426D01*
G01X6530419Y-581426D02*
G01X6508575Y-547390D01*
G01X6478349Y-599968D02*
G01X6472253Y-603270D01*
G01X6463109Y-612414D01*
G01X6463109Y-547390D01*
G01X6402149Y-612414D02*
G01X6432883Y-569234D01*
G01X6386655Y-569234D01*
G01X6402149Y-612414D02*
G01X6402149Y-547390D01*
G01X7445014Y-1372791D02*
G01X7379990Y-1372791D01*
G01X7445014Y-1372791D02*
G01X7445014Y-1400731D01*
G01X7441966Y-1409875D01*
G01X7438918Y-1412923D01*
G01X7432568Y-1416225D01*
G01X7426472Y-1416225D01*
G01X7420376Y-1412923D01*
G01X7417328Y-1409875D01*
G01X7414026Y-1400731D01*
G01X7414026Y-1372791D01*
G01X7414026Y-1394381D02*
G01X7379990Y-1416225D01*
G01X7432568Y-1446451D02*
G01X7435870Y-1452547D01*
G01X7445014Y-1461691D01*
G01X7379990Y-1461691D01*
G01X7445014Y-1529001D02*
G01X7445014Y-1498013D01*
G01X7417328Y-1494965D01*
G01X7420376Y-1498013D01*
G01X7423424Y-1507157D01*
G01X7423424Y-1516555D01*
G01X7420376Y-1525953D01*
G01X7414026Y-1532049D01*
G01X7404882Y-1535097D01*
G01X7398532Y-1535097D01*
G01X7389388Y-1532049D01*
G01X7383038Y-1525953D01*
G01X7379990Y-1516555D01*
G01X7379990Y-1507157D01*
G01X7383038Y-1498013D01*
G01X7386340Y-1494965D01*
G01X7392436Y-1491917D01*
G01X7622814Y-1372791D02*
G01X7557790Y-1372791D01*
G01X7622814Y-1372791D02*
G01X7622814Y-1400731D01*
G01X7619766Y-1409875D01*
G01X7616718Y-1412923D01*
G01X7610368Y-1416225D01*
G01X7604272Y-1416225D01*
G01X7598176Y-1412923D01*
G01X7595128Y-1409875D01*
G01X7591826Y-1400731D01*
G01X7591826Y-1372791D01*
G01X7591826Y-1394381D02*
G01X7557790Y-1416225D01*
G01X7610368Y-1446451D02*
G01X7613670Y-1452547D01*
G01X7622814Y-1461691D01*
G01X7557790Y-1461691D01*
G01X7613670Y-1529001D02*
G01X7619766Y-1525953D01*
G01X7622814Y-1516555D01*
G01X7622814Y-1510459D01*
G01X7619766Y-1501061D01*
G01X7610368Y-1494965D01*
G01X7595128Y-1491917D01*
G01X7579634Y-1491917D01*
G01X7567188Y-1494965D01*
G01X7560838Y-1501061D01*
G01X7557790Y-1510459D01*
G01X7557790Y-1513507D01*
G01X7560838Y-1522651D01*
G01X7567188Y-1529001D01*
G01X7576332Y-1532049D01*
G01X7579634Y-1532049D01*
G01X7588778Y-1529001D01*
G01X7595128Y-1522651D01*
G01X7598176Y-1513507D01*
G01X7598176Y-1510459D01*
G01X7595128Y-1501061D01*
G01X7588778Y-1494965D01*
G01X7579634Y-1491917D01*
G01X7122577Y-1076396D02*
G01X7122577Y-1141420D01*
G01X7122577Y-1076396D02*
G01X7150517Y-1076396D01*
G01X7159661Y-1079444D01*
G01X7162709Y-1082492D01*
G01X7166011Y-1088842D01*
G01X7166011Y-1094938D01*
G01X7162709Y-1101034D01*
G01X7159661Y-1104082D01*
G01X7150517Y-1107384D01*
G01X7122577Y-1107384D01*
G01X7144167Y-1107384D02*
G01X7166011Y-1141420D01*
G01X7196237Y-1088842D02*
G01X7202333Y-1085540D01*
G01X7211477Y-1076396D01*
G01X7211477Y-1141420D01*
G01X7284883Y-1076396D02*
G01X7253895Y-1141420D01*
G01X7241703Y-1076396D02*
G01X7284883Y-1076396D01*
G01X6906677Y-4296357D02*
G01X6906677Y-4361381D01*
G01X6906677Y-4296357D02*
G01X6934617Y-4296357D01*
G01X6943761Y-4299405D01*
G01X6946809Y-4302453D01*
G01X6950111Y-4308803D01*
G01X6950111Y-4314899D01*
G01X6946809Y-4320995D01*
G01X6943761Y-4324043D01*
G01X6934617Y-4327345D01*
G01X6906677Y-4327345D01*
G01X6928267Y-4327345D02*
G01X6950111Y-4361381D01*
G01X6980337Y-4308803D02*
G01X6986433Y-4305501D01*
G01X6995577Y-4296357D01*
G01X6995577Y-4361381D01*
G01X7041043Y-4296357D02*
G01X7031899Y-4299405D01*
G01X7028851Y-4305501D01*
G01X7028851Y-4311851D01*
G01X7031899Y-4317947D01*
G01X7037995Y-4320995D01*
G01X7050441Y-4324043D01*
G01X7059839Y-4327345D01*
G01X7065935Y-4333441D01*
G01X7068983Y-4339537D01*
G01X7068983Y-4348935D01*
G01X7065935Y-4355031D01*
G01X7062887Y-4358333D01*
G01X7053489Y-4361381D01*
G01X7041043Y-4361381D01*
G01X7031899Y-4358333D01*
G01X7028851Y-4355031D01*
G01X7025803Y-4348935D01*
G01X7025803Y-4339537D01*
G01X7028851Y-4333441D01*
G01X7034947Y-4327345D01*
G01X7044345Y-4324043D01*
G01X7056537Y-4320995D01*
G01X7062887Y-4317947D01*
G01X7065935Y-4311851D01*
G01X7065935Y-4305501D01*
G01X7062887Y-4299405D01*
G01X7053489Y-4296357D01*
G01X7041043Y-4296357D01*
G54D11*
G01X7219188Y-4802124D02*
G01X7215124Y-4804156D01*
G01X7211314Y-4808220D01*
G01X7209282Y-4812030D01*
G01X7207250Y-4818126D01*
G01X7207250Y-4828032D01*
G01X7209282Y-4833874D01*
G01X7211314Y-4837938D01*
G01X7215124Y-4842002D01*
G01X7219188Y-4843780D01*
G01X7227062Y-4843780D01*
G01X7231126Y-4842002D01*
G01X7234936Y-4837938D01*
G01X7236968Y-4833874D01*
G01X7239000Y-4828032D01*
G01X7239000Y-4818126D01*
G01X7236968Y-4812030D01*
G01X7234936Y-4808220D01*
G01X7231126Y-4804156D01*
G01X7227062Y-4802124D01*
G01X7219188Y-4802124D01*
G01X7261352Y-4802124D02*
G01X7261352Y-4843780D01*
G01X7261352Y-4802124D02*
G01X7289038Y-4843780D01*
G01X7289038Y-4802124D02*
G01X7289038Y-4843780D01*
G54D10*
G01X6753808Y-4939805D02*
G01X6747712Y-4946155D01*
G01X6744664Y-4955299D01*
G01X6744664Y-4967745D01*
G01X6747712Y-4977143D01*
G01X6753808Y-4983239D01*
G01X6760158Y-4983239D01*
G01X6766254Y-4980191D01*
G01X6769302Y-4977143D01*
G01X6772350Y-4970793D01*
G01X6778700Y-4952251D01*
G01X6781748Y-4946155D01*
G01X6784796Y-4943107D01*
G01X6791146Y-4939805D01*
G01X6800290Y-4939805D01*
G01X6806640Y-4946155D01*
G01X6809688Y-4955299D01*
G01X6809688Y-4967745D01*
G01X6806640Y-4977143D01*
G01X6800290Y-4983239D01*
G01X6744664Y-4909579D02*
G01X6809688Y-4894339D01*
G01X6744664Y-4878845D02*
G01X6809688Y-4894339D01*
G01X6744664Y-4878845D02*
G01X6809688Y-4863351D01*
G01X6744664Y-4847857D02*
G01X6809688Y-4863351D01*
G01X6757110Y-4817631D02*
G01X6753808Y-4811535D01*
G01X6744664Y-4802391D01*
G01X6809688Y-4802391D01*
G01X6982579Y-1759036D02*
G01X6982579Y-1712554D01*
G01X6979531Y-1703410D01*
G01X6973181Y-1697060D01*
G01X6964037Y-1694012D01*
G01X6957687Y-1694012D01*
G01X6948543Y-1697060D01*
G01X6942447Y-1703410D01*
G01X6939145Y-1712554D01*
G01X6939145Y-1759036D01*
G01X6905871Y-1743542D02*
G01X6905871Y-1746590D01*
G01X6902823Y-1752940D01*
G01X6899775Y-1755988D01*
G01X6893679Y-1759036D01*
G01X6881233Y-1759036D01*
G01X6874883Y-1755988D01*
G01X6871835Y-1752940D01*
G01X6868787Y-1746590D01*
G01X6868787Y-1740494D01*
G01X6871835Y-1734398D01*
G01X6878185Y-1725000D01*
G01X6908919Y-1694012D01*
G01X6865739Y-1694012D01*
G01X8761531Y-3114178D02*
G01X8715049Y-3114178D01*
G01X8705905Y-3117226D01*
G01X8699555Y-3123576D01*
G01X8696507Y-3132720D01*
G01X8696507Y-3139070D01*
G01X8699555Y-3148214D01*
G01X8705905Y-3154310D01*
G01X8715049Y-3157612D01*
G01X8761531Y-3157612D01*
G01X8761531Y-3193934D02*
G01X8761531Y-3227970D01*
G01X8736893Y-3209428D01*
G01X8736893Y-3218572D01*
G01X8733845Y-3224922D01*
G01X8730543Y-3227970D01*
G01X8721399Y-3231018D01*
G01X8715049Y-3231018D01*
G01X8705905Y-3227970D01*
G01X8699555Y-3221874D01*
G01X8696507Y-3212476D01*
G01X8696507Y-3203078D01*
G01X8699555Y-3193934D01*
G01X8702857Y-3190886D01*
G01X8708953Y-3187838D01*
G01X10198077Y-5616075D02*
G01X10198077Y-5569593D01*
G01X10195029Y-5560449D01*
G01X10188679Y-5554099D01*
G01X10179535Y-5551051D01*
G01X10173185Y-5551051D01*
G01X10164041Y-5554099D01*
G01X10157945Y-5560449D01*
G01X10154643Y-5569593D01*
G01X10154643Y-5616075D01*
G01X10087333Y-5616075D02*
G01X10118321Y-5616075D01*
G01X10121369Y-5588389D01*
G01X10118321Y-5591437D01*
G01X10109177Y-5594485D01*
G01X10099779Y-5594485D01*
G01X10090381Y-5591437D01*
G01X10084285Y-5585087D01*
G01X10081237Y-5575943D01*
G01X10081237Y-5569593D01*
G01X10084285Y-5560449D01*
G01X10090381Y-5554099D01*
G01X10099779Y-5551051D01*
G01X10109177Y-5551051D01*
G01X10118321Y-5554099D01*
G01X10121369Y-5557401D01*
G01X10124417Y-5563497D01*
G01X9456417Y-3648495D02*
G01X9502899Y-3648495D01*
G01X9512043Y-3645447D01*
G01X9518393Y-3639097D01*
G01X9521441Y-3629953D01*
G01X9521441Y-3623603D01*
G01X9518393Y-3614459D01*
G01X9512043Y-3608363D01*
G01X9502899Y-3605061D01*
G01X9456417Y-3605061D01*
G01X9465561Y-3537751D02*
G01X9459465Y-3540799D01*
G01X9456417Y-3550197D01*
G01X9456417Y-3556293D01*
G01X9459465Y-3565691D01*
G01X9468863Y-3571787D01*
G01X9484103Y-3574835D01*
G01X9499597Y-3574835D01*
G01X9512043Y-3571787D01*
G01X9518393Y-3565691D01*
G01X9521441Y-3556293D01*
G01X9521441Y-3553245D01*
G01X9518393Y-3544101D01*
G01X9512043Y-3537751D01*
G01X9502899Y-3534703D01*
G01X9499597Y-3534703D01*
G01X9490453Y-3537751D01*
G01X9484103Y-3544101D01*
G01X9481055Y-3553245D01*
G01X9481055Y-3556293D01*
G01X9484103Y-3565691D01*
G01X9490453Y-3571787D01*
G01X9499597Y-3574835D01*
G01X10616695Y-2834645D02*
G01X10663177Y-2834645D01*
G01X10672321Y-2831597D01*
G01X10678671Y-2825247D01*
G01X10681719Y-2816103D01*
G01X10681719Y-2809753D01*
G01X10678671Y-2800609D01*
G01X10672321Y-2794513D01*
G01X10663177Y-2791211D01*
G01X10616695Y-2791211D01*
G01X10625839Y-2717805D02*
G01X10619743Y-2723901D01*
G01X10616695Y-2733299D01*
G01X10616695Y-2745745D01*
G01X10619743Y-2754889D01*
G01X10625839Y-2760985D01*
G01X10632189Y-2760985D01*
G01X10638285Y-2757937D01*
G01X10641333Y-2754889D01*
G01X10644381Y-2748793D01*
G01X10650731Y-2730251D01*
G01X10653779Y-2723901D01*
G01X10656827Y-2720853D01*
G01X10663177Y-2717805D01*
G01X10672321Y-2717805D01*
G01X10678671Y-2723901D01*
G01X10681719Y-2733299D01*
G01X10681719Y-2745745D01*
G01X10678671Y-2754889D01*
G01X10672321Y-2760985D01*
G01X10616695Y-2687579D02*
G01X10681719Y-2687579D01*
G01X10616695Y-2687579D02*
G01X10616695Y-2659893D01*
G01X10619743Y-2650495D01*
G01X10622791Y-2647447D01*
G01X10629141Y-2644399D01*
G01X10635237Y-2644399D01*
G01X10641333Y-2647447D01*
G01X10644381Y-2650495D01*
G01X10647683Y-2659893D01*
G01X10647683Y-2687579D02*
G01X10647683Y-2659893D01*
G01X10650731Y-2650495D01*
G01X10653779Y-2647447D01*
G01X10659875Y-2644399D01*
G01X10669273Y-2644399D01*
G01X10675369Y-2647447D01*
G01X10678671Y-2650495D01*
G01X10681719Y-2659893D01*
G01X10681719Y-2687579D01*
G01X10632189Y-2567945D02*
G01X10625839Y-2570993D01*
G01X10619743Y-2577089D01*
G01X10616695Y-2583439D01*
G01X10616695Y-2595631D01*
G01X10619743Y-2601981D01*
G01X10625839Y-2608077D01*
G01X10632189Y-2611125D01*
G01X10641333Y-2614173D01*
G01X10656827Y-2614173D01*
G01X10666225Y-2611125D01*
G01X10672321Y-2608077D01*
G01X10678671Y-2601981D01*
G01X10681719Y-2595631D01*
G01X10681719Y-2583439D01*
G01X10678671Y-2577089D01*
G01X10672321Y-2570993D01*
G01X10666225Y-2567945D01*
G01X10629141Y-2537719D02*
G01X10625839Y-2531623D01*
G01X10616695Y-2522479D01*
G01X10681719Y-2522479D01*
G01X5854019Y81534D02*
G01X5854019Y16510D01*
G01X5897453Y81534D02*
G01X5897453Y16510D01*
G01X5854019Y50546D02*
G01X5897453Y50546D01*
G01X5927679Y69088D02*
G01X5933775Y72390D01*
G01X5942919Y81534D01*
G01X5942919Y16510D01*
G01X11576806Y-4000589D02*
G01X11579854Y-4006939D01*
G01X11586204Y-4013035D01*
G01X11592300Y-4016083D01*
G01X11604746Y-4016083D01*
G01X11610842Y-4013035D01*
G01X11617192Y-4006939D01*
G01X11620240Y-4000589D01*
G01X11623288Y-3991445D01*
G01X11623288Y-3975951D01*
G01X11620240Y-3966553D01*
G01X11617192Y-3960457D01*
G01X11610842Y-3954107D01*
G01X11604746Y-3951059D01*
G01X11592300Y-3951059D01*
G01X11586204Y-3954107D01*
G01X11579854Y-3960457D01*
G01X11576806Y-3966553D01*
G01X11546580Y-4016083D02*
G01X11546580Y-3951059D01*
G01X11546580Y-4016083D02*
G01X11503400Y-3951059D01*
G01X11503400Y-4016083D02*
G01X11503400Y-3951059D01*
G01X11473174Y-4003637D02*
G01X11467078Y-4006939D01*
G01X11457934Y-4016083D01*
G01X11457934Y-3951059D01*
G04 Text End*

G04 PolygonModel Start*
G54D12*
G01X10467419Y-5237643D02*
G01X10547416Y-5237643D01*
G01X10411374Y-5237597D02*
G01X10331376Y-5237597D01*
G01X10467419Y-5379611D02*
G01X10547416Y-5379611D01*
G01X10411374Y-5379563D02*
G01X10331376Y-5379563D01*
G01X10578391Y-5268625D02*
G01X10578391Y-5348630D01*
G01X10300399Y-5348577D02*
G01X10300399Y-5268575D01*
G01X10331381Y-5379563D02*
G02X10300399Y-5348577I0J30983D01*
G01X10300399Y-5268580D02*
G02X10331381Y-5237597I30983J0D01*
G01X10547411Y-5237643D02*
G02X10578391Y-5268625I-3J-30983D01*
G01X10578391Y-5348623D02*
G02X10547411Y-5379611I-30983J-5D01*
G01X11516281Y-4630257D02*
G01X11436284Y-4630257D01*
G01X11572326Y-4630303D02*
G01X11652324Y-4630303D01*
G01X11516281Y-4488289D02*
G01X11436284Y-4488289D01*
G01X11572326Y-4488337D02*
G01X11652324Y-4488337D01*
G01X11405309Y-4599275D02*
G01X11405309Y-4519270D01*
G01X11683302Y-4519323D02*
G01X11683302Y-4599325D01*
G01X11652319Y-4488337D02*
G02X11683302Y-4519323I0J-30983D01*
G01X11683302Y-4599320D02*
G02X11652319Y-4630303I-30983J0D01*
G01X11436289Y-4630257D02*
G02X11405309Y-4599275I3J30983D01*
G01X11405309Y-4519277D02*
G02X11436289Y-4488289I30983J5D01*
G01X10840557Y-4257119D02*
G01X10840557Y-4337116D01*
G01X10840603Y-4201074D02*
G01X10840603Y-4121076D01*
G01X10698589Y-4257119D02*
G01X10698589Y-4337116D01*
G01X10698637Y-4201074D02*
G01X10698637Y-4121076D01*
G01X10809575Y-4368091D02*
G01X10729570Y-4368091D01*
G01X10729623Y-4090098D02*
G01X10809625Y-4090098D01*
G01X10698637Y-4121081D02*
G02X10729623Y-4090098I30983J0D01*
G01X10809620Y-4090098D02*
G02X10840603Y-4121081I0J-30983D01*
G01X10840557Y-4337111D02*
G02X10809575Y-4368091I-30983J3D01*
G01X10729577Y-4368091D02*
G02X10698589Y-4337111I-5J30983D01*
G01X11389281Y-3957157D02*
G01X11309284Y-3957157D01*
G01X11445326Y-3957203D02*
G01X11525324Y-3957203D01*
G01X11389281Y-3815189D02*
G01X11309284Y-3815189D01*
G01X11445326Y-3815237D02*
G01X11525324Y-3815237D01*
G01X11278309Y-3926175D02*
G01X11278309Y-3846170D01*
G01X11556302Y-3846223D02*
G01X11556302Y-3926225D01*
G01X11525319Y-3815237D02*
G02X11556302Y-3846223I0J-30983D01*
G01X11556302Y-3926220D02*
G02X11525319Y-3957203I-30983J0D01*
G01X11309289Y-3957157D02*
G02X11278309Y-3926175I3J30983D01*
G01X11278309Y-3846177D02*
G02X11309289Y-3815189I30983J5D01*
G01X11605181Y-5506557D02*
G01X11525184Y-5506557D01*
G01X11661226Y-5506603D02*
G01X11741224Y-5506603D01*
G01X11605181Y-5364589D02*
G01X11525184Y-5364589D01*
G01X11661226Y-5364637D02*
G01X11741224Y-5364637D01*
G01X11494209Y-5475575D02*
G01X11494209Y-5395570D01*
G01X11772202Y-5395623D02*
G01X11772202Y-5475625D01*
G01X11741219Y-5364637D02*
G02X11772202Y-5395623I0J-30983D01*
G01X11772202Y-5475620D02*
G02X11741219Y-5506603I-30983J0D01*
G01X11525189Y-5506557D02*
G02X11494209Y-5475575I3J30983D01*
G01X11494209Y-5395577D02*
G02X11525189Y-5364589I30983J5D01*
G01X11678757Y-5057219D02*
G01X11678757Y-5137216D01*
G01X11678803Y-5001174D02*
G01X11678803Y-4921176D01*
G01X11536789Y-5057219D02*
G01X11536789Y-5137216D01*
G01X11536837Y-5001174D02*
G01X11536837Y-4921176D01*
G01X11647775Y-5168191D02*
G01X11567770Y-5168191D01*
G01X11567823Y-4890198D02*
G01X11647825Y-4890198D01*
G01X11536837Y-4921181D02*
G02X11567823Y-4890198I30983J0D01*
G01X11647820Y-4890198D02*
G02X11678803Y-4921181I0J-30983D01*
G01X11678757Y-5137211D02*
G02X11647775Y-5168191I-30983J3D01*
G01X11567777Y-5168191D02*
G02X11536789Y-5137211I-5J30983D01*
G01X11651143Y-3985181D02*
G01X11651143Y-3905184D01*
G01X11651097Y-4041226D02*
G01X11651097Y-4121224D01*
G01X11793111Y-3985181D02*
G01X11793111Y-3905184D01*
G01X11793063Y-4041226D02*
G01X11793063Y-4121224D01*
G01X11682125Y-3874209D02*
G01X11762130Y-3874209D01*
G01X11762077Y-4152201D02*
G01X11682075Y-4152201D01*
G01X11793063Y-4121219D02*
G02X11762077Y-4152201I-30983J0D01*
G01X11682080Y-4152201D02*
G02X11651097Y-4121219I0J30983D01*
G01X11651143Y-3905189D02*
G02X11682125Y-3874209I30983J-3D01*
G01X11762123Y-3874209D02*
G02X11793111Y-3905189I5J-30983D01*
G01X11394519Y-2926243D02*
G01X11474516Y-2926243D01*
G01X11338474Y-2926197D02*
G01X11258476Y-2926197D01*
G01X11394519Y-3068211D02*
G01X11474516Y-3068211D01*
G01X11338474Y-3068163D02*
G01X11258476Y-3068163D01*
G01X11505491Y-2957225D02*
G01X11505491Y-3037230D01*
G01X11227499Y-3037177D02*
G01X11227499Y-2957175D01*
G01X11258481Y-3068163D02*
G02X11227499Y-3037177I0J30983D01*
G01X11227499Y-2957180D02*
G02X11258481Y-2926197I30983J0D01*
G01X11474511Y-2926243D02*
G02X11505491Y-2957225I-3J-30983D01*
G01X11505491Y-3037223D02*
G02X11474511Y-3068211I-30983J-5D01*
G01X6824388Y-3242729D02*
G01X6824388Y-3162732D01*
G01X6824342Y-3298774D02*
G01X6824342Y-3378771D01*
G01X6966356Y-3242729D02*
G01X6966356Y-3162732D01*
G01X6966308Y-3298774D02*
G01X6966308Y-3378771D01*
G01X6855371Y-3131756D02*
G01X6935376Y-3131756D01*
G01X6935322Y-3409749D02*
G01X6855320Y-3409749D01*
G01X6966308Y-3378766D02*
G02X6935322Y-3409749I-30983J0D01*
G01X6855325Y-3409749D02*
G02X6824342Y-3378766I0J30983D01*
G01X6824388Y-3162737D02*
G02X6855371Y-3131756I30983J-3D01*
G01X6935368Y-3131756D02*
G02X6966356Y-3162737I5J-30983D01*
G01X7256943Y-3324781D02*
G01X7256943Y-3244784D01*
G01X7256897Y-3380826D02*
G01X7256897Y-3460824D01*
G01X7398911Y-3324781D02*
G01X7398911Y-3244784D01*
G01X7398863Y-3380826D02*
G01X7398863Y-3460824D01*
G01X7287925Y-3213809D02*
G01X7367930Y-3213809D01*
G01X7367877Y-3491801D02*
G01X7287875Y-3491801D01*
G01X7398863Y-3460819D02*
G02X7367877Y-3491801I-30983J0D01*
G01X7287880Y-3491801D02*
G02X7256897Y-3460819I0J30983D01*
G01X7256943Y-3244789D02*
G02X7287925Y-3213809I30983J-3D01*
G01X7367923Y-3213809D02*
G02X7398911Y-3244789I5J-30983D01*
G01X5732322Y-668353D02*
G01X5732322Y-748350D01*
G01X5732368Y-612308D02*
G01X5732368Y-532310D01*
G01X5590354Y-668353D02*
G01X5590354Y-748350D01*
G01X5590402Y-612308D02*
G01X5590402Y-532310D01*
G01X5701339Y-779325D02*
G01X5621334Y-779325D01*
G01X5621388Y-501332D02*
G01X5701390Y-501332D01*
G01X5590402Y-532315D02*
G02X5621388Y-501332I30983J0D01*
G01X5701385Y-501332D02*
G02X5732368Y-532315I0J-30983D01*
G01X5732322Y-748345D02*
G02X5701339Y-779325I-30983J3D01*
G01X5621342Y-779325D02*
G02X5590354Y-748345I-5J30983D01*
G01X5114815Y-668353D02*
G01X5114815Y-748350D01*
G01X5114861Y-612308D02*
G01X5114861Y-532310D01*
G01X4972847Y-668353D02*
G01X4972847Y-748350D01*
G01X4972895Y-612308D02*
G01X4972895Y-532310D01*
G01X5083832Y-779325D02*
G01X5003827Y-779325D01*
G01X5003881Y-501332D02*
G01X5083883Y-501332D01*
G01X4972895Y-532315D02*
G02X5003881Y-501332I30983J0D01*
G01X5083878Y-501332D02*
G02X5114861Y-532315I0J-30983D01*
G01X5114815Y-748345D02*
G02X5083832Y-779325I-30983J3D01*
G01X5003835Y-779325D02*
G02X4972847Y-748345I-5J30983D01*
G01X7413483Y-4242107D02*
G01X7333485Y-4242107D01*
G01X7469528Y-4242153D02*
G01X7549525Y-4242153D01*
G01X7413483Y-4100139D02*
G01X7333485Y-4100139D01*
G01X7469528Y-4100187D02*
G01X7549525Y-4100187D01*
G01X7302510Y-4211124D02*
G01X7302510Y-4131119D01*
G01X7580503Y-4131173D02*
G01X7580503Y-4211175D01*
G01X7549520Y-4100187D02*
G02X7580503Y-4131173I0J-30983D01*
G01X7580503Y-4211170D02*
G02X7549520Y-4242153I-30983J0D01*
G01X7333491Y-4242107D02*
G02X7302510Y-4211124I3J30983D01*
G01X7302510Y-4131127D02*
G02X7333491Y-4100139I30983J5D01*
G01X5434523Y-663811D02*
G01X5434523Y-743809D01*
G01X5434568Y-607766D02*
G01X5434568Y-527769D01*
G01X5292554Y-663811D02*
G01X5292554Y-743809D01*
G01X5292603Y-607766D02*
G01X5292603Y-527769D01*
G01X5403540Y-774784D02*
G01X5323535Y-774784D01*
G01X5323588Y-496791D02*
G01X5403590Y-496791D01*
G01X5292603Y-527774D02*
G02X5323588Y-496791I30983J0D01*
G01X5403585Y-496791D02*
G02X5434568Y-527774I0J-30983D01*
G01X5434523Y-743803D02*
G02X5403540Y-774784I-30983J3D01*
G01X5323542Y-774784D02*
G02X5292554Y-743803I-5J30983D01*
G01X9819719Y-2850043D02*
G01X9899716Y-2850043D01*
G01X9763674Y-2849997D02*
G01X9683676Y-2849997D01*
G01X9819719Y-2992011D02*
G01X9899716Y-2992011D01*
G01X9763674Y-2991963D02*
G01X9683676Y-2991963D01*
G01X9930691Y-2881025D02*
G01X9930691Y-2961030D01*
G01X9652699Y-2960977D02*
G01X9652699Y-2880975D01*
G01X9683681Y-2991963D02*
G02X9652699Y-2960977I0J30983D01*
G01X9652699Y-2880980D02*
G02X9683681Y-2849997I30983J0D01*
G01X9899711Y-2850043D02*
G02X9930691Y-2881025I-3J-30983D01*
G01X9930691Y-2961023D02*
G02X9899711Y-2992011I-30983J-5D01*
G01X11274981Y-1582257D02*
G01X11194984Y-1582257D01*
G01X11331026Y-1582303D02*
G01X11411024Y-1582303D01*
G01X11274981Y-1440289D02*
G01X11194984Y-1440289D01*
G01X11331026Y-1440337D02*
G01X11411024Y-1440337D01*
G01X11164009Y-1551275D02*
G01X11164009Y-1471270D01*
G01X11442002Y-1471323D02*
G01X11442002Y-1551325D01*
G01X11411019Y-1440337D02*
G02X11442002Y-1471323I0J-30983D01*
G01X11442002Y-1551320D02*
G02X11411019Y-1582303I-30983J0D01*
G01X11194989Y-1582257D02*
G02X11164009Y-1551275I3J30983D01*
G01X11164009Y-1471277D02*
G02X11194989Y-1440289I30983J5D01*
G01X11274981Y-1810857D02*
G01X11194984Y-1810857D01*
G01X11331026Y-1810903D02*
G01X11411024Y-1810903D01*
G01X11274981Y-1668889D02*
G01X11194984Y-1668889D01*
G01X11331026Y-1668937D02*
G01X11411024Y-1668937D01*
G01X11164009Y-1779875D02*
G01X11164009Y-1699870D01*
G01X11442002Y-1699923D02*
G01X11442002Y-1779925D01*
G01X11411019Y-1668937D02*
G02X11442002Y-1699923I0J-30983D01*
G01X11442002Y-1779920D02*
G02X11411019Y-1810903I-30983J0D01*
G01X11194989Y-1810857D02*
G02X11164009Y-1779875I3J30983D01*
G01X11164009Y-1699877D02*
G02X11194989Y-1668889I30983J5D01*
G01X6977543Y-3756581D02*
G01X6977543Y-3676584D01*
G01X6977497Y-3812626D02*
G01X6977497Y-3892624D01*
G01X7119511Y-3756581D02*
G01X7119511Y-3676584D01*
G01X7119463Y-3812626D02*
G01X7119463Y-3892624D01*
G01X7008525Y-3645609D02*
G01X7088530Y-3645609D01*
G01X7088477Y-3923601D02*
G01X7008475Y-3923601D01*
G01X7119463Y-3892619D02*
G02X7088477Y-3923601I-30983J0D01*
G01X7008480Y-3923601D02*
G02X6977497Y-3892619I0J30983D01*
G01X6977543Y-3676589D02*
G02X7008525Y-3645609I30983J-3D01*
G01X7088523Y-3645609D02*
G02X7119511Y-3676589I5J-30983D01*
G01X7279561Y-3759309D02*
G01X7279561Y-3679312D01*
G01X7279515Y-3815354D02*
G01X7279515Y-3895352D01*
G01X7421529Y-3759309D02*
G01X7421529Y-3679312D01*
G01X7421481Y-3815354D02*
G01X7421481Y-3895352D01*
G01X7310544Y-3648337D02*
G01X7390549Y-3648337D01*
G01X7390495Y-3926329D02*
G01X7310493Y-3926329D01*
G01X7421481Y-3895347D02*
G02X7390495Y-3926329I-30983J0D01*
G01X7310498Y-3926329D02*
G02X7279515Y-3895347I0J30983D01*
G01X7279561Y-3679317D02*
G02X7310544Y-3648337I30983J-3D01*
G01X7390541Y-3648337D02*
G02X7421529Y-3679317I5J-30983D01*
G01X10119281Y-4223857D02*
G01X10039284Y-4223857D01*
G01X10175326Y-4223903D02*
G01X10255324Y-4223903D01*
G01X10119281Y-4081889D02*
G01X10039284Y-4081889D01*
G01X10175326Y-4081937D02*
G01X10255324Y-4081937D01*
G01X10008309Y-4192875D02*
G01X10008309Y-4112870D01*
G01X10286302Y-4112923D02*
G01X10286302Y-4192925D01*
G01X10255319Y-4081937D02*
G02X10286302Y-4112923I0J-30983D01*
G01X10286302Y-4192920D02*
G02X10255319Y-4223903I-30983J0D01*
G01X10039289Y-4223857D02*
G02X10008309Y-4192875I3J30983D01*
G01X10008309Y-4112877D02*
G02X10039289Y-4081889I30983J5D01*
G01X6056198Y-670545D02*
G01X6056198Y-750542D01*
G01X6056243Y-614500D02*
G01X6056243Y-534502D01*
G01X5914229Y-670545D02*
G01X5914229Y-750542D01*
G01X5914278Y-614500D02*
G01X5914278Y-534502D01*
G01X6025215Y-781517D02*
G01X5945210Y-781517D01*
G01X5945263Y-503525D02*
G01X6025266Y-503525D01*
G01X5914278Y-534507D02*
G02X5945263Y-503525I30983J0D01*
G01X6025260Y-503525D02*
G02X6056243Y-534507I0J-30983D01*
G01X6056198Y-750537D02*
G02X6025215Y-781517I-30983J3D01*
G01X5945217Y-781517D02*
G02X5914229Y-750537I-5J30983D01*
G01X6408257Y-891619D02*
G01X6408257Y-971616D01*
G01X6408303Y-835574D02*
G01X6408303Y-755576D01*
G01X6266289Y-891619D02*
G01X6266289Y-971616D01*
G01X6266337Y-835574D02*
G01X6266337Y-755576D01*
G01X6377275Y-1002591D02*
G01X6297270Y-1002591D01*
G01X6297323Y-724598D02*
G01X6377325Y-724598D01*
G01X6266337Y-755581D02*
G02X6297323Y-724598I30983J0D01*
G01X6377320Y-724598D02*
G02X6408303Y-755581I0J-30983D01*
G01X6408257Y-971611D02*
G02X6377275Y-1002591I-30983J3D01*
G01X6297277Y-1002591D02*
G02X6266289Y-971611I-5J30983D01*
G01X7546419Y-576743D02*
G01X7626416Y-576743D01*
G01X7490374Y-576697D02*
G01X7410376Y-576697D01*
G01X7546419Y-718711D02*
G01X7626416Y-718711D01*
G01X7490374Y-718663D02*
G01X7410376Y-718663D01*
G01X7657391Y-607725D02*
G01X7657391Y-687730D01*
G01X7379399Y-687677D02*
G01X7379399Y-607675D01*
G01X7410381Y-718663D02*
G02X7379399Y-687677I0J30983D01*
G01X7379399Y-607680D02*
G02X7410381Y-576697I30983J0D01*
G01X7626411Y-576743D02*
G02X7657391Y-607725I-3J-30983D01*
G01X7657391Y-687723D02*
G02X7626411Y-718711I-30983J-5D01*
G01X8480981Y-2763357D02*
G01X8400984Y-2763357D01*
G01X8537026Y-2763403D02*
G01X8617024Y-2763403D01*
G01X8480981Y-2621389D02*
G01X8400984Y-2621389D01*
G01X8537026Y-2621437D02*
G01X8617024Y-2621437D01*
G01X8370009Y-2732375D02*
G01X8370009Y-2652370D01*
G01X8648002Y-2652423D02*
G01X8648002Y-2732425D01*
G01X8617019Y-2621437D02*
G02X8648002Y-2652423I0J-30983D01*
G01X8648002Y-2732420D02*
G02X8617019Y-2763403I-30983J0D01*
G01X8400989Y-2763357D02*
G02X8370009Y-2732375I3J30983D01*
G01X8370009Y-2652377D02*
G02X8400989Y-2621389I30983J5D01*
G01X8656157Y-2987119D02*
G01X8656157Y-3067116D01*
G01X8656203Y-2931074D02*
G01X8656203Y-2851076D01*
G01X8514189Y-2987119D02*
G01X8514189Y-3067116D01*
G01X8514237Y-2931074D02*
G01X8514237Y-2851076D01*
G01X8625175Y-3098091D02*
G01X8545170Y-3098091D01*
G01X8545223Y-2820098D02*
G01X8625225Y-2820098D01*
G01X8514237Y-2851081D02*
G02X8545223Y-2820098I30983J0D01*
G01X8625220Y-2820098D02*
G02X8656203Y-2851081I0J-30983D01*
G01X8656157Y-3067111D02*
G02X8625175Y-3098091I-30983J3D01*
G01X8545177Y-3098091D02*
G02X8514189Y-3067111I-5J30983D01*
G01X8990813Y-3322653D02*
G01X8990813Y-3402650D01*
G01X8990859Y-3266608D02*
G01X8990859Y-3186610D01*
G01X8848845Y-3322653D02*
G01X8848845Y-3402650D01*
G01X8848893Y-3266608D02*
G01X8848893Y-3186610D01*
G01X8959830Y-3433625D02*
G01X8879826Y-3433625D01*
G01X8879879Y-3155632D02*
G01X8959881Y-3155632D01*
G01X8848893Y-3186615D02*
G02X8879879Y-3155632I30983J0D01*
G01X8959876Y-3155632D02*
G02X8990859Y-3186615I0J-30983D01*
G01X8990813Y-3402645D02*
G02X8959830Y-3433625I-30983J3D01*
G01X8879833Y-3433625D02*
G02X8848845Y-3402645I-5J30983D01*
G01X8338657Y-2999819D02*
G01X8338657Y-3079816D01*
G01X8338703Y-2943774D02*
G01X8338703Y-2863776D01*
G01X8196689Y-2999819D02*
G01X8196689Y-3079816D01*
G01X8196737Y-2943774D02*
G01X8196737Y-2863776D01*
G01X8307675Y-3110791D02*
G01X8227670Y-3110791D01*
G01X8227723Y-2832798D02*
G01X8307725Y-2832798D01*
G01X8196737Y-2863781D02*
G02X8227723Y-2832798I30983J0D01*
G01X8307720Y-2832798D02*
G02X8338703Y-2863781I0J-30983D01*
G01X8338657Y-3079811D02*
G02X8307675Y-3110791I-30983J3D01*
G01X8227677Y-3110791D02*
G02X8196689Y-3079811I-5J30983D01*
G01X11418183Y-3109138D02*
G01X10356315Y-3109138D01*
G01X10208185Y-3709137D02*
G01X10208185Y-3232264D01*
G01X10300095Y-3709137D02*
G01X10208185Y-3709137D01*
G01X10700094Y-3709137D02*
G01X10496323Y-3709137D01*
G01X11000094Y-3709137D02*
G01X10896322Y-3709137D01*
G01X11418183Y-3709137D02*
G01X11196321Y-3709137D01*
G01X11618208Y-3159150D02*
G01X11418208Y-3159150D01*
G01X11418208Y-3659144D02*
G01X11618208Y-3659144D01*
G01X11618208Y-3659144D02*
G01X11618208Y-3159138D01*
G01X11418183Y-3709137D02*
G01X11418183Y-3109138D01*
G54D10*
G01X11326320Y-5071021D02*
G01X11051080Y-5071021D01*
G01X11051080Y-5071021D02*
G01X11051080Y-5046721D01*
G01X11326320Y-4885779D02*
G01X11051080Y-4885779D01*
G01X11051080Y-4885779D02*
G01X11051080Y-4910079D01*
G01X11285380Y-5071021D02*
G01X11285380Y-4885779D01*
G36*
G01X11318700Y-5078641D02*
G01X11318700Y-5041641D01*
G01X11349180Y-5041641D01*
G01X11349180Y-5078641D01*
G01X11318700Y-5078641D01*
G37*
G36*
G01X11318700Y-4878159D02*
G01X11318700Y-4915159D01*
G01X11349180Y-4915159D01*
G01X11349180Y-4878159D01*
G01X11318700Y-4878159D01*
G37*
G01X10950202Y-4447019D02*
G01X10930903Y-4447019D01*
G01X11116051Y-4446524D02*
G01X11096752Y-4446524D01*
G01X11116221Y-4722322D02*
G01X11096922Y-4722322D01*
G54D13*
G01X11021954Y-4584700D02*
G01X11072754Y-4533900D01*
G01X11072754Y-4533900D02*
G01X10971154Y-4533900D01*
G01X11021954Y-4584700D02*
G01X10971154Y-4533900D01*
G01X10996554Y-4584700D02*
G01X11047354Y-4584700D01*
G01X11021954Y-4584700D02*
G01X10971154Y-4635500D01*
G01X10971154Y-4635500D02*
G01X11072754Y-4635500D01*
G01X11021954Y-4584700D02*
G01X11072754Y-4635500D01*
G01X11072754Y-4584700D02*
G01X10971154Y-4584700D01*
G01X11021954Y-4508500D02*
G01X11021954Y-4660900D01*
G54D10*
G01X10930979Y-4447078D02*
G01X10930979Y-4722322D01*
G01X11116221Y-4447078D02*
G01X11116221Y-4722322D01*
G01X10930979Y-4722322D02*
G01X10950278Y-4722322D01*
G01X10404102Y-4180319D02*
G01X10384803Y-4180319D01*
G01X10569951Y-4179824D02*
G01X10550652Y-4179824D01*
G01X10570121Y-4455622D02*
G01X10550822Y-4455622D01*
G54D13*
G01X10475854Y-4318000D02*
G01X10526654Y-4267200D01*
G01X10526654Y-4267200D02*
G01X10425054Y-4267200D01*
G01X10475854Y-4318000D02*
G01X10425054Y-4267200D01*
G01X10450454Y-4318000D02*
G01X10501254Y-4318000D01*
G01X10475854Y-4318000D02*
G01X10425054Y-4368800D01*
G01X10425054Y-4368800D02*
G01X10526654Y-4368800D01*
G01X10475854Y-4318000D02*
G01X10526654Y-4368800D01*
G01X10526654Y-4318000D02*
G01X10425054Y-4318000D01*
G01X10475854Y-4241800D02*
G01X10475854Y-4394200D01*
G54D10*
G01X10384879Y-4180378D02*
G01X10384879Y-4455622D01*
G01X10570121Y-4180378D02*
G01X10570121Y-4455622D01*
G01X10384879Y-4455622D02*
G01X10404178Y-4455622D01*
G01X11427981Y-4117602D02*
G01X11427981Y-4098303D01*
G01X11428476Y-4283451D02*
G01X11428476Y-4264152D01*
G01X11152678Y-4283621D02*
G01X11152678Y-4264322D01*
G54D13*
G01X11290300Y-4189354D02*
G01X11341100Y-4240154D01*
G01X11341100Y-4240154D02*
G01X11341100Y-4138554D01*
G01X11290300Y-4189354D02*
G01X11341100Y-4138554D01*
G01X11290300Y-4163954D02*
G01X11290300Y-4214754D01*
G01X11290300Y-4189354D02*
G01X11239500Y-4138554D01*
G01X11239500Y-4138554D02*
G01X11239500Y-4240154D01*
G01X11290300Y-4189354D02*
G01X11239500Y-4240154D01*
G01X11290300Y-4240154D02*
G01X11290300Y-4138554D01*
G01X11366500Y-4189354D02*
G01X11214100Y-4189354D01*
G54D10*
G01X11427922Y-4098379D02*
G01X11152678Y-4098379D01*
G01X11427922Y-4283621D02*
G01X11152678Y-4283621D01*
G01X11152678Y-4098379D02*
G01X11152678Y-4117678D01*
G01X9813320Y-4419821D02*
G01X9643080Y-4419821D01*
G01X9813320Y-4114579D02*
G01X9643080Y-4114579D01*
G01X9643080Y-4219560D02*
G01X9643080Y-4314840D01*
G01X7312197Y-390944D02*
G01X7312197Y-220703D01*
G01X7617439Y-390944D02*
G01X7617439Y-220703D01*
G01X7512458Y-220703D02*
G01X7417178Y-220703D01*
G54D13*
G01X10915557Y-5347315D02*
G01X10914566Y-5347315D01*
G01X10914566Y-5347315D02*
G01X10881556Y-5314312D01*
G01X10915557Y-5279311D02*
G01X10915557Y-5280312D01*
G01X10915557Y-5280312D02*
G01X10881556Y-5314312D01*
G01X10915557Y-5279311D02*
G01X10915557Y-5347315D01*
G01X10917561Y-5239309D02*
G01X11032567Y-5239309D01*
G01X10917561Y-5389321D02*
G01X11032567Y-5389321D01*
G01X11032567Y-5239314D02*
G01X11032567Y-5387312D01*
G01X10879560Y-5389550D02*
G01X10774549Y-5389550D01*
G01X10744554Y-5349540D02*
G01X10744554Y-5359542D01*
G01X10744554Y-5359542D02*
G01X10774549Y-5389550D01*
G01X10744554Y-5279547D02*
G01X10744554Y-5349540D01*
G01X10744554Y-5279547D02*
G01X10744554Y-5269532D01*
G01X10744554Y-5269532D02*
G01X10774549Y-5239537D01*
G01X10879560Y-5239537D02*
G01X10774549Y-5239537D01*
G01X10915557Y-5314312D02*
G01X10881556Y-5314312D01*
G01X6861360Y-4069745D02*
G01X6862351Y-4069745D01*
G01X6862351Y-4069745D02*
G01X6895361Y-4102748D01*
G01X6861360Y-4137749D02*
G01X6861360Y-4136748D01*
G01X6861360Y-4136748D02*
G01X6895361Y-4102748D01*
G01X6861360Y-4137749D02*
G01X6861360Y-4069745D01*
G01X6859356Y-4177751D02*
G01X6744350Y-4177751D01*
G01X6859356Y-4027739D02*
G01X6744350Y-4027739D01*
G01X6744350Y-4177746D02*
G01X6744350Y-4029748D01*
G01X6897357Y-4027510D02*
G01X7002369Y-4027510D01*
G01X7032363Y-4067520D02*
G01X7032363Y-4057518D01*
G01X7032363Y-4057518D02*
G01X7002369Y-4027510D01*
G01X7032363Y-4137513D02*
G01X7032363Y-4067520D01*
G01X7032363Y-4137513D02*
G01X7032363Y-4147528D01*
G01X7032363Y-4147528D02*
G01X7002369Y-4177523D01*
G01X6897357Y-4177523D02*
G01X7002369Y-4177523D01*
G01X6861360Y-4102748D02*
G01X6895361Y-4102748D01*
G54D10*
G01X6601440Y-2049221D02*
G01X6601440Y-2145109D01*
G01X6601440Y-2145109D02*
G01X6733560Y-2145109D01*
G01X6733560Y-2145109D02*
G01X6733560Y-2049221D01*
G01X6601440Y-1963979D02*
G01X6601440Y-1868091D01*
G01X6601440Y-1868091D02*
G01X6733560Y-1868091D01*
G01X6733560Y-1868091D02*
G01X6733560Y-1963979D01*
G01X6436340Y-2049221D02*
G01X6436340Y-2145109D01*
G01X6436340Y-2145109D02*
G01X6568460Y-2145109D01*
G01X6568460Y-2145109D02*
G01X6568460Y-2049221D01*
G01X6436340Y-1963979D02*
G01X6436340Y-1868091D01*
G01X6436340Y-1868091D02*
G01X6568460Y-1868091D01*
G01X6568460Y-1868091D02*
G01X6568460Y-1963979D01*
G01X10368156Y-2077126D02*
G01X10368156Y-1981238D01*
G01X10368156Y-1981238D02*
G01X10236036Y-1981238D01*
G01X10236036Y-1981238D02*
G01X10236036Y-2077126D01*
G01X10368156Y-2162368D02*
G01X10368156Y-2258256D01*
G01X10368156Y-2258256D02*
G01X10236036Y-2258256D01*
G01X10236036Y-2258256D02*
G01X10236036Y-2162368D01*
G01X10335240Y-2582621D02*
G01X10335240Y-2678509D01*
G01X10335240Y-2678509D02*
G01X10467360Y-2678509D01*
G01X10467360Y-2678509D02*
G01X10467360Y-2582621D01*
G01X10335240Y-2497379D02*
G01X10335240Y-2401491D01*
G01X10335240Y-2401491D02*
G01X10467360Y-2401491D01*
G01X10467360Y-2401491D02*
G01X10467360Y-2497379D01*
G01X11209579Y-5242540D02*
G01X11113691Y-5242540D01*
G01X11113691Y-5242540D02*
G01X11113691Y-5374660D01*
G01X11113691Y-5374660D02*
G01X11209579Y-5374660D01*
G01X11294821Y-5242540D02*
G01X11390709Y-5242540D01*
G01X11390709Y-5242540D02*
G01X11390709Y-5374660D01*
G01X11390709Y-5374660D02*
G01X11294821Y-5374660D01*
G01X6763016Y-3822763D02*
G01X6858904Y-3822763D01*
G01X6858904Y-3822763D02*
G01X6858904Y-3690643D01*
G01X6858904Y-3690643D02*
G01X6763016Y-3690643D01*
G01X6677774Y-3822763D02*
G01X6581886Y-3822763D01*
G01X6581886Y-3822763D02*
G01X6581886Y-3690643D01*
G01X6581886Y-3690643D02*
G01X6677774Y-3690643D01*
G01X5120660Y-922579D02*
G01X5120660Y-826691D01*
G01X5120660Y-826691D02*
G01X4988540Y-826691D01*
G01X4988540Y-826691D02*
G01X4988540Y-922579D01*
G01X5120660Y-1007821D02*
G01X5120660Y-1103709D01*
G01X5120660Y-1103709D02*
G01X4988540Y-1103709D01*
G01X4988540Y-1103709D02*
G01X4988540Y-1007821D01*
G01X4789705Y-928129D02*
G01X4789705Y-832241D01*
G01X4789705Y-832241D02*
G01X4657585Y-832241D01*
G01X4657585Y-832241D02*
G01X4657585Y-928129D01*
G01X4789705Y-1013371D02*
G01X4789705Y-1109259D01*
G01X4789705Y-1109259D02*
G01X4657585Y-1109259D01*
G01X4657585Y-1109259D02*
G01X4657585Y-1013371D01*
G01X6668286Y-368031D02*
G01X6572398Y-368031D01*
G01X6572398Y-368031D02*
G01X6572398Y-500151D01*
G01X6572398Y-500151D02*
G01X6668286Y-500151D01*
G01X6753528Y-368031D02*
G01X6849416Y-368031D01*
G01X6849416Y-368031D02*
G01X6849416Y-500151D01*
G01X6849416Y-500151D02*
G01X6753528Y-500151D01*
G01X6370879Y-365740D02*
G01X6274991Y-365740D01*
G01X6274991Y-365740D02*
G01X6274991Y-497860D01*
G01X6274991Y-497860D02*
G01X6370879Y-497860D01*
G01X6456121Y-365740D02*
G01X6552009Y-365740D01*
G01X6552009Y-365740D02*
G01X6552009Y-497860D01*
G01X6552009Y-497860D02*
G01X6456121Y-497860D01*
G01X7198340Y-1553921D02*
G01X7198340Y-1649809D01*
G01X7198340Y-1649809D02*
G01X7330460Y-1649809D01*
G01X7330460Y-1649809D02*
G01X7330460Y-1553921D01*
G01X7198340Y-1468679D02*
G01X7198340Y-1372791D01*
G01X7198340Y-1372791D02*
G01X7330460Y-1372791D01*
G01X7330460Y-1372791D02*
G01X7330460Y-1468679D01*
G01X7376140Y-1553921D02*
G01X7376140Y-1649809D01*
G01X7376140Y-1649809D02*
G01X7508260Y-1649809D01*
G01X7508260Y-1649809D02*
G01X7508260Y-1553921D01*
G01X7376140Y-1468679D02*
G01X7376140Y-1372791D01*
G01X7376140Y-1372791D02*
G01X7508260Y-1372791D01*
G01X7508260Y-1372791D02*
G01X7508260Y-1468679D01*
G01X7303707Y-1323071D02*
G01X7399595Y-1323071D01*
G01X7399595Y-1323071D02*
G01X7399595Y-1190950D01*
G01X7399595Y-1190950D02*
G01X7303707Y-1190950D01*
G01X7218465Y-1323071D02*
G01X7122577Y-1323071D01*
G01X7122577Y-1323071D02*
G01X7122577Y-1190950D01*
G01X7122577Y-1190950D02*
G01X7218465Y-1190950D01*
G01X7087807Y-4543031D02*
G01X7183695Y-4543031D01*
G01X7183695Y-4543031D02*
G01X7183695Y-4410911D01*
G01X7183695Y-4410911D02*
G01X7087807Y-4410911D01*
G01X7002565Y-4543031D02*
G01X6906677Y-4543031D01*
G01X6906677Y-4543031D02*
G01X6906677Y-4410911D01*
G01X6906677Y-4410911D02*
G01X7002565Y-4410911D01*
G54D12*
G01X7728598Y-4737885D02*
G01X7728598Y-4699000D01*
G01X7728598Y-4953000D02*
G01X7728598Y-4914115D01*
G01X7093598Y-4741286D02*
G01X7093598Y-4699000D01*
G01X7093598Y-4953000D02*
G01X7093598Y-4910714D01*
G01X7728598Y-4953000D02*
G01X7093598Y-4953000D01*
G01X7093598Y-4699000D02*
G01X7728598Y-4699000D01*
G01X7169798Y-4749800D02*
G01X7652398Y-4749800D01*
G01X7652398Y-4749800D02*
G01X7652398Y-4902200D01*
G01X7652398Y-4902200D02*
G01X7169798Y-4902200D01*
G01X7169798Y-4902200D02*
G01X7169798Y-4749800D01*
G01X7576198Y-4749800D02*
G01X7474598Y-4902200D01*
G01X7474598Y-4902200D02*
G01X7474598Y-4749800D01*
G01X7601598Y-4902200D02*
G01X7601598Y-4749800D01*
G01X7474598Y-4826000D02*
G01X7525398Y-4749800D01*
G01X7525398Y-4902200D02*
G01X7601598Y-4800600D01*
G54D14*
G01X6888249Y-1629219D02*
G01X6937820Y-1579649D01*
G54D10*
G01X6472151Y-1629219D02*
G01X6422581Y-1629219D01*
G01X6422581Y-1629219D02*
G01X6422581Y-1579649D01*
G01X6472151Y-1113980D02*
G01X6422581Y-1113980D01*
G01X6422581Y-1113980D02*
G01X6422581Y-1163551D01*
G01X6888249Y-1629219D02*
G01X6937820Y-1629219D01*
G01X6937820Y-1629219D02*
G01X6937820Y-1579649D01*
G01X6888249Y-1113980D02*
G01X6937820Y-1113980D01*
G01X6937820Y-1113980D02*
G01X6937820Y-1163551D01*
G36*
G01X6890200Y-1629219D02*
G01X6890200Y-1627269D01*
G01X6937820Y-1579649D01*
G01X6937820Y-1621599D01*
G01X6890200Y-1629219D01*
G37*
G01X8103260Y-3159879D02*
G01X8457540Y-3159879D01*
G01X8457540Y-3159879D02*
G01X8457540Y-3825121D01*
G01X8457540Y-3825121D02*
G01X8103260Y-3825121D01*
G01X8103260Y-3825121D02*
G01X8103260Y-3159879D01*
G01X9948842Y-4836279D02*
G01X9948842Y-5501521D01*
G01X9948842Y-5501521D02*
G01X9654563Y-5501521D01*
G01X9654563Y-5501521D02*
G01X9654563Y-4836279D01*
G01X9654563Y-4836279D02*
G01X9948842Y-4836279D01*
G54D15*
G01X9926096Y-3531103D02*
G01X9926096Y-3576086D01*
G01X9926096Y-3576086D02*
G01X9881113Y-3576086D01*
G01X9626097Y-3576086D02*
G01X9581114Y-3576086D01*
G01X9581114Y-3576086D02*
G01X9581114Y-3531103D01*
G01X9581114Y-3276087D02*
G01X9581114Y-3231104D01*
G01X9581114Y-3231104D02*
G01X9626097Y-3231104D01*
G01X9926096Y-3276087D02*
G01X9926096Y-3231104D01*
G01X9926096Y-3231104D02*
G01X9881113Y-3231104D01*
G54D17*
G01X9601205Y-3611113D02*
G03X9601332Y-3641115I127J-15001D01*
G03X9601459Y-3611113I0J15001D01*
G54D12*
G01X11173871Y-2796398D02*
G01X10987580Y-2796398D01*
G01X11545710Y-1902399D02*
G01X11545710Y-2796398D01*
G01X11545710Y-2796398D02*
G01X11397579Y-2796398D01*
G01X11173907Y-1902399D02*
G01X10987545Y-1902399D01*
G01X11545710Y-1902399D02*
G01X11397544Y-1902399D01*
G01X6917101Y-38100D02*
G01X6917101Y-292100D01*
G01X5859099Y-38100D02*
G01X6917101Y-38100D01*
G01X6136452Y-38100D02*
G01X6136452Y-292100D01*
G01X5859099Y-292100D02*
G01X6917101Y-292100D01*
G01X5859099Y-38100D02*
G01X5859099Y-292100D01*

G04 Circle Start*
G54D17*
G01X9827489Y-4432300D02*
G03X9857511Y-4432300I15011J0D01*
G03X9827489Y-4432300I-15011J0D01*
G01X7284707Y-420124D02*
G03X7314730Y-420124I15011J0D01*
G03X7284707Y-420124I-15011J0D01*
G54D15*
G01X6960184Y-1601597D02*
G03X6980199Y-1601597I10008J0D01*
G03X6960184Y-1601597I-10008J0D01*
G54D17*
G01X8163484Y-3199994D02*
G03X8193507Y-3199994I15011J0D01*
G03X8163484Y-3199994I-15011J0D01*
G01X7978292Y-3136570D02*
G03X8008315Y-3136570I15011J0D01*
G03X7978292Y-3136570I-15011J0D01*
G04 Circle End*

M02*

