G04 Layer: TopLayer*
G04 EasyEDA Pro v2.2.46.11, 2026-03-30 20:28:27*
G04 Gerber Generator version 0.3*
G04 Scale: 100 percent, Rotated: No, Reflected: No*
G04 Dimensions in millimeters*
G04 Leading zeros omitted, absolute positions, 4 integers and 5 decimals*
G04 Generated by one-click*
%FSLAX45Y45*%
%MOMM*%
%AMPolygonMacro1*4,1,8,0.64994,0.00001,0.65009,0.00001,0.65009,-0.29999,-0.64994,-0.29999,-0.64994,-0.00001,-0.65009,-0.00001,-0.65009,0.29999,0.64994,0.29999,0.64994,0.00001,0*%
%AMPolygonMacro2*4,1,8,-0.64999,-0.00001,-0.64999,0.00001,-0.64999,0.30001,0.64999,0.30001,0.64999,0.00001,0.64999,-0.00001,0.64999,-0.30001,-0.64999,-0.30001,-0.64999,-0.00001,0*%
%AMPolygonMacro3*4,1,8,0.64999,0.00001,0.64999,-0.00001,0.64999,-0.30001,-0.64999,-0.30001,-0.64999,-0.00001,-0.64999,0.00001,-0.64999,0.30001,0.64999,0.30001,0.64999,0.00001,0*%
%AMPolygonMacro4*4,1,8,0.64997,0.00004,0.65,0.00004,0.65,-0.29999,-0.64997,-0.29999,-0.64997,-0.00004,-0.65,-0.00004,-0.65,0.29999,0.64997,0.29999,0.64997,0.00004,0*%
%ADD10C,0.2032*%
%ADD11R,0.8X0.9*%
%ADD12R,0.9X0.8*%
%ADD13R,1.5X2.99999*%
%ADD14R,0.91001X1.21999*%
%ADD15R,1.2X1.4*%
%ADD16R,1.4X1.2*%
%ADD17R,1.1665X0.48999*%
%ADD18R,1.157X0.48999*%
%ADD19R,1.175X0.48999*%
%ADD20R,0.48999X1.157*%
%ADD21R,0.48999X1.175*%
%ADD22R,0.8X0.8*%
%ADD23R,0.86401X0.80648*%
%ADD24R,0.80648X0.86401*%
%ADD25R,2.3X1.3*%
%ADD26R,0.65001X0.28001*%
%ADD27R,0.28001X0.65001*%
%ADD28R,3.79999X3.79999*%
%ADD29O,1.74201X0.36401*%
%ADD30R,2.49999X1.1*%
%ADD31R,2.34X3.59999*%
%ADD32R,0.28001X0.8*%
%ADD33R,0.8X0.28001*%
%ADD34R,1.6X1.6*%
%ADD35R,1.3X0.3*%
%ADD36PolygonMacro1*%
%ADD37PolygonMacro2*%
%ADD38PolygonMacro3*%
%ADD39PolygonMacro4*%
%ADD40O,1.8X1.2*%
%ADD41O,2.0X1.2*%
%ADD42R,1.7X1.7*%
%ADD43C,1.7*%
%ADD44C,0.61*%
%ADD45C,0.254*%
G75*


G04 Text Start*
G54D10*
G01X9718040Y-83820D02*
G01X9718040Y-203962D01*
G01X9718040Y-140970D02*
G01X9706610Y-129540D01*
G01X9695180Y-123952D01*
G01X9678162Y-123952D01*
G01X9666732Y-129540D01*
G01X9655302Y-140970D01*
G01X9649460Y-158242D01*
G01X9649460Y-169672D01*
G01X9655302Y-186690D01*
G01X9666732Y-198120D01*
G01X9678162Y-203962D01*
G01X9695180Y-203962D01*
G01X9706610Y-198120D01*
G01X9718040Y-186690D01*
G01X9765792Y-158242D02*
G01X9834372Y-158242D01*
G01X9834372Y-146812D01*
G01X9828784Y-135382D01*
G01X9822942Y-129540D01*
G01X9811512Y-123952D01*
G01X9794494Y-123952D01*
G01X9783064Y-129540D01*
G01X9771634Y-140970D01*
G01X9765792Y-158242D01*
G01X9765792Y-169672D01*
G01X9771634Y-186690D01*
G01X9783064Y-198120D01*
G01X9794494Y-203962D01*
G01X9811512Y-203962D01*
G01X9822942Y-198120D01*
G01X9834372Y-186690D01*
G01X9945116Y-140970D02*
G01X9939274Y-129540D01*
G01X9922256Y-123952D01*
G01X9904984Y-123952D01*
G01X9887966Y-129540D01*
G01X9882124Y-140970D01*
G01X9887966Y-152400D01*
G01X9899396Y-158242D01*
G01X9927844Y-163830D01*
G01X9939274Y-169672D01*
G01X9945116Y-181102D01*
G01X9945116Y-186690D01*
G01X9939274Y-198120D01*
G01X9922256Y-203962D01*
G01X9904984Y-203962D01*
G01X9887966Y-198120D01*
G01X9882124Y-186690D01*
G01X9992868Y-83820D02*
G01X9998710Y-89662D01*
G01X10004298Y-83820D01*
G01X9998710Y-78232D01*
G01X9992868Y-83820D01*
G01X9998710Y-123952D02*
G01X9998710Y-203962D01*
G01X10120630Y-123952D02*
G01X10120630Y-215392D01*
G01X10115042Y-232410D01*
G01X10109200Y-238252D01*
G01X10097770Y-243840D01*
G01X10080752Y-243840D01*
G01X10069322Y-238252D01*
G01X10120630Y-140970D02*
G01X10109200Y-129540D01*
G01X10097770Y-123952D01*
G01X10080752Y-123952D01*
G01X10069322Y-129540D01*
G01X10057892Y-140970D01*
G01X10052050Y-158242D01*
G01X10052050Y-169672D01*
G01X10057892Y-186690D01*
G01X10069322Y-198120D01*
G01X10080752Y-203962D01*
G01X10097770Y-203962D01*
G01X10109200Y-198120D01*
G01X10120630Y-186690D01*
G01X10168382Y-123952D02*
G01X10168382Y-203962D01*
G01X10168382Y-146812D02*
G01X10185654Y-129540D01*
G01X10197084Y-123952D01*
G01X10214102Y-123952D01*
G01X10225532Y-129540D01*
G01X10231374Y-146812D01*
G01X10231374Y-203962D01*
G01X10279126Y-158242D02*
G01X10347706Y-158242D01*
G01X10347706Y-146812D01*
G01X10342118Y-135382D01*
G01X10336276Y-129540D01*
G01X10324846Y-123952D01*
G01X10307828Y-123952D01*
G01X10296398Y-129540D01*
G01X10284968Y-140970D01*
G01X10279126Y-158242D01*
G01X10279126Y-169672D01*
G01X10284968Y-186690D01*
G01X10296398Y-198120D01*
G01X10307828Y-203962D01*
G01X10324846Y-203962D01*
G01X10336276Y-198120D01*
G01X10347706Y-186690D01*
G01X10464038Y-83820D02*
G01X10464038Y-203962D01*
G01X10464038Y-140970D02*
G01X10452608Y-129540D01*
G01X10441178Y-123952D01*
G01X10424160Y-123952D01*
G01X10412730Y-129540D01*
G01X10401300Y-140970D01*
G01X10395458Y-158242D01*
G01X10395458Y-169672D01*
G01X10401300Y-186690D01*
G01X10412730Y-198120D01*
G01X10424160Y-203962D01*
G01X10441178Y-203962D01*
G01X10452608Y-198120D01*
G01X10464038Y-186690D01*
G01X10639806Y-83820D02*
G01X10639806Y-203962D01*
G01X10639806Y-140970D02*
G01X10651236Y-129540D01*
G01X10662666Y-123952D01*
G01X10679938Y-123952D01*
G01X10691368Y-129540D01*
G01X10702798Y-140970D01*
G01X10708386Y-158242D01*
G01X10708386Y-169672D01*
G01X10702798Y-186690D01*
G01X10691368Y-198120D01*
G01X10679938Y-203962D01*
G01X10662666Y-203962D01*
G01X10651236Y-198120D01*
G01X10639806Y-186690D01*
G01X10761980Y-123952D02*
G01X10796270Y-203962D01*
G01X10830560Y-123952D02*
G01X10796270Y-203962D01*
G01X10784840Y-226822D01*
G01X10773410Y-238252D01*
G01X10761980Y-243840D01*
G01X10756138Y-243840D01*
G01X11006328Y-83820D02*
G01X11006328Y-203962D01*
G01X11006328Y-83820D02*
G01X11080750Y-83820D01*
G01X11006328Y-140970D02*
G01X11052048Y-140970D01*
G01X11128502Y-158242D02*
G01X11197082Y-158242D01*
G01X11197082Y-146812D01*
G01X11191494Y-135382D01*
G01X11185652Y-129540D01*
G01X11174222Y-123952D01*
G01X11157204Y-123952D01*
G01X11145774Y-129540D01*
G01X11134344Y-140970D01*
G01X11128502Y-158242D01*
G01X11128502Y-169672D01*
G01X11134344Y-186690D01*
G01X11145774Y-198120D01*
G01X11157204Y-203962D01*
G01X11174222Y-203962D01*
G01X11185652Y-198120D01*
G01X11197082Y-186690D01*
G01X11244834Y-83820D02*
G01X11244834Y-203962D01*
G01X11292586Y-83820D02*
G01X11298428Y-89662D01*
G01X11304016Y-83820D01*
G01X11298428Y-78232D01*
G01X11292586Y-83820D01*
G01X11298428Y-123952D02*
G01X11298428Y-203962D01*
G01X11351768Y-123952D02*
G01X11414760Y-203962D01*
G01X11414760Y-123952D02*
G01X11351768Y-203962D01*
G01X9649460Y-287020D02*
G01X9649460Y-407162D01*
G01X9649460Y-350012D02*
G01X9666732Y-332740D01*
G01X9678162Y-327152D01*
G01X9695180Y-327152D01*
G01X9706610Y-332740D01*
G01X9712452Y-350012D01*
G01X9712452Y-407162D01*
G01X9777476Y-287020D02*
G01X9777476Y-384302D01*
G01X9783064Y-401320D01*
G01X9794494Y-407162D01*
G01X9805924Y-407162D01*
G01X9760204Y-327152D02*
G01X9800336Y-327152D01*
G01X9870948Y-287020D02*
G01X9870948Y-384302D01*
G01X9876536Y-401320D01*
G01X9887966Y-407162D01*
G01X9899396Y-407162D01*
G01X9853676Y-327152D02*
G01X9893808Y-327152D01*
G01X9947148Y-327152D02*
G01X9947148Y-447040D01*
G01X9947148Y-344170D02*
G01X9958578Y-332740D01*
G01X9970008Y-327152D01*
G01X9987280Y-327152D01*
G01X9998710Y-332740D01*
G01X10010140Y-344170D01*
G01X10015728Y-361442D01*
G01X10015728Y-372872D01*
G01X10010140Y-389890D01*
G01X9998710Y-401320D01*
G01X9987280Y-407162D01*
G01X9970008Y-407162D01*
G01X9958578Y-401320D01*
G01X9947148Y-389890D01*
G01X10126472Y-344170D02*
G01X10120630Y-332740D01*
G01X10103612Y-327152D01*
G01X10086340Y-327152D01*
G01X10069322Y-332740D01*
G01X10063480Y-344170D01*
G01X10069322Y-355600D01*
G01X10080752Y-361442D01*
G01X10109200Y-367030D01*
G01X10120630Y-372872D01*
G01X10126472Y-384302D01*
G01X10126472Y-389890D01*
G01X10120630Y-401320D01*
G01X10103612Y-407162D01*
G01X10086340Y-407162D01*
G01X10069322Y-401320D01*
G01X10063480Y-389890D01*
G01X10180066Y-338582D02*
G01X10174224Y-344170D01*
G01X10180066Y-350012D01*
G01X10185654Y-344170D01*
G01X10180066Y-338582D01*
G01X10180066Y-378460D02*
G01X10174224Y-384302D01*
G01X10180066Y-389890D01*
G01X10185654Y-384302D01*
G01X10180066Y-378460D01*
G01X10336276Y-264160D02*
G01X10233406Y-447040D01*
G01X10486898Y-264160D02*
G01X10384028Y-447040D01*
G01X10580370Y-287020D02*
G01X10568940Y-287020D01*
G01X10557510Y-292862D01*
G01X10551922Y-309880D01*
G01X10551922Y-407162D01*
G01X10534650Y-327152D02*
G01X10574782Y-327152D01*
G01X10628122Y-361442D02*
G01X10696702Y-361442D01*
G01X10696702Y-350012D01*
G01X10691114Y-338582D01*
G01X10685272Y-332740D01*
G01X10673842Y-327152D01*
G01X10656824Y-327152D01*
G01X10645394Y-332740D01*
G01X10633964Y-344170D01*
G01X10628122Y-361442D01*
G01X10628122Y-372872D01*
G01X10633964Y-389890D01*
G01X10645394Y-401320D01*
G01X10656824Y-407162D01*
G01X10673842Y-407162D01*
G01X10685272Y-401320D01*
G01X10696702Y-389890D01*
G01X10744454Y-287020D02*
G01X10744454Y-407162D01*
G01X10792206Y-287020D02*
G01X10798048Y-292862D01*
G01X10803636Y-287020D01*
G01X10798048Y-281432D01*
G01X10792206Y-287020D01*
G01X10798048Y-327152D02*
G01X10798048Y-407162D01*
G01X10851388Y-327152D02*
G01X10914380Y-407162D01*
G01X10914380Y-327152D02*
G01X10851388Y-407162D01*
G01X10967974Y-378460D02*
G01X10962132Y-384302D01*
G01X10967974Y-389890D01*
G01X10973562Y-384302D01*
G01X10967974Y-378460D01*
G01X11021314Y-287020D02*
G01X11027156Y-292862D01*
G01X11032744Y-287020D01*
G01X11027156Y-281432D01*
G01X11021314Y-287020D01*
G01X11027156Y-327152D02*
G01X11027156Y-407162D01*
G01X11080496Y-327152D02*
G01X11080496Y-407162D01*
G01X11080496Y-350012D02*
G01X11097768Y-332740D01*
G01X11109198Y-327152D01*
G01X11126216Y-327152D01*
G01X11137646Y-332740D01*
G01X11143488Y-350012D01*
G01X11143488Y-407162D01*
G01X11191240Y-287020D02*
G01X11191240Y-407162D01*
G01X11248390Y-327152D02*
G01X11191240Y-384302D01*
G01X11214100Y-361442D02*
G01X11254232Y-407162D01*
G36*
G01X6818591Y-2728268D02*
G01X6818284Y-2728037D01*
G01X6816436Y-2726806D01*
G01X6813973Y-2725574D01*
G01X6811818Y-2724343D01*
G01X6809355Y-2722803D01*
G01X6806584Y-2720956D01*
G01X6804429Y-2719416D01*
G01X6801350Y-2716953D01*
G01X6799195Y-2715414D01*
G01X6797040Y-2713567D01*
G01X6792422Y-2708949D01*
G01X6789959Y-2705870D01*
G01X6787804Y-2703714D01*
G01X6784109Y-2698789D01*
G01X6781954Y-2695710D01*
G01X6780414Y-2693247D01*
G01X6779183Y-2691091D01*
G01X6777644Y-2688321D01*
G01X6776104Y-2685857D01*
G01X6774257Y-2681547D01*
G01X6773026Y-2679084D01*
G01X6769331Y-2668924D01*
G01X6768407Y-2666153D01*
G01X6767176Y-2660611D01*
G01X6765944Y-2654454D01*
G01X6765329Y-2650144D01*
G01X6764713Y-2642139D01*
G01X6764405Y-2635981D01*
G01X6764713Y-2629824D01*
G01X6765021Y-2627669D01*
G01X6765329Y-2623666D01*
G01X6765944Y-2619356D01*
G01X6766560Y-2615661D01*
G01X6767791Y-2609504D01*
G01X6768715Y-2606117D01*
G01X6769639Y-2603346D01*
G01X6770563Y-2600267D01*
G01X6774257Y-2591031D01*
G01X6776720Y-2586105D01*
G01X6779183Y-2581794D01*
G01X6780723Y-2579024D01*
G01X6782570Y-2576253D01*
G01X6787188Y-2569787D01*
G01X6789035Y-2567632D01*
G01X6790883Y-2565169D01*
G01X6798579Y-2557472D01*
G01X6801658Y-2555009D01*
G01X6806584Y-2551314D01*
G01X6811510Y-2548236D01*
G01X6815821Y-2545773D01*
G01X6817976Y-2544849D01*
G01X6818899Y-2545080D01*
G01X6819207Y-2546389D01*
G01X6818823Y-2548005D01*
G01X6817668Y-2549159D01*
G01X6814897Y-2551007D01*
G01X6812742Y-2552238D01*
G01X6811203Y-2553470D01*
G01X6806892Y-2557164D01*
G01X6803813Y-2560243D01*
G01X6800119Y-2564861D01*
G01X6797656Y-2568556D01*
G01X6796424Y-2570711D01*
G01X6793961Y-2575637D01*
G01X6792730Y-2578408D01*
G01X6791498Y-2581487D01*
G01X6790267Y-2585181D01*
G01X6789035Y-2589184D01*
G01X6788111Y-2592263D01*
G01X6786880Y-2597804D01*
G01X6785649Y-2604577D01*
G01X6784417Y-2614430D01*
G01X6783801Y-2622434D01*
G01X6783493Y-2633518D01*
G01X6783801Y-2644602D01*
G01X6784417Y-2653838D01*
G01X6785033Y-2659380D01*
G01X6785649Y-2664306D01*
G01X6786880Y-2671695D01*
G01X6787496Y-2675082D01*
G01X6788419Y-2679700D01*
G01X6789343Y-2682779D01*
G01X6789959Y-2685550D01*
G01X6790883Y-2688629D01*
G01X6792730Y-2693554D01*
G01X6793961Y-2696326D01*
G01X6795501Y-2699404D01*
G01X6797348Y-2702483D01*
G01X6799195Y-2705254D01*
G01X6800734Y-2707409D01*
G01X6801966Y-2708949D01*
G01X6803197Y-2710796D01*
G01X6804737Y-2712643D01*
G01X6810894Y-2718801D01*
G01X6815513Y-2722495D01*
G01X6817360Y-2723727D01*
G01X6818899Y-2725574D01*
G01X6818899Y-2727729D01*
G01X6818591Y-2728268D01*
G37*
G36*
G01X6828983Y-2618894D02*
G01X6828136Y-2618432D01*
G01X6829367Y-2616277D01*
G01X6851534Y-2579331D01*
G01X6854613Y-2574406D01*
G01X6869391Y-2549775D01*
G01X6870469Y-2548621D01*
G01X6871854Y-2548236D01*
G01X6873163Y-2548544D01*
G01X6874010Y-2549467D01*
G01X6875549Y-2552238D01*
G01X6881091Y-2561474D01*
G01X6882630Y-2563937D01*
G01X6883862Y-2566093D01*
G01X6885401Y-2568864D01*
G01X6892790Y-2581179D01*
G01X6894330Y-2583642D01*
G01X6895561Y-2585797D01*
G01X6897101Y-2588568D01*
G01X6902643Y-2597804D01*
G01X6904182Y-2600267D01*
G01X6905413Y-2602423D01*
G01X6906953Y-2605193D01*
G01X6915266Y-2619048D01*
G01X6910955Y-2619048D01*
G01X6906029Y-2618432D01*
G01X6904797Y-2616893D01*
G01X6903566Y-2614737D01*
G01X6902027Y-2611967D01*
G01X6879859Y-2575021D01*
G01X6878320Y-2572558D01*
G01X6877089Y-2570403D01*
G01X6875549Y-2567632D01*
G01X6873702Y-2564553D01*
G01X6872163Y-2562090D01*
G01X6871547Y-2561551D01*
G01X6870931Y-2561783D01*
G01X6869391Y-2563937D01*
G01X6865697Y-2570095D01*
G01X6864157Y-2572558D01*
G01X6862926Y-2574713D01*
G01X6861387Y-2577484D01*
G01X6837372Y-2617509D01*
G01X6835602Y-2618663D01*
G01X6832138Y-2619048D01*
G01X6828983Y-2618894D01*
G37*
G36*
G01X7409873Y-2728114D02*
G01X7409411Y-2727113D01*
G01X7409488Y-2725728D01*
G01X7410334Y-2724650D01*
G01X7412490Y-2723111D01*
G01X7414337Y-2722187D01*
G01X7418955Y-2718493D01*
G01X7425729Y-2711719D01*
G01X7427576Y-2709256D01*
G01X7428807Y-2707717D01*
G01X7430039Y-2705870D01*
G01X7431578Y-2703407D01*
G01X7433117Y-2700636D01*
G01X7435581Y-2695710D01*
G01X7436812Y-2692323D01*
G01X7440199Y-2682163D01*
G01X7441430Y-2676621D01*
G01X7442662Y-2669848D01*
G01X7443277Y-2665537D01*
G01X7443893Y-2660611D01*
G01X7444509Y-2653223D01*
G01X7444817Y-2639060D01*
G01X7444509Y-2624897D01*
G01X7443893Y-2616893D01*
G01X7443277Y-2611351D01*
G01X7442662Y-2607041D01*
G01X7441430Y-2599651D01*
G01X7440814Y-2596573D01*
G01X7439891Y-2592263D01*
G01X7438967Y-2589184D01*
G01X7438351Y-2586721D01*
G01X7437428Y-2583642D01*
G01X7434965Y-2577484D01*
G01X7433733Y-2575021D01*
G01X7432502Y-2572866D01*
G01X7430963Y-2570403D01*
G01X7429115Y-2567632D01*
G01X7426036Y-2563322D01*
G01X7422342Y-2559011D01*
G01X7420187Y-2556856D01*
G01X7418339Y-2555317D01*
G01X7416184Y-2553162D01*
G01X7413721Y-2551314D01*
G01X7412182Y-2550083D01*
G01X7410643Y-2549159D01*
G01X7409411Y-2547620D01*
G01X7409411Y-2545465D01*
G01X7409873Y-2544926D01*
G01X7410643Y-2545157D01*
G01X7416184Y-2547928D01*
G01X7418955Y-2549775D01*
G01X7421418Y-2551314D01*
G01X7424189Y-2553162D01*
G01X7427268Y-2555625D01*
G01X7429731Y-2557472D01*
G01X7431270Y-2559011D01*
G01X7434349Y-2561474D01*
G01X7436812Y-2564553D01*
G01X7438351Y-2566093D01*
G01X7440814Y-2569171D01*
G01X7442662Y-2571327D01*
G01X7444201Y-2573482D01*
G01X7445125Y-2575021D01*
G01X7446356Y-2576561D01*
G01X7447896Y-2578716D01*
G01X7451590Y-2585181D01*
G01X7452514Y-2587029D01*
G01X7453437Y-2589184D01*
G01X7454669Y-2591647D01*
G01X7455901Y-2594417D01*
G01X7457748Y-2599344D01*
G01X7459595Y-2604886D01*
G01X7460519Y-2607964D01*
G01X7462366Y-2616277D01*
G01X7463597Y-2624897D01*
G01X7463906Y-2635057D01*
G01X7463597Y-2645217D01*
G01X7463290Y-2647373D01*
G01X7462982Y-2650759D01*
G01X7461750Y-2658149D01*
G01X7460827Y-2662459D01*
G01X7459903Y-2665537D01*
G01X7459287Y-2668001D01*
G01X7458364Y-2671387D01*
G01X7457132Y-2674774D01*
G01X7454669Y-2680931D01*
G01X7450974Y-2688321D01*
G01X7448511Y-2692631D01*
G01X7446972Y-2695094D01*
G01X7445125Y-2697865D01*
G01X7443586Y-2700020D01*
G01X7442354Y-2701559D01*
G01X7441123Y-2703407D01*
G01X7436504Y-2708949D01*
G01X7431886Y-2713567D01*
G01X7425421Y-2719109D01*
G01X7421110Y-2722187D01*
G01X7418031Y-2724034D01*
G01X7415569Y-2725574D01*
G01X7410643Y-2728037D01*
G01X7409873Y-2728114D01*
G37*
G36*
G01X7003934Y-2687397D02*
G01X6995314Y-2687089D01*
G01X6992543Y-2686473D01*
G01X6989464Y-2685857D01*
G01X6986693Y-2685242D01*
G01X6983614Y-2684318D01*
G01X6978073Y-2682471D01*
G01X6975302Y-2681239D01*
G01X6967297Y-2677237D01*
G01X6964526Y-2675390D01*
G01X6962371Y-2674158D01*
G01X6960831Y-2672927D01*
G01X6956521Y-2669232D01*
G01X6949132Y-2661843D01*
G01X6947285Y-2659380D01*
G01X6945746Y-2657225D01*
G01X6944514Y-2655070D01*
G01X6943283Y-2653530D01*
G01X6941743Y-2651375D01*
G01X6939280Y-2646449D01*
G01X6938049Y-2643678D01*
G01X6936817Y-2640599D01*
G01X6935586Y-2636597D01*
G01X6934662Y-2633518D01*
G01X6933430Y-2627361D01*
G01X6932814Y-2621819D01*
G01X6932507Y-2617201D01*
G01X6932691Y-2614430D01*
G01X6944514Y-2614430D01*
G01X6944514Y-2616277D01*
G01X6974378Y-2616585D01*
G01X7003934Y-2616585D01*
G01X7003934Y-2586721D01*
G01X7003627Y-2564323D01*
G01X7002703Y-2556856D01*
G01X6999316Y-2557164D01*
G01X6994390Y-2557780D01*
G01X6989464Y-2558704D01*
G01X6985462Y-2559935D01*
G01X6981767Y-2561167D01*
G01X6978996Y-2562398D01*
G01X6973454Y-2565169D01*
G01X6970684Y-2567016D01*
G01X6968221Y-2568556D01*
G01X6966373Y-2570095D01*
G01X6964834Y-2571634D01*
G01X6961755Y-2574097D01*
G01X6960216Y-2575637D01*
G01X6958984Y-2577176D01*
G01X6957137Y-2579331D01*
G01X6952827Y-2585489D01*
G01X6950979Y-2588568D01*
G01X6949748Y-2591031D01*
G01X6948824Y-2593494D01*
G01X6947901Y-2596265D01*
G01X6946669Y-2599651D01*
G01X6945130Y-2605809D01*
G01X6944822Y-2609811D01*
G01X6944514Y-2614430D01*
G01X6944514Y-2614430D01*
G01X6932691Y-2614430D01*
G01X6932814Y-2612583D01*
G01X6933430Y-2607041D01*
G01X6933738Y-2604886D01*
G01X6934354Y-2601499D01*
G01X6935277Y-2598420D01*
G01X6935893Y-2595649D01*
G01X6936817Y-2592570D01*
G01X6938049Y-2589491D01*
G01X6939280Y-2586721D01*
G01X6941743Y-2581794D01*
G01X6943283Y-2579331D01*
G01X6945130Y-2576561D01*
G01X6946361Y-2574406D01*
G01X6947593Y-2572866D01*
G01X6950671Y-2569171D01*
G01X6956829Y-2563014D01*
G01X6958369Y-2561783D01*
G01X6960524Y-2559935D01*
G01X6963603Y-2557780D01*
G01X6966373Y-2555933D01*
G01X6968836Y-2554393D01*
G01X6970991Y-2553162D01*
G01X6973454Y-2551930D01*
G01X6976226Y-2550699D01*
G01X6979304Y-2549467D01*
G01X6985770Y-2547312D01*
G01X6991311Y-2546081D01*
G01X6995622Y-2545465D01*
G01X7002395Y-2545157D01*
G01X7011016Y-2545465D01*
G01X7015326Y-2546081D01*
G01X7021484Y-2547312D01*
G01X7024870Y-2548236D01*
G01X7028565Y-2549467D01*
G01X7031951Y-2550699D01*
G01X7039341Y-2554393D01*
G01X7041804Y-2555933D01*
G01X7047346Y-2559627D01*
G01X7053811Y-2565169D01*
G01X7055350Y-2566709D01*
G01X7060892Y-2573174D01*
G01X7063047Y-2576253D01*
G01X7064894Y-2579024D01*
G01X7066126Y-2581179D01*
G01X7069821Y-2588568D01*
G01X7071052Y-2591954D01*
G01X7073207Y-2598420D01*
G01X7074439Y-2603962D01*
G01X7075054Y-2609504D01*
G01X7075363Y-2614430D01*
G01X7075054Y-2621203D01*
G01X7074439Y-2626129D01*
G01X7073823Y-2629824D01*
G01X7073207Y-2632287D01*
G01X7072591Y-2635057D01*
G01X7071668Y-2638136D01*
G01X7070436Y-2641215D01*
G01X7069205Y-2644602D01*
G01X7065510Y-2651991D01*
G01X7063971Y-2654454D01*
G01X7060276Y-2659996D01*
G01X7058429Y-2662151D01*
G01X7056890Y-2663690D01*
G01X7054427Y-2666769D01*
G01X7050732Y-2669848D01*
G01X7048577Y-2672003D01*
G01X7045498Y-2674158D01*
G01X7041188Y-2677237D01*
G01X7038725Y-2678776D01*
G01X7036262Y-2680008D01*
G01X7033491Y-2681239D01*
G01X7028565Y-2683087D01*
G01X7025486Y-2684318D01*
G01X7022715Y-2685242D01*
G01X7017173Y-2686473D01*
G01X7012863Y-2687089D01*
G01X7003934Y-2687397D01*
G37*
G36*
G01X7113847Y-2688013D02*
G01X7110461Y-2687397D01*
G01X7107690Y-2685550D01*
G01X7105534Y-2683703D01*
G01X7104303Y-2681547D01*
G01X7103379Y-2679084D01*
G01X7103379Y-2676929D01*
G01X7103995Y-2674774D01*
G01X7104611Y-2672311D01*
G01X7105843Y-2670156D01*
G01X7107382Y-2668616D01*
G01X7109537Y-2667077D01*
G01X7112000Y-2666153D01*
G01X7114771Y-2666153D01*
G01X7118157Y-2667077D01*
G01X7121236Y-2668924D01*
G01X7123391Y-2671079D01*
G01X7124623Y-2673234D01*
G01X7125239Y-2676313D01*
G01X7124623Y-2680008D01*
G01X7122776Y-2683394D01*
G01X7120929Y-2685550D01*
G01X7119081Y-2686781D01*
G01X7116926Y-2687705D01*
G01X7113847Y-2688013D01*
G37*
G36*
G01X7224684Y-2687397D02*
G01X7216371Y-2687089D01*
G01X7213600Y-2686473D01*
G01X7210521Y-2685857D01*
G01X7208366Y-2685550D01*
G01X7205903Y-2684934D01*
G01X7200361Y-2683087D01*
G01X7197283Y-2681855D01*
G01X7194511Y-2680624D01*
G01X7189586Y-2678161D01*
G01X7187123Y-2676621D01*
G01X7184351Y-2674774D01*
G01X7182196Y-2673543D01*
G01X7180657Y-2672311D01*
G01X7176347Y-2668616D01*
G01X7171729Y-2663998D01*
G01X7169266Y-2660919D01*
G01X7167726Y-2659380D01*
G01X7166187Y-2657225D01*
G01X7164339Y-2654454D01*
G01X7162492Y-2651375D01*
G01X7160953Y-2648912D01*
G01X7158490Y-2643370D01*
G01X7157566Y-2640907D01*
G01X7155719Y-2635366D01*
G01X7155103Y-2632903D01*
G01X7153871Y-2626745D01*
G01X7153564Y-2622743D01*
G01X7153256Y-2618124D01*
G01X7153256Y-2615661D01*
G01X7153564Y-2612583D01*
G01X7153621Y-2611659D01*
G01X7165263Y-2611659D01*
G01X7165571Y-2616277D01*
G01X7195435Y-2616585D01*
G01X7224991Y-2616585D01*
G01X7224991Y-2556856D01*
G01X7222836Y-2556856D01*
G01X7219757Y-2557164D01*
G01X7217603Y-2557472D01*
G01X7214831Y-2557780D01*
G01X7212369Y-2558396D01*
G01X7209290Y-2559011D01*
G01X7205903Y-2559935D01*
G01X7203132Y-2560859D01*
G01X7200669Y-2561783D01*
G01X7195743Y-2564246D01*
G01X7193280Y-2565785D01*
G01X7187738Y-2569479D01*
G01X7183428Y-2573174D01*
G01X7181273Y-2575329D01*
G01X7179733Y-2577176D01*
G01X7177578Y-2579331D01*
G01X7175423Y-2582410D01*
G01X7173576Y-2585181D01*
G01X7172036Y-2587952D01*
G01X7169573Y-2592878D01*
G01X7168342Y-2596265D01*
G01X7167110Y-2600267D01*
G01X7165571Y-2606425D01*
G01X7165263Y-2611659D01*
G01X7165263Y-2611659D01*
G01X7153621Y-2611659D01*
G01X7153871Y-2607656D01*
G01X7154487Y-2603962D01*
G01X7155103Y-2600575D01*
G01X7156027Y-2596881D01*
G01X7157874Y-2591339D01*
G01X7159106Y-2588568D01*
G01X7160337Y-2585489D01*
G01X7161876Y-2582410D01*
G01X7163724Y-2579331D01*
G01X7165879Y-2576253D01*
G01X7167418Y-2573790D01*
G01X7168650Y-2572250D01*
G01X7170189Y-2570711D01*
G01X7172652Y-2567632D01*
G01X7175731Y-2564553D01*
G01X7178810Y-2562090D01*
G01X7180965Y-2559935D01*
G01X7184044Y-2557780D01*
G01X7186814Y-2555933D01*
G01X7189277Y-2554393D01*
G01X7191433Y-2553162D01*
G01X7193896Y-2551930D01*
G01X7196667Y-2550699D01*
G01X7199746Y-2549467D01*
G01X7206211Y-2547312D01*
G01X7211753Y-2546081D01*
G01X7216063Y-2545465D01*
G01X7223760Y-2545157D01*
G01X7232073Y-2545465D01*
G01X7236383Y-2546081D01*
G01X7241309Y-2547004D01*
G01X7245619Y-2548236D01*
G01X7249314Y-2549467D01*
G01X7252393Y-2550699D01*
G01X7259782Y-2554393D01*
G01X7262245Y-2555933D01*
G01X7265016Y-2557780D01*
G01X7267479Y-2559319D01*
G01X7269326Y-2560859D01*
G01X7272405Y-2563322D01*
G01X7277023Y-2567940D01*
G01X7279486Y-2571019D01*
G01X7281026Y-2572558D01*
G01X7282565Y-2574713D01*
G01X7286259Y-2580255D01*
G01X7287799Y-2583026D01*
G01X7289030Y-2585489D01*
G01X7290262Y-2588260D01*
G01X7292725Y-2595033D01*
G01X7293649Y-2597804D01*
G01X7294880Y-2603346D01*
G01X7295496Y-2608272D01*
G01X7295804Y-2614737D01*
G01X7295496Y-2622434D01*
G01X7294880Y-2626745D01*
G01X7294264Y-2630439D01*
G01X7293033Y-2635366D01*
G01X7291186Y-2640907D01*
G01X7290262Y-2643370D01*
G01X7285336Y-2653223D01*
G01X7283796Y-2655686D01*
G01X7281949Y-2658456D01*
G01X7280410Y-2660611D01*
G01X7278870Y-2662151D01*
G01X7275176Y-2666461D01*
G01X7273636Y-2668001D01*
G01X7269942Y-2671079D01*
G01X7268403Y-2672619D01*
G01X7266247Y-2674158D01*
G01X7260706Y-2677853D01*
G01X7257934Y-2679392D01*
G01X7255471Y-2680624D01*
G01X7252701Y-2681855D01*
G01X7249622Y-2683087D01*
G01X7244080Y-2684934D01*
G01X7240693Y-2685857D01*
G01X7237614Y-2686473D01*
G01X7233304Y-2687089D01*
G01X7224684Y-2687397D01*
G37*
G36*
G01X7313045Y-2619048D02*
G01X7313969Y-2617816D01*
G01X7315816Y-2615046D01*
G01X7354609Y-2550391D01*
G01X7356456Y-2548544D01*
G01X7358303Y-2548544D01*
G01X7360150Y-2550391D01*
G01X7365692Y-2559627D01*
G01X7367231Y-2562090D01*
G01X7368463Y-2564246D01*
G01X7370003Y-2567016D01*
G01X7375544Y-2576253D01*
G01X7377084Y-2578716D01*
G01X7378315Y-2580871D01*
G01X7379854Y-2583642D01*
G01X7385396Y-2592878D01*
G01X7386936Y-2595341D01*
G01X7388167Y-2597496D01*
G01X7389707Y-2600267D01*
G01X7395249Y-2609504D01*
G01X7396788Y-2611967D01*
G01X7399251Y-2616277D01*
G01X7400174Y-2618124D01*
G01X7399328Y-2618817D01*
G01X7396172Y-2619048D01*
G01X7392709Y-2618663D01*
G01X7390938Y-2617509D01*
G01X7385396Y-2608272D01*
G01X7383857Y-2605809D01*
G01X7382626Y-2603654D01*
G01X7381086Y-2600883D01*
G01X7358919Y-2563937D01*
G01X7357379Y-2562090D01*
G01X7355840Y-2563014D01*
G01X7353993Y-2565785D01*
G01X7344756Y-2581179D01*
G01X7343217Y-2583642D01*
G01X7341986Y-2585797D01*
G01X7340446Y-2588568D01*
G01X7325668Y-2613198D01*
G01X7324129Y-2615661D01*
G01X7322897Y-2617816D01*
G01X7321281Y-2618740D01*
G01X7317663Y-2619048D01*
G01X7313045Y-2619048D01*
G37*
G01X6034532Y-5125720D02*
G01X6034532Y-5223002D01*
G01X6040120Y-5240020D01*
G01X6051550Y-5245862D01*
G01X6062980Y-5245862D01*
G01X6017260Y-5165852D02*
G01X6057392Y-5165852D01*
G01X6110732Y-5125720D02*
G01X6110732Y-5245862D01*
G01X6110732Y-5188712D02*
G01X6128004Y-5171440D01*
G01X6139434Y-5165852D01*
G01X6156452Y-5165852D01*
G01X6167882Y-5171440D01*
G01X6173724Y-5188712D01*
G01X6173724Y-5245862D01*
G01X6290056Y-5165852D02*
G01X6290056Y-5245862D01*
G01X6290056Y-5182870D02*
G01X6278626Y-5171440D01*
G01X6267196Y-5165852D01*
G01X6250178Y-5165852D01*
G01X6238748Y-5171440D01*
G01X6227318Y-5182870D01*
G01X6221476Y-5200142D01*
G01X6221476Y-5211572D01*
G01X6227318Y-5228590D01*
G01X6238748Y-5240020D01*
G01X6250178Y-5245862D01*
G01X6267196Y-5245862D01*
G01X6278626Y-5240020D01*
G01X6290056Y-5228590D01*
G01X6337808Y-5165852D02*
G01X6337808Y-5245862D01*
G01X6337808Y-5188712D02*
G01X6355080Y-5171440D01*
G01X6366510Y-5165852D01*
G01X6383528Y-5165852D01*
G01X6394958Y-5171440D01*
G01X6400800Y-5188712D01*
G01X6400800Y-5245862D01*
G01X6448552Y-5125720D02*
G01X6448552Y-5245862D01*
G01X6505702Y-5165852D02*
G01X6448552Y-5223002D01*
G01X6471412Y-5200142D02*
G01X6511544Y-5245862D01*
G01X6693154Y-5165852D02*
G01X6727444Y-5245862D01*
G01X6761734Y-5165852D02*
G01X6727444Y-5245862D01*
G01X6716014Y-5268722D01*
G01X6704584Y-5280152D01*
G01X6693154Y-5285740D01*
G01X6687312Y-5285740D01*
G01X6838188Y-5165852D02*
G01X6826758Y-5171440D01*
G01X6815328Y-5182870D01*
G01X6809486Y-5200142D01*
G01X6809486Y-5211572D01*
G01X6815328Y-5228590D01*
G01X6826758Y-5240020D01*
G01X6838188Y-5245862D01*
G01X6855206Y-5245862D01*
G01X6866636Y-5240020D01*
G01X6878066Y-5228590D01*
G01X6883908Y-5211572D01*
G01X6883908Y-5200142D01*
G01X6878066Y-5182870D01*
G01X6866636Y-5171440D01*
G01X6855206Y-5165852D01*
G01X6838188Y-5165852D01*
G01X6931660Y-5165852D02*
G01X6931660Y-5223002D01*
G01X6937502Y-5240020D01*
G01X6948932Y-5245862D01*
G01X6965950Y-5245862D01*
G01X6977380Y-5240020D01*
G01X6994652Y-5223002D01*
G01X6994652Y-5165852D02*
G01X6994652Y-5245862D01*
G01X7170420Y-5125720D02*
G01X7170420Y-5245862D01*
G01X7170420Y-5188712D02*
G01X7187692Y-5171440D01*
G01X7199122Y-5165852D01*
G01X7216140Y-5165852D01*
G01X7227570Y-5171440D01*
G01X7233412Y-5188712D01*
G01X7233412Y-5245862D01*
G01X7349744Y-5165852D02*
G01X7349744Y-5245862D01*
G01X7349744Y-5182870D02*
G01X7338314Y-5171440D01*
G01X7326884Y-5165852D01*
G01X7309866Y-5165852D01*
G01X7298436Y-5171440D01*
G01X7287006Y-5182870D01*
G01X7281164Y-5200142D01*
G01X7281164Y-5211572D01*
G01X7287006Y-5228590D01*
G01X7298436Y-5240020D01*
G01X7309866Y-5245862D01*
G01X7326884Y-5245862D01*
G01X7338314Y-5240020D01*
G01X7349744Y-5228590D01*
G01X7466076Y-5182870D02*
G01X7454646Y-5171440D01*
G01X7443216Y-5165852D01*
G01X7426198Y-5165852D01*
G01X7414768Y-5171440D01*
G01X7403338Y-5182870D01*
G01X7397496Y-5200142D01*
G01X7397496Y-5211572D01*
G01X7403338Y-5228590D01*
G01X7414768Y-5240020D01*
G01X7426198Y-5245862D01*
G01X7443216Y-5245862D01*
G01X7454646Y-5240020D01*
G01X7466076Y-5228590D01*
G01X7513828Y-5125720D02*
G01X7513828Y-5245862D01*
G01X7570978Y-5165852D02*
G01X7513828Y-5223002D01*
G01X7536688Y-5200142D02*
G01X7576820Y-5245862D01*
G01X7821168Y-5182870D02*
G01X7809738Y-5171440D01*
G01X7798308Y-5165852D01*
G01X7781290Y-5165852D01*
G01X7769860Y-5171440D01*
G01X7758430Y-5182870D01*
G01X7752588Y-5200142D01*
G01X7752588Y-5211572D01*
G01X7758430Y-5228590D01*
G01X7769860Y-5240020D01*
G01X7781290Y-5245862D01*
G01X7798308Y-5245862D01*
G01X7809738Y-5240020D01*
G01X7821168Y-5228590D01*
G01X7868920Y-5125720D02*
G01X7868920Y-5245862D01*
G01X7916672Y-5165852D02*
G01X7916672Y-5223002D01*
G01X7922514Y-5240020D01*
G01X7933944Y-5245862D01*
G01X7950962Y-5245862D01*
G01X7962392Y-5240020D01*
G01X7979664Y-5223002D01*
G01X7979664Y-5165852D02*
G01X7979664Y-5245862D01*
G01X8027416Y-5125720D02*
G01X8027416Y-5245862D01*
G01X8027416Y-5182870D02*
G01X8038846Y-5171440D01*
G01X8050276Y-5165852D01*
G01X8067548Y-5165852D01*
G01X8078978Y-5171440D01*
G01X8090408Y-5182870D01*
G01X8095996Y-5200142D01*
G01X8095996Y-5211572D01*
G01X8090408Y-5228590D01*
G01X8078978Y-5240020D01*
G01X8067548Y-5245862D01*
G01X8050276Y-5245862D01*
G01X8038846Y-5240020D01*
G01X8027416Y-5228590D01*
G01X8363204Y-5142992D02*
G01X8271764Y-5194300D01*
G01X8363204Y-5245862D01*
G01X8422386Y-5125720D02*
G01X8485378Y-5125720D01*
G01X8451088Y-5171440D01*
G01X8468106Y-5171440D01*
G01X8479536Y-5177282D01*
G01X8485378Y-5182870D01*
G01X8490966Y-5200142D01*
G01X8490966Y-5211572D01*
G01X8485378Y-5228590D01*
G01X8473948Y-5240020D01*
G01X8456676Y-5245862D01*
G01X8439658Y-5245862D01*
G01X8422386Y-5240020D01*
G01X8416798Y-5234432D01*
G01X8410956Y-5223002D01*
G04 Text End*

G04 PolygonModel Start*
G36*
G01X10033000Y-876488D02*
G01X9917914Y-876488D01*
G01X9917914Y-1143000D01*
G01X10388600Y-1143000D01*
G01X10388600Y-876300D01*
G01X10273622Y-876300D01*
G01X10273622Y-1054100D01*
G01X10033000Y-1054100D01*
G01X10033000Y-876488D01*
G37*
G36*
G01X10033000Y-876488D02*
G01X9917914Y-876488D01*
G01X9917914Y-1143000D01*
G01X10388600Y-1143000D01*
G01X10388600Y-876300D01*
G01X10273622Y-876300D01*
G01X10273622Y-1054100D01*
G01X10033000Y-1054100D01*
G01X10033000Y-876488D01*
G37*

G04 Pad Start*
G54D11*
G01X10369398Y-5308600D03*
G01X10509402Y-5308600D03*
G01X11614302Y-4559300D03*
G01X11474298Y-4559300D03*
G54D12*
G01X10769600Y-4159098D03*
G01X10769600Y-4299102D03*
G54D11*
G01X11487302Y-3886200D03*
G01X11347298Y-3886200D03*
G01X11703202Y-5435600D03*
G01X11563198Y-5435600D03*
G54D12*
G01X11607800Y-4959198D03*
G01X11607800Y-5099202D03*
G01X11722100Y-4083202D03*
G01X11722100Y-3943198D03*
G54D11*
G01X11296498Y-2997200D03*
G01X11436502Y-2997200D03*
G54D12*
G01X6895345Y-3340750D03*
G01X6895345Y-3200745D03*
G01X7327900Y-3422802D03*
G01X7327900Y-3282798D03*
G01X5661365Y-570332D03*
G01X5661365Y-710336D03*
G01X5043858Y-570332D03*
G01X5043858Y-710336D03*
G54D11*
G01X7511504Y-4171150D03*
G01X7371499Y-4171150D03*
G54D12*
G01X5363565Y-565790D03*
G01X5363565Y-705795D03*
G54D11*
G01X9721698Y-2921000D03*
G01X9861702Y-2921000D03*
G01X11373002Y-1511300D03*
G01X11232998Y-1511300D03*
G01X11373002Y-1739900D03*
G01X11232998Y-1739900D03*
G54D12*
G01X7048500Y-3854602D03*
G01X7048500Y-3714598D03*
G01X7350518Y-3857330D03*
G01X7350518Y-3717326D03*
G54D11*
G01X10217302Y-4152900D03*
G01X10077298Y-4152900D03*
G54D12*
G01X5985240Y-572524D03*
G01X5985240Y-712528D03*
G01X6337300Y-793598D03*
G01X6337300Y-933602D03*
G54D11*
G01X7448398Y-647700D03*
G01X7588402Y-647700D03*
G01X8579002Y-2692400D03*
G01X8438998Y-2692400D03*
G54D12*
G01X8585200Y-2889098D03*
G01X8585200Y-3029102D03*
G01X8919856Y-3224632D03*
G01X8919856Y-3364636D03*
G01X8267700Y-2901798D03*
G01X8267700Y-3041802D03*
G54D13*
G01X11098196Y-3759149D03*
G01X10798197Y-3759149D03*
G01X10398197Y-3759149D03*
G01X10258193Y-3059151D03*
G54D14*
G01X11025190Y-4978400D03*
G01X11352210Y-4978400D03*
G54D15*
G01X11023600Y-4411193D03*
G01X11023600Y-4758207D03*
G01X10477500Y-4144493D03*
G01X10477500Y-4491507D03*
G54D16*
G01X11463807Y-4191000D03*
G01X11116793Y-4191000D03*
G54D18*
G01X9843567Y-4362196D03*
G01X9843567Y-4267200D03*
G01X9843567Y-4172204D03*
G54D19*
G01X9612833Y-4172204D03*
G01X9612833Y-4362196D03*
G54D20*
G01X7369822Y-421190D03*
G01X7464818Y-421190D03*
G01X7559814Y-421190D03*
G54D21*
G01X7559814Y-190457D03*
G01X7369822Y-190457D03*
G54D22*
G01X10818618Y-5315303D03*
G01X10968417Y-5314617D03*
G01X6958300Y-4101757D03*
G01X6808500Y-4102443D03*
G54D23*
G01X6667500Y-2081936D03*
G01X6667500Y-1931264D03*
G01X6502400Y-2081936D03*
G01X6502400Y-1931264D03*
G01X10302096Y-2044410D03*
G01X10302096Y-2195083D03*
G01X10401300Y-2615336D03*
G01X10401300Y-2464664D03*
G54D24*
G01X11176864Y-5308600D03*
G01X11327536Y-5308600D03*
G01X6795731Y-3756703D03*
G01X6645059Y-3756703D03*
G54D23*
G01X5054600Y-889864D03*
G01X5054600Y-1040536D03*
G01X4723645Y-895413D03*
G01X4723645Y-1046086D03*
G54D24*
G01X6635570Y-434091D03*
G01X6786243Y-434091D03*
G01X6338164Y-431800D03*
G01X6488836Y-431800D03*
G54D23*
G01X7264400Y-1586636D03*
G01X7264400Y-1435964D03*
G01X7442200Y-1586636D03*
G01X7442200Y-1435964D03*
G54D24*
G01X7336422Y-1257010D03*
G01X7185750Y-1257010D03*
G01X7120522Y-4476971D03*
G01X6969850Y-4476971D03*
G54D25*
G01X6966598Y-4826000D03*
G01X7841602Y-4826000D03*
G54D26*
G01X6927952Y-1546606D03*
G01X6927952Y-1496593D03*
G01X6927952Y-1446606D03*
G01X6927952Y-1396594D03*
G01X6927952Y-1346606D03*
G01X6927952Y-1296594D03*
G01X6927952Y-1246607D03*
G01X6927952Y-1196594D03*
G54D27*
G01X6855206Y-1123848D03*
G01X6805193Y-1123848D03*
G01X6755206Y-1123848D03*
G01X6705194Y-1123848D03*
G01X6655206Y-1123848D03*
G01X6605194Y-1123848D03*
G01X6555207Y-1123848D03*
G01X6505194Y-1123848D03*
G54D26*
G01X6432448Y-1196594D03*
G01X6432448Y-1246607D03*
G01X6432448Y-1296594D03*
G01X6432448Y-1346606D03*
G01X6432448Y-1396594D03*
G01X6432448Y-1446606D03*
G01X6432448Y-1496593D03*
G01X6432448Y-1546606D03*
G54D27*
G01X6505194Y-1619352D03*
G01X6555207Y-1619352D03*
G01X6605194Y-1619352D03*
G01X6655206Y-1619352D03*
G01X6705194Y-1619352D03*
G01X6755206Y-1619352D03*
G01X6805193Y-1619352D03*
G01X6855206Y-1619352D03*
G54D28*
G01X6680200Y-1371600D03*
G54D29*
G01X7993304Y-3199994D03*
G01X7993304Y-3264992D03*
G01X7993304Y-3329991D03*
G01X7993304Y-3394989D03*
G01X7993304Y-3460013D03*
G01X7993304Y-3525012D03*
G01X7993304Y-3590011D03*
G01X7993304Y-3655009D03*
G01X7993304Y-3720008D03*
G01X7993304Y-3785006D03*
G01X8567496Y-3199994D03*
G01X8567496Y-3264992D03*
G01X8567496Y-3329991D03*
G01X8567496Y-3394989D03*
G01X8567496Y-3460013D03*
G01X8567496Y-3525012D03*
G01X8567496Y-3590011D03*
G01X8567496Y-3655009D03*
G01X8567496Y-3720008D03*
G01X8567496Y-3785006D03*
G54D30*
G01X9494705Y-4938903D03*
G01X9494705Y-5168900D03*
G01X9494705Y-5398897D03*
G54D31*
G01X10088697Y-5168900D03*
G54D32*
G01X9678683Y-3553600D03*
G01X9728721Y-3553600D03*
G01X9778505Y-3553600D03*
G01X9828543Y-3553600D03*
G54D33*
G01X9903600Y-3478517D03*
G01X9903600Y-3428479D03*
G01X9903600Y-3378695D03*
G01X9903600Y-3328657D03*
G54D32*
G01X9828543Y-3253600D03*
G01X9778505Y-3253600D03*
G01X9728721Y-3253600D03*
G01X9678683Y-3253600D03*
G54D33*
G01X9603600Y-3328657D03*
G01X9603600Y-3378695D03*
G01X9603600Y-3428479D03*
G01X9603600Y-3478517D03*
G54D34*
G01X9753613Y-3403587D03*
G54D35*
G01X10788891Y-2524506D03*
G01X10788891Y-2474493D03*
G01X10788891Y-2424506D03*
G01X10788891Y-2374494D03*
G01X10788891Y-2324506D03*
G01X10788891Y-2274494D03*
G01X10788891Y-2224532D03*
G01X10788891Y-2174494D03*
G54D36*
G01X10788891Y-2669496D03*
G54D37*
G01X10788881Y-2029499D03*
G54D38*
G01X10788881Y-2109484D03*
G54D39*
G01X10788898Y-2589496D03*
G54D40*
G01X11283709Y-1916989D03*
G54D41*
G01X10865726Y-1916989D03*
G01X10865726Y-2782011D03*
G54D40*
G01X11283709Y-2782011D03*
G54D42*
G01X6007100Y-165100D03*
G54D43*
G01X6261100Y-165100D03*
G01X6515100Y-165100D03*
G01X6769100Y-165100D03*
G04 Pad End*

G04 Via Start*
G54D44*
G01X6629400Y-558800D03*
G01X6203212Y-571500D03*
G01X4876800Y-1046086D03*
G01X5156200Y-1270000D03*
G01X8394700Y-2273300D03*
G01X8216900Y-2082800D03*
G01X10528300Y-2540000D03*
G01X10083800Y-4025900D03*
G01X10020300Y-3695700D03*
G01X9486900Y-3505200D03*
G01X9169400Y-3327400D03*
G01X9169400Y-3162300D03*
G01X10096500Y-2197100D03*
G01X10134600Y-3517900D03*
G01X10769596Y-4442656D03*
G01X7810500Y-1993900D03*
G01X8763000Y-3657600D03*
G01X8597900Y-4241800D03*
G01X8750300Y-3746500D03*
G01X7604145Y-1336655D03*
G01X8102600Y-1333500D03*
G01X9131300Y-1333500D03*
G01X9575800Y-1333500D03*
G01X7696200Y-3771900D03*
G01X8458200Y-4362196D03*
G01X6286500Y-1727200D03*
G01X8420100Y-1739900D03*
G01X9182100Y-2298700D03*
G01X8839200Y-2044700D03*
G01X5661365Y-1574800D03*
G01X5661365Y-2015278D03*
G01X7823200Y-3086100D03*
G01X8191500Y-3949700D03*
G01X9029700Y-3797300D03*
G01X9334500Y-3683000D03*
G01X7162800Y-965200D03*
G01X9678683Y-3835400D03*
G01X9842500Y-3721100D03*
G01X8724900Y-3590011D03*
G01X8801100Y-3525012D03*
G01X7251700Y-1828800D03*
G01X7175500Y-2006600D03*
G01X7073900Y-1619352D03*
G01X6297272Y-1196594D03*
G01X7169150Y-869950D03*
G01X7327900Y-736600D03*
G01X10833100Y-4508500D03*
G01X10706100Y-5232400D03*
G01X11137900Y-2997200D03*
G01X10934126Y-2997200D03*
G01X10160000Y-2425700D03*
G01X10160000Y-2032000D03*
G01X6337300Y-660400D03*
G01X6680200Y-698500D03*
G01X8318500Y-2324100D03*
G01X8089900Y-1993900D03*
G04 Via End*

G04 Track Start*
G54D45*
G01X6203212Y-571500D02*
G01X6203212Y-431800D01*
G01X6221172Y-413839D01*
G01X6320203Y-413839D01*
G01X6338164Y-431800D01*
G01X6261100Y-165100D02*
G01X6338164Y-242164D01*
G01X6338164Y-431800D01*
G01X6515100Y-165100D02*
G01X6515100Y-405536D01*
G01X6488836Y-431800D01*
G01X6769100Y-165100D02*
G01X6786243Y-182243D01*
G01X6786243Y-434091D01*
G01X5985240Y-712528D02*
G01X6206314Y-933602D01*
G01X6337300Y-933602D01*
G01X5105400Y-648794D02*
G01X5105400Y-647700D01*
G01X5043858Y-710336D02*
G01X5105400Y-648794D01*
G01X5105400Y-647700D02*
G01X5123361Y-629739D01*
G01X5303058Y-629739D01*
G01X5307008Y-633690D01*
G01X5420121Y-633690D01*
G01X5424072Y-629739D01*
G01X5580768Y-629739D02*
G01X5661365Y-710336D01*
G01X5424072Y-629739D02*
G01X5580768Y-629739D01*
G01X5043858Y-710336D02*
G01X5054600Y-721079D01*
G01X5054600Y-889864D01*
G01X4723645Y-895413D02*
G01X5049050Y-895413D01*
G01X5054600Y-889864D01*
G01X5054600Y-1040536D02*
G01X5054600Y-1930400D01*
G01X6731000Y-3606800D01*
G01X7976514Y-3606800D01*
G01X7993304Y-3590011D01*
G01X4723645Y-1046086D02*
G01X4876800Y-1046086D01*
G01X5156200Y-1270000D02*
G01X5156200Y-1879600D01*
G01X6801612Y-3525012D02*
G01X7993304Y-3525012D01*
G01X5156200Y-1879600D02*
G01X6801612Y-3525012D01*
G01X6635570Y-434091D02*
G01X6629400Y-440262D01*
G01X6629400Y-558800D01*
G01X6488836Y-431800D02*
G01X6488836Y-1107491D01*
G01X6505194Y-1123848D01*
G01X6555207Y-1123848D02*
G01X6555207Y-647700D01*
G01X6573167Y-629739D01*
G01X6687800Y-582990D02*
G01X6687800Y-532534D01*
G01X6786243Y-434091D01*
G01X6573167Y-629739D02*
G01X6641051Y-629739D01*
G01X6687800Y-582990D01*
G01X7369822Y-421190D02*
G01X7369822Y-351778D01*
G01X7416800Y-304800D02*
G01X7505700Y-304800D01*
G01X7559814Y-358914D01*
G01X7559814Y-421190D01*
G01X7369822Y-351778D02*
G01X7416800Y-304800D01*
G01X7559814Y-421190D02*
G01X7588402Y-449779D01*
G01X7588402Y-647700D01*
G01X7369822Y-190457D02*
G01X7188157Y-190457D01*
G01X7035800Y-38100D01*
G01X6400800Y-38100D01*
G01X6382839Y-56061D01*
G01X6382839Y-81461D01*
G01X6402200Y-100821D01*
G01X6420613Y-377043D02*
G01X6420613Y-486557D01*
G01X6438900Y-504844D01*
G01X6438900Y-927100D01*
G01X6402200Y-100821D02*
G01X6402200Y-358631D01*
G01X6420613Y-377043D01*
G01X6438900Y-927100D02*
G01X6420939Y-945061D01*
G01X6348758Y-945061D01*
G01X6337300Y-933602D01*
G01X7588402Y-647700D02*
G01X8623300Y-647700D01*
G01X10096500Y-2120900D01*
G01X10777461Y-2120900D01*
G01X10788891Y-2109470D01*
G01X11373002Y-1739900D02*
G01X11373002Y-1511300D01*
G01X11373002Y-1739900D02*
G01X11442700Y-1809598D01*
G01X11442700Y-2991002D02*
G01X11436502Y-2997200D01*
G01X11442700Y-1809598D02*
G01X11442700Y-2991002D01*
G01X10875915Y-2356939D02*
G01X10865448Y-2367406D01*
G01X10795978Y-2367406D01*
G01X10788891Y-2374494D01*
G01X10913328Y-2356939D02*
G01X10913328Y-2292454D01*
G01X10895367Y-2274494D01*
G01X10788891Y-2274494D01*
G01X10913328Y-2356939D02*
G01X10875915Y-2356939D01*
G01X10788891Y-2174494D02*
G01X10322685Y-2174494D01*
G01X10302096Y-2195083D01*
G01X6505194Y-1619352D02*
G01X6505194Y-1928470D01*
G01X6502400Y-1931264D01*
G01X8101736Y-2081936D02*
G01X6667500Y-2081936D01*
G01X8166100Y-2146300D02*
G01X8101736Y-2081936D01*
G01X9588500Y-2146300D02*
G01X8166100Y-2146300D01*
G01X10788891Y-2274494D02*
G01X9716694Y-2274494D01*
G01X9588500Y-2146300D01*
G01X9703206Y-2324506D02*
G01X9588500Y-2209800D01*
G01X8140700Y-2209800D01*
G01X8064500Y-2133600D01*
G01X6870700Y-2133600D01*
G01X6794500Y-2209800D01*
G01X6502400Y-2209800D01*
G01X6484439Y-2191839D01*
G01X6484439Y-2166439D01*
G01X6502400Y-2148479D01*
G01X6502400Y-2081936D01*
G01X10788891Y-2424506D02*
G01X10624512Y-2424506D01*
G01X10524512Y-2324506D01*
G01X10788891Y-2324506D02*
G01X10524512Y-2324506D01*
G01X9703206Y-2324506D01*
G01X11116793Y-4191000D02*
G01X11347298Y-3960495D01*
G01X11347298Y-3886200D01*
G01X10477500Y-4491507D02*
G01X10577195Y-4491507D01*
G01X10769600Y-4299102D01*
G01X10057994Y-4172204D02*
G01X10077298Y-4152900D01*
G01X9843567Y-4362196D02*
G01X9800970Y-4319600D01*
G01X9774161Y-4319600D01*
G01X9753600Y-4299039D01*
G01X9774161Y-4214800D02*
G01X9800970Y-4214800D01*
G01X9843567Y-4172204D01*
G01X9753600Y-4235361D02*
G01X9774161Y-4214800D01*
G01X9753600Y-4299039D02*
G01X9753600Y-4235361D01*
G01X8567496Y-3329991D02*
G01X8885210Y-3329991D01*
G01X8919856Y-3364636D01*
G01X8567496Y-3329991D02*
G01X8548598Y-3311093D01*
G01X8479501Y-3311093D01*
G01X8457708Y-3289300D01*
G01X8369300Y-3289300D01*
G01X8267700Y-3187700D01*
G01X8267700Y-3041802D01*
G01X8567496Y-2906801D02*
G01X8585200Y-2889098D01*
G01X8567496Y-3199994D02*
G01X8567496Y-3135855D01*
G01X8512300Y-3080659D01*
G01X8512300Y-2977546D01*
G01X8567496Y-2922350D01*
G01X8567496Y-2906801D01*
G01X8585200Y-2889098D02*
G01X8585200Y-2698598D01*
G01X8579002Y-2692400D01*
G01X8579002Y-2457602D01*
G01X8394700Y-2273300D01*
G01X8216900Y-2082800D02*
G01X8216900Y-1803400D01*
G01X7188157Y-774657D02*
G01X7188157Y-190457D01*
G01X8216900Y-1803400D02*
G01X7188157Y-774657D01*
G01X10975666Y-2356939D02*
G01X10913328Y-2356939D01*
G01X11347298Y-3886200D02*
G01X11347298Y-3743795D01*
G01X11436502Y-2997200D02*
G01X11722100Y-3282798D01*
G01X11722100Y-3943198D01*
G01X11842598Y-3943198D01*
G01X11849100Y-3949700D01*
G01X11849100Y-4324502D01*
G01X11614302Y-4559300D01*
G01X9963187Y-4172204D02*
G01X9969500Y-4165891D01*
G01X9969500Y-4064000D01*
G01X9951539Y-4046039D01*
G01X9733461Y-4046039D01*
G01X9715500Y-4064000D01*
G01X9715500Y-4597400D01*
G01X9876307Y-4758207D01*
G01X11023600Y-4758207D01*
G01X9843567Y-4172204D02*
G01X9963187Y-4172204D01*
G01X10057994Y-4172204D01*
G01X11023600Y-4758207D02*
G01X11023600Y-4976810D01*
G01X11025190Y-4978400D01*
G01X11352210Y-4978400D02*
G01X11588598Y-4978400D01*
G01X11607800Y-4959198D01*
G01X11728298Y-4959198D01*
G01X11747500Y-4978400D01*
G01X11747500Y-5391302D01*
G01X11703202Y-5435600D01*
G01X11607800Y-5099202D02*
G01X11607800Y-5390998D01*
G01X11563198Y-5435600D01*
G01X11614302Y-4559300D02*
G01X11347602Y-4826000D01*
G01X11201400Y-4826000D01*
G01X11183439Y-4843961D01*
G01X11183439Y-5150939D01*
G01X11165479Y-5168900D01*
G01X10088697Y-5168900D02*
G01X10229698Y-5168900D01*
G01X10369398Y-5308600D01*
G01X11165479Y-5168900D02*
G01X10229698Y-5168900D01*
G01X11176864Y-5308600D02*
G01X11176000Y-5309464D01*
G01X11176000Y-5422900D01*
G01X11158039Y-5440861D01*
G01X10431961Y-5440861D01*
G01X10369398Y-5378298D02*
G01X10369398Y-5308600D01*
G01X10431961Y-5440861D02*
G01X10369398Y-5378298D01*
G01X11327536Y-5308600D02*
G01X11327536Y-5231536D01*
G01X11315700Y-5219700D01*
G01X11063334Y-5219700D01*
G01X10968417Y-5314617D01*
G01X10401300Y-2464664D02*
G01X10709592Y-2464664D01*
G01X10712335Y-2467406D01*
G01X10781804Y-2467406D01*
G01X10788891Y-2474493D01*
G01X9721698Y-2921000D02*
G01X9721698Y-3246577D01*
G01X9728721Y-3253600D01*
G01X9828543Y-3253600D02*
G01X9861702Y-3220441D01*
G01X9861702Y-2921000D01*
G01X9603600Y-3378695D02*
G01X9603600Y-3328657D01*
G01X9500743Y-3225800D01*
G01X8656054Y-2889098D02*
G01X8585200Y-2889098D01*
G01X8923688Y-3156732D02*
G01X8656054Y-2889098D01*
G01X9500743Y-3225800D02*
G01X9045481Y-3225800D01*
G01X8976412Y-3156732D01*
G01X8923688Y-3156732D01*
G01X10788891Y-2589505D02*
G01X10704800Y-2589505D01*
G01X10695031Y-2579737D01*
G01X10669637Y-2579737D01*
G01X10629900Y-2540000D01*
G01X10528300Y-2540000D01*
G01X10083800Y-4025900D02*
G01X10083800Y-4146398D01*
G01X10077298Y-4152900D01*
G01X9903600Y-3478517D02*
G01X10295297Y-3870215D01*
G01X10295297Y-3920705D01*
G01X10311641Y-3937049D01*
G01X10484754Y-3937049D01*
G01X10501097Y-3920705D01*
G01X10501097Y-3860749D01*
G01X10602697Y-3759149D01*
G01X10798197Y-3759149D01*
G01X11098196Y-3759149D02*
G01X10882245Y-3975100D01*
G01X10299700Y-3975100D01*
G01X10297249Y-3972649D01*
G01X10296895Y-3972649D01*
G01X10259698Y-3935451D01*
G01X10259698Y-3935098D01*
G01X10020300Y-3695700D01*
G01X9486900Y-3505200D02*
G01X9576918Y-3505200D01*
G01X9603600Y-3478517D01*
G01X7861890Y-3717326D02*
G01X7905308Y-3673907D01*
G01X7974406Y-3673907D01*
G01X7993304Y-3655009D01*
G01X7048500Y-3714598D02*
G01X7347790Y-3714598D01*
G01X7350518Y-3717326D01*
G01X7048500Y-3714598D02*
G01X6991502Y-3657600D01*
G01X6744162Y-3657600D02*
G01X6645059Y-3756703D01*
G01X6991502Y-3657600D02*
G01X6744162Y-3657600D01*
G01X6795731Y-3756703D02*
G01X6795731Y-4089674D01*
G01X6808500Y-4102443D01*
G01X7511504Y-4171150D02*
G01X8820950Y-4171150D01*
G01X9169400Y-3822700D01*
G01X9169400Y-3327400D01*
G01X9169400Y-3162300D02*
G01X9587382Y-3162300D01*
G01X9678683Y-3253600D01*
G01X10096500Y-2120900D02*
G01X10096500Y-2197100D01*
G01X11347298Y-3743795D02*
G01X11061700Y-3458197D01*
G01X11061700Y-2442974D01*
G01X10975666Y-2356939D01*
G01X10788891Y-2424506D02*
G01X10933506Y-2424506D01*
G01X11010900Y-2501900D01*
G01X11010900Y-3187700D01*
G01X10680700Y-3517900D01*
G01X10134600Y-3517900D01*
G01X10769600Y-4442652D02*
G01X10769600Y-4299102D01*
G01X6667500Y-1931264D02*
G01X6667500Y-1892300D01*
G01X6555207Y-1780007D02*
G01X6555207Y-1619352D01*
G01X6667500Y-1892300D02*
G01X6555207Y-1780007D01*
G01X7327900Y-3282798D02*
G01X7877013Y-3282798D01*
G01X7905308Y-3311093D01*
G01X7974406Y-3311093D01*
G01X7993304Y-3329991D01*
G01X7993304Y-3460013D02*
G01X7974380Y-3441090D01*
G01X7905308Y-3441090D01*
G01X7887021Y-3422802D01*
G01X7327900Y-3422802D01*
G01X7993304Y-3655009D02*
G01X8130591Y-3655009D01*
G01X8166100Y-3619500D01*
G01X8081299Y-3218892D02*
G01X8012202Y-3218892D01*
G01X7993304Y-3199994D01*
G01X8166100Y-3619500D02*
G01X8166100Y-3303692D01*
G01X8081299Y-3218892D01*
G01X7974406Y-3376091D02*
G01X7993304Y-3394989D01*
G01X7905308Y-3376091D02*
G01X7974406Y-3376091D01*
G01X7882017Y-3352800D02*
G01X7905308Y-3376091D01*
G01X6895345Y-3340750D02*
G01X6907395Y-3352800D01*
G01X7882017Y-3352800D01*
G01X6895345Y-3200745D02*
G01X7124355Y-3200745D01*
G01X7150100Y-3175000D01*
G01X7834214Y-3175000D02*
G01X7905308Y-3246094D01*
G01X7974406Y-3246094D01*
G01X7993304Y-3264992D01*
G01X7150100Y-3175000D02*
G01X7834214Y-3175000D01*
G01X6927952Y-1396594D02*
G01X7225030Y-1396594D01*
G01X7264400Y-1435964D01*
G01X6927952Y-1346606D02*
G01X7391400Y-1346606D01*
G01X7442200Y-1397406D01*
G01X7442200Y-1435964D01*
G01X6927952Y-1296594D02*
G01X7146166Y-1296594D01*
G01X7185750Y-1257010D01*
G01X6927952Y-1246607D02*
G01X6970293Y-1246607D01*
G01X7035800Y-1181100D01*
G01X7336422Y-1257010D02*
G01X7441910Y-1257010D01*
G01X7810500Y-1625600D01*
G01X7810500Y-1993900D01*
G01X8567496Y-3655009D02*
G01X8760409Y-3655009D01*
G01X8763000Y-3657600D01*
G01X7120522Y-4476971D02*
G01X7492573Y-4476971D01*
G01X7841602Y-4826000D01*
G01X8425802Y-4241800D01*
G01X8597900Y-4241800D01*
G01X8567496Y-3720008D02*
G01X8723808Y-3720008D01*
G01X8750300Y-3746500D01*
G01X7035800Y-1181100D02*
G01X7448590Y-1181100D01*
G01X7604145Y-1336655D01*
G01X9575800Y-1333500D02*
G01X11366500Y-1333500D01*
G01X11384461Y-1351461D01*
G01X11384461Y-1376861D01*
G01X11373002Y-1388319D01*
G01X11373002Y-1511300D01*
G01X9612833Y-4362196D02*
G01X8458200Y-4362196D01*
G01X7695012Y-3717326D02*
G01X7696200Y-3718513D01*
G01X7696200Y-3771900D01*
G01X7350518Y-3717326D02*
G01X7695012Y-3717326D01*
G01X7861890Y-3717326D01*
G01X5363565Y-705795D02*
G01X5363565Y-1705965D01*
G01X5384800Y-1727200D01*
G01X6286500Y-1727200D01*
G01X9903600Y-3328657D02*
G01X10058400Y-3173857D01*
G01X9232900Y-2349500D02*
G01X9182100Y-2298700D01*
G01X10058400Y-3173857D02*
G01X10058400Y-2832100D01*
G01X9575800Y-2349500D01*
G01X9232900Y-2349500D01*
G01X8420100Y-1739900D02*
G01X8724900Y-2044700D01*
G01X8839200Y-2044700D01*
G01X5661365Y-710336D02*
G01X5661365Y-1574800D01*
G01X5661365Y-2015278D02*
G01X6681387Y-3035300D01*
G01X7772400Y-3035300D02*
G01X7823200Y-3086100D01*
G01X6681387Y-3035300D02*
G01X7772400Y-3035300D01*
G01X8191500Y-3949700D02*
G01X8877300Y-3949700D01*
G01X9029700Y-3797300D01*
G01X9334500Y-3683000D02*
G01X9549282Y-3683000D01*
G01X9678683Y-3553600D01*
G01X6981546Y-1143000D02*
G01X7159346Y-965200D01*
G01X7162800Y-965200D01*
G01X9678683Y-3553600D02*
G01X9678683Y-3835400D01*
G01X9828543Y-3553600D02*
G01X9842500Y-3567557D01*
G01X9842500Y-3721100D01*
G01X8567496Y-3590011D02*
G01X8724900Y-3590011D01*
G01X8567496Y-3525012D02*
G01X8801100Y-3525012D01*
G01X7264400Y-1586636D02*
G01X7264400Y-1816100D01*
G01X7251700Y-1828800D01*
G01X11563198Y-5435600D02*
G01X11423498Y-5575300D01*
G01X9671108Y-5575300D02*
G01X9494705Y-5398897D01*
G01X11423498Y-5575300D02*
G01X9671108Y-5575300D01*
G01X6805193Y-1619352D02*
G01X6855206Y-1619352D01*
G01X7073900Y-1619352D01*
G01X6432448Y-1196594D02*
G01X6297272Y-1196594D01*
G01X5043858Y-570332D02*
G01X5359024Y-570332D01*
G01X5363565Y-565790D01*
G01X5656823Y-565790D01*
G01X5661365Y-570332D01*
G01X5983048Y-570332D01*
G01X5985240Y-572524D01*
G01X6007100Y-165100D02*
G01X6007100Y-550664D01*
G01X5985240Y-572524D01*
G01X6116226Y-572524D01*
G01X6337300Y-793598D01*
G01X6927952Y-1196594D02*
G01X6946900Y-1177646D01*
G01X6946900Y-1158700D01*
G01X6945946Y-1157746D01*
G01X6945946Y-1128254D01*
G01X6946900Y-1127300D01*
G01X6946900Y-1092200D01*
G01X7169150Y-869950D01*
G01X7327900Y-736600D02*
G01X7359498Y-736600D01*
G01X7448398Y-647700D01*
G01X6752946Y-1371600D02*
G01X6680200Y-1371600D01*
G01X6927952Y-1196594D02*
G01X6919840Y-1204706D01*
G01X6883894Y-1204706D01*
G01X6867551Y-1221050D01*
G01X6867551Y-1256995D01*
G01X6752946Y-1371600D01*
G01X7371499Y-4171150D02*
G01X7371499Y-3878311D01*
G01X7350518Y-3857330D01*
G01X7920980Y-3857330D01*
G01X7993304Y-3785006D01*
G01X7048500Y-3854602D02*
G01X7347790Y-3854602D01*
G01X7350518Y-3857330D01*
G01X6958300Y-4101757D02*
G01X7035800Y-4024257D01*
G01X7035800Y-3867302D02*
G01X7048500Y-3854602D01*
G01X7035800Y-4024257D02*
G01X7035800Y-3867302D01*
G01X6969850Y-4476971D02*
G01X6969850Y-4113307D01*
G01X6958300Y-4101757D01*
G01X6969850Y-4476971D02*
G01X6969850Y-4822748D01*
G01X6966598Y-4826000D01*
G01X7448398Y-647700D02*
G01X7464818Y-631279D01*
G01X7464818Y-421190D01*
G01X7035800Y-1181100D02*
G01X7035800Y-1145593D01*
G01X7038393Y-1143000D01*
G01X6981546Y-1143000D01*
G01X8267700Y-2901798D02*
G01X8267700Y-2863698D01*
G01X8438998Y-2692400D01*
G01X8879495Y-3264992D02*
G01X8919856Y-3224632D01*
G01X8585200Y-3029102D02*
G01X8629802Y-3029102D01*
G01X8703894Y-3103194D01*
G01X8703894Y-3128594D01*
G01X8682497Y-3149992D01*
G01X8682497Y-3219089D01*
G01X8655492Y-3246094D01*
G01X8586394Y-3246094D01*
G01X8567496Y-3264992D01*
G01X8567496Y-3785006D02*
G01X8433206Y-3785006D01*
G01X8255000Y-3225800D02*
G01X8102600Y-3073400D01*
G01X8102600Y-3048000D01*
G01X8248802Y-2901798D01*
G01X8267700Y-2901798D01*
G01X8433206Y-3785006D02*
G01X8255000Y-3606800D01*
G01X7993304Y-3785006D02*
G01X8433206Y-3785006D01*
G01X7993304Y-3720008D02*
G01X7993304Y-3785006D01*
G01X8567496Y-3460013D02*
G01X8548598Y-3478912D01*
G01X8479501Y-3478912D01*
G01X8389354Y-3569059D01*
G01X8255000Y-3569059D01*
G01X8255000Y-3606800D02*
G01X8255000Y-3569059D01*
G01X8255000Y-3225800D01*
G01X8801100Y-3264992D02*
G01X8830499Y-3294391D01*
G01X8994376Y-3314700D02*
G01X9017000Y-3314700D01*
G01X8830499Y-3294391D02*
G01X8974067Y-3294391D01*
G01X8994376Y-3314700D01*
G01X9017000Y-3314700D02*
G01X9034961Y-3332661D01*
G01X9034961Y-3441700D01*
G01X9017000Y-3459661D01*
G01X8567849Y-3459661D01*
G01X8567496Y-3460013D01*
G01X8567496Y-3264992D02*
G01X8801100Y-3264992D01*
G01X8879495Y-3264992D01*
G01X8919856Y-3224632D02*
G01X8993967Y-3224632D01*
G01X9030735Y-3261400D01*
G01X9192300Y-3261400D01*
G01X9359379Y-3428479D02*
G01X9603600Y-3428479D01*
G01X9192300Y-3261400D02*
G01X9359379Y-3428479D01*
G01X9603600Y-3428479D02*
G01X9728721Y-3428479D01*
G01X9753613Y-3403587D01*
G01X9778505Y-3378695D01*
G01X9778505Y-3253600D01*
G01X9753613Y-3403587D02*
G01X9878708Y-3403587D01*
G01X9903600Y-3428479D01*
G01X9728721Y-3553600D02*
G01X9728721Y-3428479D01*
G01X9971500Y-3354214D02*
G01X9971500Y-3345843D01*
G01X10258193Y-3059151D01*
G01X9903600Y-3378695D02*
G01X9947019Y-3378695D01*
G01X9971500Y-3354214D01*
G01X9728721Y-3553600D02*
G01X9778505Y-3553600D01*
G01X9778505Y-3873005D01*
G01X9817100Y-3911600D01*
G01X10121900Y-3911600D01*
G01X10217302Y-4007002D02*
G01X10217302Y-4152900D01*
G01X10121900Y-3911600D02*
G01X10217302Y-4007002D01*
G01X9843567Y-4267200D02*
G01X10103002Y-4267200D01*
G01X10217302Y-4152900D01*
G01X10469093Y-4152900D01*
G01X10477500Y-4144493D01*
G01X10754995Y-4144493D01*
G01X10769600Y-4159098D01*
G01X11021695Y-4411193D01*
G01X11023600Y-4411193D01*
G01X11326190Y-4411193D01*
G01X11474298Y-4559300D01*
G01X11474298Y-4201490D01*
G01X11463807Y-4191000D01*
G01X11614302Y-4191000D01*
G01X11722100Y-4083202D01*
G01X11463807Y-4191000D02*
G01X11487302Y-4167505D01*
G01X11487302Y-3886200D01*
G01X11023600Y-4411193D02*
G01X10926293Y-4508500D01*
G01X10833100Y-4508500D01*
G01X10706100Y-5232400D02*
G01X10789003Y-5315303D01*
G01X10818618Y-5315303D01*
G01X10509402Y-5308600D02*
G01X10629900Y-5308600D01*
G01X10706100Y-5232400D01*
G01X10865726Y-1916989D02*
G01X11042815Y-1739900D01*
G01X11232998Y-1739900D01*
G01X11232998Y-1511300D01*
G01X11232998Y-1739900D02*
G01X11283709Y-1790611D01*
G01X11283709Y-1916989D01*
G01X10865726Y-1916989D02*
G01X10865726Y-1952650D01*
G01X10788891Y-2029485D01*
G01X10302096Y-2044410D02*
G01X10773966Y-2044410D01*
G01X10788891Y-2029485D01*
G01X10258193Y-3059151D02*
G01X10401300Y-2916043D01*
G01X10401300Y-2615336D02*
G01X10680285Y-2615336D01*
G01X10766797Y-2647395D02*
G01X10788891Y-2669489D01*
G01X10680285Y-2615336D02*
G01X10712344Y-2647395D01*
G01X10766797Y-2647395D01*
G01X10401300Y-2877420D02*
G01X10770318Y-2877420D01*
G01X10865726Y-2782011D01*
G01X10401300Y-2916043D02*
G01X10401300Y-2877420D01*
G01X10401300Y-2615336D01*
G01X11296498Y-2997200D02*
G01X11296498Y-2794800D01*
G01X11283709Y-2782011D01*
G01X11296498Y-2997200D02*
G01X11137900Y-2997200D01*
G01X10865726Y-2782011D02*
G01X10934126Y-2850411D01*
G01X10934126Y-2997200D01*
G01X10401300Y-2615336D02*
G01X10171836Y-2615336D01*
G01X10160000Y-2603500D01*
G01X10160000Y-2425700D01*
G01X10160000Y-2032000D02*
G01X10289686Y-2032000D01*
G01X10302096Y-2044410D01*
G01X6337300Y-793598D02*
G01X6337300Y-660400D01*
G01X6680200Y-698500D02*
G01X6997700Y-698500D01*
G01X7169150Y-869950D01*
G01X7442200Y-1586636D02*
G01X7442200Y-2006600D01*
G01X7175500Y-2006600D01*
G01X8102600Y-1333500D02*
G01X9131300Y-1333500D01*
G01X8438998Y-2692400D02*
G01X8438998Y-2444598D01*
G01X8318500Y-2324100D01*
G01X8089900Y-1993900D02*
G01X8089900Y-1739900D01*
G01X7219950Y-869950D02*
G01X7169150Y-869950D01*
G01X8089900Y-1739900D02*
G01X7219950Y-869950D01*
G04 Track End*

M02*

